<svg width="95" height="63" viewBox="0 0 95 63" fill="none" xmlns="http://www.w3.org/2000/svg">
<g clip-path="url(#clip0)">
<path d="M56.1123 27.0388C55.4964 27.1851 53.946 29.0239 52.3531 29.0239C50.7602 29.0239 49.9106 26.7254 49.4434 23.5284C49.3372 22.7761 49.2735 21.8567 49.2735 20.9164C51.5035 20.5821 53.1601 20.4776 53.1601 20.4776C53.6274 18.4925 55.3265 11.7851 50.0593 11.9313C45.8116 11.994 44.5798 16.0896 44.9833 20.4985C44.1762 20.6239 43.4116 20.791 42.6895 21C41.2028 13.3313 36.0843 14.6896 36.0843 14.6896C36.0843 14.6896 39.971 2.46567 33.5994 3.23881C31.0508 3.7612 28.6933 7.37612 27.1217 10.4269C26.7819 6.62388 26.2297 2.38209 23.8085 2.48657C20.92 2.61194 22.2581 15.9224 23.0226 19.1194C23.8085 22.3164 25.3589 32.7015 29.6915 32.5552C33.3446 32.4298 29.7553 22.3791 28.1624 17.009C29.4579 12.6 32.0703 4.72239 34.3428 5.07761C37.4861 5.57911 31.8579 15.609 30.626 17.5104C29.3942 19.4119 32.1765 19.8716 32.1765 19.8716C34.4065 16.7164 39.079 15.0657 40.7993 20.4776C40.9267 20.8328 41.0117 21.209 41.0754 21.5642C37.8896 22.9015 35.872 25.1791 35.1499 27.4985C34.0667 31.009 36.233 33.4537 38.2507 33.4537C40.2683 33.4537 43.9851 31.7821 42.9019 22.4627C42.9019 22.4418 42.9019 22.4 42.8807 22.3791C43.6028 22.1284 44.3674 21.9194 45.1107 21.7313C45.8966 26.6209 48.5514 31.4895 51.2699 31.3224C56.7282 31.009 56.7282 26.8716 56.1123 27.0388ZM38.4206 30.0896C37.3374 29.9433 36.1056 25.5134 40.7993 23.2149C40.9692 23.1313 41.1179 23.0687 41.2878 22.9851C41.6064 27.1642 39.3338 30.2149 38.4206 30.0896ZM51.4611 14.3552C53.4787 14.5015 51.4611 19.7045 51.4611 19.7045C51.4611 19.7045 50.9726 19.7881 49.2947 19.997C49.4009 17.1552 50.0593 14.2507 51.4611 14.3552Z" fill="#232323"/>
<path d="M77.2869 10.9284C73.7188 10.2388 65.4995 12.3284 63.6305 12.8299C62.8871 13.0388 63.5455 14.1254 64.565 13.9791C65.096 13.8955 67.8994 13.5194 70.6817 13.1642C70.2569 14.0836 69.5348 15.797 69.0251 17.8448C68.0693 18.1791 66.5826 18.7433 64.9685 19.5582C64.6924 18.8478 64.3738 18.1582 64.034 17.5104C62.0164 13.6239 57.6625 7.52239 59.3828 4.45075C61.1031 1.37911 64.7774 3.32239 65.542 6.5194C65.7756 7.43881 66.0517 7.0209 66.0517 7.0209C66.2004 3.99105 61.4854 -2.57015 56.3881 1.08657C51.3121 4.74328 56.4306 13.7493 58.2784 16.0478C59.0217 16.9672 60.3173 19.3284 61.3367 21.8567C59.1704 23.591 57.4713 25.8896 57.6625 28.7313C57.981 32.5552 64.9473 33.6418 66.0304 29.9642C66.8163 27.3313 66.4765 24.0925 65.4782 21.0209C66.2853 20.5821 67.3048 20.1433 68.6216 19.6418C68.3879 21.0418 68.303 22.5045 68.4516 23.9881C69.0676 29.6925 72.1684 29.9851 73.7188 29.2746C74.3347 28.8776 72.5294 24.0299 72.3808 19.4955C72.2746 16.403 72.402 14.0836 72.5082 12.9134C74.3347 12.6627 75.9064 12.4537 76.5011 12.3701C78.1364 12.1403 78.455 10.7821 77.2869 10.9284ZM61.3792 29.9224C57.3439 30.2358 59.043 25.6388 61.0606 24.2806C61.4004 24.0507 61.6978 23.8209 61.9739 23.5701C63.0783 26.7881 63.4393 29.7761 61.3792 29.9224Z" fill="#232323"/>
<path d="M34.4917 37.8C32.4103 37.8 32.4103 40.9761 34.4917 40.9761C36.5731 40.997 36.5731 37.8 34.4917 37.8Z" fill="#232323"/>
<path d="M39.5673 55.4776C39.3549 56.0836 37.5921 58.5283 36.87 58.4239C36.1479 58.3194 34.5974 55.9791 35.001 52.4269C35.4045 48.8746 35.6169 46.3254 35.6169 44.6955C35.6169 43.0657 33.3444 43.1701 32.9196 44.0895C32.5161 45.0089 30.8595 45.6776 28.6719 45.4478C26.5056 45.2179 24.9551 42.5642 24.1268 41.9582C23.2985 41.3522 22.1516 43.0866 22.4277 43.8388C22.7039 44.6119 24.0631 48.3104 23.3622 52.9283C22.6614 57.5463 20.0278 60.0746 18.9446 60.0746C17.8615 60.0746 16.5022 57.4418 15.95 53.9731C15.3978 50.5045 14.8244 47.6836 14.3571 46.6179C13.8899 45.5522 11.3412 45.0089 10.9377 45.1761C10.5554 45.3224 7.05104 50.9015 5.81921 50.4418C4.58737 49.9821 5.81921 42.8149 6.66875 40.3701C7.51829 37.9254 11.7023 29.9851 8.92004 28.7731C6.2015 27.5821 -5.56465 47.7045 3.12191 52.0716C7.98554 54.203 10.3643 50.7552 10.3643 50.7552C10.3643 50.7552 9.02623 61.9552 18.2225 62.2477C27.4188 62.5612 25.21 45.4895 25.21 45.4895C25.21 45.4895 26.9091 46.994 31.8789 46.6806C31.8789 46.6806 26.6117 59.9075 34.6612 60.4089C39.0151 60.4089 40.2681 56.8567 40.7779 55.8328C41.3088 54.7672 39.7584 54.8716 39.5673 55.4776Z" fill="#232323"/>
<path d="M94.9999 48.394C94.9999 48.394 91.4743 48.791 87.9275 50.0448C87.4815 49.3552 87.0142 48.6657 86.547 47.9761C84.0621 44.2567 82.6391 35.5433 87.5877 35.6269C90.7522 35.6269 89.4354 42.4179 89.4354 42.4179L90.9009 41.6448C91.2832 39.9731 90.9858 36.9851 89.4992 35.3761C88.0337 33.7672 82.0232 33.8507 80.6427 37.9045C79.2622 41.9582 80.9613 46.0746 84.3169 51.2567C84.3807 51.3612 84.4656 51.4866 84.5293 51.591C82.3418 52.9075 80.7064 54.7045 80.7701 57.1284C80.7701 61.4746 87.5877 62.8537 89.3717 60.0328C91.2619 56.9403 90.3699 54.0776 88.7983 51.3821C90.8372 50.7761 95.0424 49.8985 95.0424 49.8985V48.394H94.9999ZM85.5913 59.4478C84.2108 59.5313 82.3418 59.0716 82.1931 56.7104C82.1081 55.3104 83.6373 53.9731 85.2727 52.991C87.4603 57.1075 86.8231 59.3851 85.5913 59.4478Z" fill="#232323"/>
<path d="M65.7327 52.0716C65.9664 50.0866 65.8814 42.606 65.4991 41.5403C65.1168 40.4746 63.5239 39.2836 63.3115 40.0149C62.9292 41.3522 61.9098 45.5522 61.57 49.4597C60.2744 49.397 59.0001 49.6687 58.0444 49.9821C57.6196 44.6119 57.1524 39.0119 57.0249 38.1761C56.7913 36.5672 55.1559 37.8 55.1559 37.8C55.0285 39.0746 54.5188 44.7791 54.2214 49.9821C52.9471 50.191 50.5047 50.6507 48.0623 51.5075C47.6163 50.8179 47.149 50.1284 46.6818 49.4388C44.1969 45.7194 42.7739 37.006 47.7224 37.0895C50.887 37.0895 49.5702 43.8806 49.5702 43.8806L51.0357 43.1075C51.418 41.4358 51.1206 38.4478 49.6339 36.8388C48.1685 35.2298 42.158 35.3134 40.7774 39.3672C39.3969 43.4209 41.096 47.5373 44.4517 52.7194C44.5154 52.8239 44.6004 52.9493 44.6641 53.0537C42.4765 54.3701 40.8412 56.1672 40.9049 58.591C40.9049 62.9373 47.7225 64.3164 49.5065 61.4955C51.3967 58.403 50.5047 55.5403 48.933 52.8448C50.3348 52.4269 52.7772 51.8627 54.1577 51.5701C53.9878 55.0179 53.9241 57.9851 54.2002 58.8209C54.8798 61.0358 58.8302 60.7224 58.8302 60.2C58.8302 59.9701 58.5116 55.8746 58.1506 51.2567C59.1063 51.0269 60.4019 51.006 61.4638 51.0478C61.4213 52.3851 61.4638 53.6179 61.6974 54.6209C62.6319 58.9045 63.0992 60.2 64.4797 60.5761C65.8814 60.9522 67.1132 60.4298 67.3469 59.6567C67.5805 58.8836 65.4991 54.0567 65.7327 52.0716ZM45.7685 60.9104C44.388 60.994 42.519 60.5343 42.3703 58.1731C42.2854 56.7731 43.8146 55.4358 45.4499 54.4537C47.6375 58.5702 47.0003 60.8478 45.7685 60.9104Z" fill="#232323"/>
<path d="M80.9395 52.594C80.6209 52.594 80.4723 52.6776 80.2386 53.3672C80.005 54.0567 78.0723 58.3194 75.821 58.5493C74.037 58.7373 72.3166 54.8925 71.5521 51.9254C73.1025 51.7582 75.4387 51.3821 76.2883 50.7552C77.6051 49.7731 78.3909 40.3701 72.2529 40.9761C66.115 41.603 66.5185 61.3702 74.8228 60.597C81.0032 59.9284 81.2368 52.594 80.9395 52.594ZM73.1025 42.2298C75.6086 42.2298 76.352 48.2896 75.5874 49.4597C75.0989 50.2119 72.8264 50.5254 71.2547 50.6716C71.191 50.3791 71.1698 50.1075 71.1273 49.8567C70.8512 47.0985 70.5963 42.2298 73.1025 42.2298Z" fill="#232323"/>
</g>
<defs>
<clipPath id="clip0">
<rect width="95" height="63" fill="white"/>
</clipPath>
</defs>
</svg>
