<svg width="89" height="65" viewBox="0 0 89 65" fill="none" xmlns="http://www.w3.org/2000/svg">
<g clip-path="url(#clip0)">
<path d="M6.00287 21.6548C8.81481 21.5656 9.93066 18.7538 8.1453 16.6116C7.29726 16.1876 8.90408 19.6018 6.27068 19.6688C3.61496 19.758 2.76691 16.7678 5.42263 14.6255C8.07835 12.461 10.8903 12.2155 14.037 12.6395C14.5949 12.7064 15.309 12.818 16.0901 12.9519C16.1125 16.3215 16.0678 24.8682 18.8798 26.7204C21.0222 27.6353 22.1157 25.7162 22.0264 24.8236C21.9818 24.355 21.9372 19.1778 21.8256 14.0453C23.5217 14.4024 25.0615 14.7817 26.1328 15.1165C25.9989 17.8612 25.9989 20.1151 26.1328 20.7622C26.5568 22.7483 27.7619 25.3145 29.034 25.7385C30.306 26.1625 30.9979 25.5823 31.4219 25.2476C31.8459 24.9128 30.3953 3.95886 29.882 3.04394C29.3687 2.12901 29.1232 1.30335 28.1859 1.72734C27.2709 2.12901 26.5568 8.22106 26.222 13.4428C25.1285 13.0411 23.6109 12.5502 21.781 12.0816C21.6694 8.15412 21.5132 4.62831 21.2677 3.71339C20.6651 1.43724 18.8798 -0.057878 17.7639 0.700839C16.3133 1.66039 16.0232 7.99791 16.0455 10.9658C14.1262 10.7204 12.0731 10.6311 9.99761 10.7204C2.54374 11.0997 0.847656 14.3131 0.847656 16.9686C0.847656 20.1597 3.19094 21.7218 6.00287 21.6548Z" fill="#232323"/>
<path d="M88.9557 23.083C88.5094 18.8877 84.7378 17.3926 82.1267 18.2629C81.2563 18.553 79.6495 19.1109 77.8865 19.9589C77.9311 18.9993 77.9534 18.1513 77.9758 17.5711C78.0427 15.0272 78.1543 12.037 77.9758 10.6757C77.7972 9.29219 75.2977 9.87239 75.1861 10.6981C75.0746 11.5237 75.2754 19.6241 71.8832 19.8027C68.5134 19.9812 71.4369 10.408 71.5485 9.20293C71.6601 7.99791 69.3391 7.66318 68.9374 8.4219C68.0447 10.0955 66.4602 16.0537 67.2413 19.3787C66.4825 20.4944 65.1212 22.0788 63.5813 22.235C61.1934 22.4582 61.9968 13.3982 62.3316 10.6981C62.6663 7.99791 63.0234 4.8961 63.5813 2.57532C64.1392 0.254536 59.9437 0.433057 59.8321 1.61576C59.7205 2.79847 57.4218 12.9519 57.8905 16.2099C57.8905 16.2099 55.5026 22.5697 53.5833 22.4582C51.6418 22.3466 51.7533 15.1611 52.1104 11.7469C52.4452 8.33264 52.8022 3.91423 52.9138 2.46374C53.0254 1.03557 50.8607 0.74547 49.9457 1.61576C49.0307 2.48606 47.8256 6.43585 47.223 10.8096C46.2857 11.5014 45.1252 12.2824 43.6969 13.0635C43.4737 13.175 43.2729 13.2866 43.0497 13.3982C42.1794 11.9254 40.8627 10.8543 39.0327 10.7204C34.6139 10.3633 32.8955 15.8529 32.8955 18.8208C32.8955 21.7887 34.7255 25.7831 38.2516 25.8947C41.7777 26.0063 44.5003 21.6548 44.3887 18.3075C44.3441 17.1695 44.1433 15.9644 43.7415 14.871C44.8797 14.2685 46.0179 13.5544 46.9998 12.8849C46.4865 18.5753 47.156 24.288 50.883 24.4665C57.1317 24.4888 58.627 18.8431 58.627 18.8431C58.627 18.8431 58.2922 23.931 62.4878 23.931C65.0319 23.931 66.8619 22.235 67.9331 20.8961C68.3125 21.387 68.8481 21.6994 69.5399 21.7218C73.981 21.9449 75.1192 19.2894 75.1192 19.2894C75.1192 19.2894 75.1192 20.249 75.0522 21.6102C72.3965 23.3508 70.0532 25.7162 69.9863 28.7734C69.8747 34.9547 74.5389 33.7497 76.1235 30.5363C77.0831 28.6172 77.5517 25.2699 77.7749 22.3466C81.4572 20.2936 86.5678 18.2852 86.8133 22.9045C87.148 29.4205 80.0959 28.9965 81.5911 25.8947C83.064 22.7929 84.5593 22.6813 84.5593 22.6813C84.5593 22.6813 82.7293 21.3647 81.1448 23.7748C79.5603 26.2071 79.3148 30.7371 82.9748 30.9603C86.5678 31.1388 89.402 27.2782 88.9557 23.083ZM39.1219 13.2643C39.9477 13.2197 40.5725 13.5321 41.0412 14.0453C39.7691 14.3354 38.6533 14.3131 37.7606 14.2015C38.1177 13.6437 38.564 13.2866 39.1219 13.2643ZM42.0901 17.4596C42.2017 19.7803 41.6438 23.5293 39.1219 23.5293C37.4259 23.5293 36.5778 18.8877 37.1804 15.8529C37.8276 16.0091 38.6086 16.1206 39.5683 16.1653C40.2155 16.1876 40.9742 16.0091 41.8223 15.6967C41.9785 16.2322 42.0678 16.8347 42.0901 17.4596ZM72.5751 30.9156C70.0756 31.0272 72.3519 25.8278 74.405 24.3996C74.5389 24.3103 74.6952 24.1987 74.8737 24.0872C74.5836 27.2782 73.9587 30.871 72.5751 30.9156Z" fill="#232323"/>
<path d="M72.3962 48.4107C71.5259 48.7008 69.919 49.2587 68.156 50.1067C68.2006 49.1471 68.223 48.2992 68.2453 47.719C68.3122 45.175 68.4238 42.1848 68.2453 40.8236C68.0667 39.44 65.5672 40.0202 65.4557 40.8459C65.3441 41.6715 65.5449 49.772 62.1528 49.9505C58.7829 50.129 61.7064 40.5558 61.818 39.3508C61.9296 38.1457 59.6086 37.811 59.2069 38.5697C58.3142 40.2434 56.7297 46.2015 57.5108 49.5265C56.7521 50.6423 55.3907 52.2266 53.8508 52.3829C51.4629 52.606 52.2663 43.546 52.6011 40.8459C52.9359 38.1457 53.2929 35.0439 53.8508 32.7231C54.4088 30.4024 50.2132 30.5809 50.1016 31.7636C49.99 32.9463 47.6914 43.0997 48.16 46.3577C48.16 46.3577 45.7721 52.7176 43.8529 52.606C41.9113 52.4944 42.0229 45.3089 42.3799 41.8947C42.7147 38.4805 43.0718 34.0621 43.1833 32.6116C43.2949 31.1834 41.1302 30.8933 40.2152 31.7636C39.3002 32.6339 38.0951 36.5837 37.4925 40.9575C36.5552 41.6492 35.3947 42.4303 33.9664 43.2113C33.7433 43.3229 33.5424 43.4344 33.3193 43.546C32.4489 42.0732 31.1322 41.0021 29.3022 40.8682C24.8834 40.5112 23.165 46.0007 23.165 48.9686C23.165 51.9589 24.995 55.931 28.5211 56.0425C32.0472 56.1541 34.7699 51.8027 34.6583 48.4554C34.6136 47.3173 34.4128 46.1123 34.0111 45.0188C35.1492 44.4163 36.2874 43.7022 37.2694 43.0328C36.7561 48.7232 37.4256 54.4359 41.1525 54.6144C47.4012 54.6367 48.8965 48.9909 48.8965 48.9909C48.8965 48.9909 48.5617 54.0788 52.7573 54.0788C55.3014 54.0788 57.1314 52.3829 58.2026 51.0439C58.582 51.5349 59.1176 51.8473 59.8095 51.8696C64.2505 52.0928 65.3887 49.4372 65.3887 49.4372C65.3887 49.4372 65.3887 50.3968 65.3218 51.758C62.666 53.4986 60.3228 55.864 60.2558 58.9212C60.1442 65.1025 64.8085 63.8975 66.393 60.6841C67.3526 58.765 67.8213 55.4177 68.0444 52.4944C71.7267 50.4414 76.8373 48.4331 77.0828 53.0523C77.4175 59.5683 70.3654 59.1444 71.8606 56.0425C73.3335 52.9407 74.8288 52.8292 74.8288 52.8292C74.8288 52.8292 72.9988 51.5126 71.4143 53.9226C69.8298 56.355 69.5843 60.8849 73.2443 61.1081C76.8819 61.3313 79.7385 57.4707 79.2699 53.2755C78.7566 49.0356 75.0073 47.5404 72.3962 48.4107ZM29.3915 43.4121C30.2172 43.3675 30.8421 43.6799 31.3107 44.1932C30.0387 44.4833 28.9228 44.4609 28.0301 44.3494C28.3649 43.7915 28.8112 43.4345 29.3915 43.4121ZM32.3596 47.6074C32.4712 49.9282 31.9133 53.6771 29.3915 53.6771C27.6954 53.6771 26.8473 49.0356 27.4499 46.0007C28.0971 46.1569 28.8782 46.2685 29.8378 46.3131C30.485 46.3354 31.2438 46.1569 32.0918 45.8445C32.248 46.3801 32.315 46.9826 32.3596 47.6074ZM62.8446 61.0635C60.3451 61.175 62.6214 55.9756 64.6746 54.5474C64.8085 54.4582 64.9647 54.3466 65.1432 54.235C64.8308 57.4261 64.2282 61.0188 62.8446 61.0635Z" fill="#232323"/>
<path d="M5.69088 33.6827C5.69088 33.6827 6.94063 35.8919 8.56976 36.1374C10.1989 36.3828 19.0587 35.6464 19.0587 35.6464C19.0587 35.6464 16.3361 54.1904 16.0683 56.2657C15.8005 58.341 13.7919 61.8445 9.39549 61.666C5.02137 61.5098 3.41455 57.8501 3.77162 53.6548C4.10637 49.4596 10.489 49.0133 10.489 49.0133C3.07979 45.2866 0.334807 51.3563 0.223222 52.5614C0.111638 53.7664 -2.27628 64.4777 11.6049 64.4777C25.486 64.4777 21.9599 34.9993 21.2681 33.1025C20.5763 31.228 7.85562 33.2364 5.69088 33.6827Z" fill="#232323"/>
</g>
<defs>
<clipPath id="clip0">
<rect width="89" height="64" fill="white" transform="translate(0 0.5)"/>
</clipPath>
</defs>
</svg>
