<svg width="82" height="100" viewBox="0 0 82 100" fill="none" xmlns="http://www.w3.org/2000/svg">
<g clip-path="url(#clip0)">
<path d="M47.5427 54.5794C47.9331 53.7189 48.0396 53.0018 48.2171 52.2488C48.5011 50.9939 48.8206 49.739 49.1046 48.484C50.0985 47.9821 49.424 46.9423 49.779 46.2252C49.8855 46.01 49.921 45.6156 49.637 45.4364C49.3885 45.2571 49.637 45.2571 49.6725 45.1854C49.708 45.0778 49.8145 44.9344 49.779 44.8627C49.353 43.8229 49.9565 43.0341 50.489 42.2811C51.0214 41.4923 50.9859 40.5601 51.1634 39.6995C51.2699 39.1617 51.6249 38.6956 51.5539 38.0861C51.5184 37.8351 51.6959 37.6558 51.3054 37.4407C50.9504 37.2255 51.4474 36.9745 51.5894 36.7594C51.7314 36.5443 52.1574 36.4009 51.5539 36.2216C51.3764 36.1857 51.3764 36.0065 51.4829 35.8989C51.5894 35.7555 51.6959 35.5762 51.8379 35.4686C52.7963 34.9667 53.8258 34.644 54.9262 34.7157C55.5297 34.7515 55.7781 35.0742 55.8136 35.5762C56.0266 37.1897 56.3106 38.839 56.3106 40.4525C56.3461 41.5281 56.2396 42.6038 56.2751 43.6795C56.3461 45.7949 56.2396 47.9462 56.7366 50.0258C56.9141 50.7071 56.7366 51.46 56.9496 52.1771C56.9851 52.2847 56.9851 52.3923 57.1981 52.4998C57.3401 51.8186 57.5175 51.1732 57.624 50.5278C57.979 48.2689 58.689 46.0818 58.7245 43.8229C58.76 41.7074 59.4699 39.6995 59.4699 37.6199C59.4699 37.0463 59.5054 36.3292 60.0379 35.8272C60.2864 35.5762 60.3574 35.2176 60.4639 34.8949C60.4994 34.7874 60.4639 34.6798 60.5704 34.6081C61.4933 33.9986 62.4517 33.4249 63.6232 33.7117C63.9426 33.7834 63.8717 33.9986 63.8717 34.2137C63.6587 35.7196 63.6942 37.2614 63.2682 38.7314C63.1617 39.09 63.2327 39.4844 63.1972 39.8788C63.0907 41.4564 62.5937 42.9624 62.4517 44.54C62.3452 45.5798 62.0258 46.6196 61.7773 47.6594C61.6708 48.1614 61.5998 48.6992 61.5643 49.237C61.4933 50.4202 61.2093 51.5676 60.9608 52.715C60.7123 53.8265 60.5704 54.938 60.4284 56.0853C60.3219 56.8383 60.0734 57.5195 59.7539 58.2008C59.2569 59.2764 58.192 59.0255 57.3046 59.0613C56.8431 59.0972 56.3816 58.9896 55.9556 58.8462C55.0327 58.5952 54.3937 57.663 54.4647 56.6949C54.4647 56.659 54.5002 56.5873 54.5002 56.5873C53.4353 55.7268 53.9323 54.4719 53.7193 53.3603C53.6128 52.8584 53.5063 52.3564 53.3288 51.8903C52.9738 50.8863 53.1158 49.8465 53.1868 48.8067C53.1868 48.484 53.1158 48.1972 52.9738 47.8387C52.4059 49.8107 52.2284 51.7469 52.0509 53.683C51.9089 55.0814 51.7669 56.4439 51.2699 57.7705C50.9149 58.7386 50.2405 59.3123 49.3885 59.7784C49.353 59.8143 49.282 59.8501 49.2465 59.8143C48.5721 59.2764 47.6491 60.0653 46.9747 59.384C45.2353 59.4916 45.1288 57.914 44.5608 56.91C43.9219 55.7985 43.7444 54.5077 43.5669 53.2528C43.3894 52.1771 43.0699 51.1373 42.9989 50.0258C42.8924 48.1972 42.8569 46.4044 42.9989 44.5758C43.1054 43.1058 43.2829 41.6357 43.3894 40.1298C43.4604 39.2693 43.6024 38.3729 42.9989 37.5841C42.8569 37.4048 43.1054 37.1897 43.2474 37.1538C44.0994 37.0104 44.8803 36.4726 45.7678 36.7953C46.3002 37.0104 46.6197 37.1538 46.6552 37.8709C46.7262 39.4844 46.9037 41.1337 46.6907 42.7472C46.6197 43.3209 46.5132 43.9304 46.5487 44.4683C46.5487 45.0061 46.4422 45.5798 46.5132 46.0818C46.6552 47.0857 46.3357 48.0896 46.4422 49.0936C46.7617 50.9222 46.8682 52.6791 47.5427 54.5794Z" fill="#232323"/>
<path d="M61.4226 70.4274C61.5646 70.8577 60.9611 71.2521 61.4581 71.3955C61.8841 71.5031 61.8486 70.9652 61.9196 70.6784C62.0971 70.0688 62.7005 69.7462 62.949 69.1725C63.02 68.9932 63.233 68.8139 63.0555 68.6705C62.5231 68.2402 62.9845 67.9892 63.233 67.81C64.9724 66.3041 66.8538 65.6945 69.1257 66.6626C70.7586 67.3439 71.788 68.5271 72.3205 70.0688C72.7109 71.2162 72.4269 72.4353 72.1785 73.6544C72.001 74.4432 71.5395 75.1603 71.504 75.985C71.504 76.0567 71.4685 76.1284 71.433 76.1642C70.5101 77.3116 70.2971 78.8175 69.5161 80.0366C69.3031 80.3951 69.0547 80.7895 68.5577 80.8613C68.3802 80.8613 68.3092 81.0405 68.2027 81.1481C67.5282 81.9728 66.7828 82.7616 65.8953 83.3353C65.6824 83.4787 65.5049 83.5862 65.7179 83.8731C66.6763 85.2356 67.1733 86.7774 67.4572 88.4267C67.6702 89.7892 68.3802 90.9365 69.0902 92.0839C69.1611 92.1915 69.2321 92.3349 69.3031 92.4425C69.6226 92.8727 69.6581 93.5898 70.4036 93.6615C71.433 93.7332 72.4269 93.5898 73.0659 92.6935C73.4209 92.1915 73.4919 92.3708 73.7404 92.7293C74.1308 93.303 74.2018 93.9842 74.1308 94.5938C74.0244 95.4543 73.1724 95.7411 72.4624 95.9563C70.9005 96.4941 69.7291 95.6694 68.5577 94.7731C67.2798 93.7691 66.6053 92.3349 65.7534 91.0083C65.1144 90.0043 64.6884 88.9287 64.1205 87.8889C63.7655 87.2793 63.659 86.4905 63.446 85.7734C62.9135 86.0961 63.162 86.6339 63.1265 87.0283C63.1265 87.9247 63.1975 88.7852 62.9845 89.6816C62.8425 90.3629 63.091 91.08 63.0555 91.7612C63.02 92.6935 63.5525 93.4823 63.446 94.4145C63.4105 94.9523 63.233 95.275 62.665 95.4902C61.9196 95.777 61.1741 95.7411 60.4287 95.7411C59.9317 95.7411 59.6477 95.1316 59.5412 94.6655C59.4347 94.1635 59.4347 93.6615 59.2218 93.1237C58.9378 92.4783 59.0798 91.7254 59.1153 91.0083C59.1508 90.2194 59.3992 89.3948 58.8313 88.6777C58.7603 88.606 58.7603 88.3908 58.7958 88.355C59.6477 87.7813 58.8668 86.9208 59.1863 86.2037C59.5057 85.4866 59.3637 84.626 59.3282 83.8372C59.2927 83.407 59.5057 82.9409 59.0443 82.5464C58.7603 82.2955 59.2927 82.4389 59.3637 82.1879C59.4347 81.7576 59.2927 81.4349 59.1508 81.0764C59.5412 81.0047 59.7897 80.7178 59.7187 80.3234C59.5767 79.4629 59.8252 78.6024 59.6122 77.706C59.4347 76.9172 59.7542 76.0925 59.7897 75.3037C59.7897 75.1961 59.8252 74.9452 60.0737 74.9452C60.3222 74.9452 60.3577 74.73 60.3932 74.5507C60.4642 74.0488 60.2512 73.4751 60.8547 73.0807C60.9611 73.009 60.8192 72.507 60.7482 72.1843C60.7127 72.0409 60.6062 71.9333 60.7482 71.8258C60.8902 71.754 60.9257 71.8975 60.9611 72.005C61.0321 72.1484 61.1031 72.1843 61.2451 72.1126C61.3871 72.005 61.3871 71.8975 61.2806 71.754C61.0676 71.3955 61.1741 70.9652 61.4226 70.4274ZM68.4157 70.1406C68.4157 70.033 68.4512 69.8896 68.3802 69.782C68.2382 69.531 68.4512 69.1008 68.1317 68.9573C67.7767 68.8139 67.4573 69.1008 67.2088 69.3517C66.7118 69.8179 66.2503 70.284 65.8953 70.9294C65.1144 72.3277 64.6884 73.8336 64.3689 75.3754C64.156 76.4152 64.156 77.4909 64.014 78.5665C63.9785 78.8534 63.588 79.1402 63.9075 79.3912C64.2269 79.6422 64.5109 79.2478 64.7949 79.0685C64.9724 78.9609 65.1499 78.8534 65.2209 78.6382C65.8953 76.9889 67.2088 75.6981 67.5992 73.9054C67.9187 72.6146 68.3092 71.3955 68.4157 70.1406Z" fill="#232323"/>
<path d="M10.164 48.6275C10.164 49.0577 10.164 49.4521 10.164 49.8824C10.164 50.0258 10.0576 50.2768 10.4125 50.2051C10.661 50.1692 10.5545 50.4561 10.5545 50.5636C10.2705 52.213 10.59 53.8623 10.4835 55.4758C10.4835 55.6551 10.519 55.8343 10.4835 56.0136C10.4125 56.3005 10.4835 56.2646 10.803 56.4439C10.9095 56.5156 11.087 56.8741 10.8385 57.0176C10.519 57.2327 10.59 57.4478 10.732 57.7347C11.1935 58.8103 10.6965 59.8501 10.5545 60.8899C10.519 61.1051 10.377 61.2126 10.164 61.1768C9.63158 61.1051 9.09911 60.9258 8.49565 60.9975C8.10517 61.0692 7.57271 60.5314 7.28872 60.0294C6.57877 58.8103 6.15279 57.5195 6.29478 56.0495C6.36578 55.1172 6.29478 54.1492 6.33028 53.1811C6.36578 49.3087 6.61426 45.4722 6.64976 41.5999C6.64976 40.7035 6.68526 39.8071 6.54327 38.9107C6.54327 38.839 6.54327 38.6956 6.57877 38.6239C6.89825 38.1936 7.32422 37.7275 7.78569 37.6916C8.35366 37.6558 9.06361 38.0502 9.20561 38.6597C9.56058 40.2374 10.519 41.5281 11.0515 42.9982C11.584 44.4683 12.3649 45.8308 12.9329 47.3008C13.3234 48.3406 13.8913 49.3804 14.4593 50.3485C14.6368 50.6712 14.6368 51.3525 15.0273 51.2449C15.4177 51.1732 15.1692 50.5636 15.2402 50.1692C15.4532 48.5558 15.3467 46.9423 15.3822 45.2929C15.4177 43.6077 15.5952 41.8867 16.1277 40.3091C16.5537 38.9824 17.5831 37.9426 18.6835 37.0821C18.9675 36.867 19.2515 36.9387 19.5 37.1538C19.6065 37.2614 19.7485 37.3689 19.7485 37.4765C19.8195 38.0502 20.8844 37.7634 20.6714 38.588C20.5294 39.1258 20.4939 39.6637 20.4584 40.2374C20.3164 42.1735 20.1034 44.1097 19.9969 46.0817C19.926 47.0857 19.7485 48.0896 19.855 49.0577C20.0324 50.6353 20.2099 52.213 20.1389 53.8265C20.1034 55.1531 20.2454 56.4797 20.2809 57.8064C20.3164 58.8462 20.1744 59.8501 19.784 60.7824C19.5355 61.356 19.003 61.6429 18.3995 61.5712C17.4411 61.4636 16.5537 61.1409 15.7017 60.6748C15.2402 60.388 15.0273 60.0653 15.0273 59.4916C14.9918 58.7028 14.5658 58.0215 14.2108 57.3044C13.1459 55.0814 12.1874 52.7867 11.229 50.5278C10.945 49.8465 10.6255 49.2011 10.306 48.5558C10.2705 48.6275 10.1995 48.6275 10.164 48.6275Z" fill="#232323"/>
<path d="M12.5065 27.6522C12.684 27.8673 12.826 28.0466 13.0035 28.2259C12.826 28.2976 12.7195 28.2617 12.5775 28.1542C12.1516 27.7956 11.7966 27.5805 11.6191 28.3693C11.5836 28.4769 11.5126 28.6562 11.3351 28.6203C10.6252 28.3693 9.70221 28.2617 9.41823 27.5088C9.02775 26.5766 8.35329 25.7519 8.2468 24.6762C8.2113 24.2101 8.2468 23.744 8.06931 23.3137C7.78533 22.5966 7.67883 21.8078 7.57234 21.0549C7.50134 20.4812 7.43035 19.7999 7.50134 19.2263C7.60784 18.1865 7.07537 17.2901 6.96888 16.322C6.93338 15.9993 6.6139 16.1069 6.40091 16.1069C5.69095 16.1427 4.981 16.1786 4.27104 16.2144C3.49009 16.2503 2.85113 15.82 2.24766 15.4615C2.07017 15.3539 1.99918 15.1746 2.07017 14.9595C2.14117 14.7085 2.31866 14.8519 2.46065 14.8519C3.77407 14.9595 5.12299 14.8161 6.43641 14.7444C6.89788 14.7085 6.96888 14.4934 6.89788 14.099C6.5784 12.0911 6.72039 10.0473 6.6139 8.03945C6.5074 5.85228 6.75589 3.62927 6.47191 1.4421C6.36541 0.868419 6.6139 0.223027 6.72039 -0.422366C6.75589 -0.816772 7.32385 -0.816772 7.67883 -0.816772C8.2113 -0.816772 8.77927 -0.709207 9.31173 -0.494076C9.70221 -0.350656 10.3767 -0.3148 10.2347 0.474013C10.2347 0.545723 10.4122 0.653288 10.5187 0.724999C11.1931 1.22697 11.0511 1.94407 10.9091 2.55361C10.7316 3.41413 10.8026 4.27466 10.6252 5.13518C10.5897 5.38617 10.8026 5.52959 11.0511 5.56544C11.0156 4.77663 11.0156 4.74078 11.5836 4.13124C11.7966 4.38222 11.5481 4.59735 11.4416 4.74077C11.2641 4.99176 11.1576 5.13518 11.4416 5.42202C11.6901 5.67301 11.4061 5.99571 11.1931 6.21084C10.6252 6.78452 10.6607 7.46577 10.8381 8.18287C11.0156 8.86412 11.2996 9.54536 10.8736 10.2625C10.6961 10.5493 10.7671 10.5493 11.1221 10.8361C11.2286 10.9079 11.1576 11.0154 11.1576 11.0871C10.9801 12.0911 11.0511 13.1309 11.0511 14.1348C11.0511 14.4934 11.1931 14.6727 11.5481 14.6368C12.826 14.5651 14.1039 14.6727 15.3464 14.7444C15.9143 14.7802 16.0918 14.5292 16.0918 14.0273C16.0918 13.2743 16.0918 12.5213 16.1273 11.7684C16.1273 11.4815 16.0563 11.123 16.4823 11.0513C16.5178 11.0513 16.5533 11.0154 16.5888 10.9796C15.9143 10.7286 16.5888 10.1908 16.3758 9.86806C16.0918 9.47365 16.2693 9.18681 16.5178 8.89997C16.7308 8.64899 16.8018 8.36214 16.8018 8.0753C16.7663 7.10721 17.0503 6.21084 17.4052 5.31446C17.4407 5.24275 17.4762 5.17104 17.4762 5.13518C17.7247 4.13124 17.7247 4.09538 18.6832 4.34637C19.5351 4.59735 20.3161 5.02762 20.813 5.88814C21.097 6.39011 20.8485 6.85623 20.8485 7.28649C20.813 8.61313 20.671 9.93977 20.4581 11.2306C20.3516 11.9477 20.3516 12.6648 20.4581 13.3819C20.5291 13.8838 20.7065 14.3858 20.4581 14.8878C20.2806 15.2463 20.5291 15.3539 20.7775 15.4615C21.2035 15.6407 21.168 15.9276 20.8485 16.1427C20.4936 16.3578 20.4936 16.6447 20.4936 17.0032C20.529 18.1865 20.5645 19.3697 20.9195 20.517C21.026 20.8756 20.8485 21.3417 21.1325 21.7003C21.452 21.8795 21.3455 21.1266 21.665 21.4134C21.878 21.6285 21.665 21.8795 21.5585 22.0947C21.381 22.4891 21.452 22.9552 21.2035 23.3496C21.1325 23.493 21.239 23.744 21.4165 23.6723C21.9135 23.4213 21.8425 23.8516 21.949 24.0667C22.1974 24.497 22.3749 24.9989 22.5879 25.465C22.8364 26.0029 22.9074 26.4331 22.3394 27.0785C21.7005 27.7956 20.955 27.6881 20.2806 28.0108C19.6416 28.3335 18.8252 27.7956 18.7897 27.4012C18.7542 26.7558 17.9022 26.2539 18.5057 25.5726C18.6122 25.4292 18.5057 25.2141 18.4702 25.0348C18.3282 24.4611 18.1507 23.8516 18.0087 23.2779C17.8667 22.6683 17.6182 22.023 17.5117 21.3417C17.4762 21.1266 17.2987 21.0907 17.1568 21.3059C17.0148 21.5927 16.8018 21.6285 16.4113 21.4134C17.3342 20.9832 17.3342 20.3736 17.1568 19.5131C16.9793 18.7243 17.0503 17.8996 16.8018 17.0749C16.8018 17.0391 16.8018 17.0391 16.8018 17.0032C17.3697 15.9993 16.4113 16.1786 16.0563 16.1427C14.5654 16.071 13.039 15.8917 11.5481 15.9993C11.0866 16.0351 10.6607 16.1069 11.0511 16.7881C11.2641 17.1825 11.2996 17.6845 11.0866 18.1506C10.7316 18.9394 11.2641 19.5848 11.3351 20.3019C11.3706 20.6605 11.4416 21.019 11.4771 21.3417C11.5836 22.1664 11.5126 23.0269 11.9741 23.744C12.3645 24.3894 12.684 24.9989 12.7195 25.7877C12.7195 26.0746 12.826 26.0746 13.181 25.9312C13.4295 25.8236 13.5005 26.0746 13.465 26.2539C13.6425 26.971 13.323 27.4012 12.5065 27.6522Z" fill="#232323"/>
<path d="M56.1333 91.0083C56.4173 90.2194 56.6658 89.5023 56.9498 88.7852C57.0563 89.574 57.1273 90.3987 56.8078 91.08C56.3818 92.0122 56.4528 92.9803 56.5238 93.9125C56.5238 94.3069 56.3818 94.7372 56.6658 95.0957C56.7013 95.1316 56.5593 95.3826 56.4173 95.4901C56.2753 95.5977 56.1688 95.4901 56.0978 95.3467C55.9558 95.0599 55.7784 95.0957 55.5299 95.2392C54.7134 95.7053 53.755 95.1674 53.5065 94.2352C53.258 93.303 53.187 92.3708 53.0095 91.4744C52.903 90.8648 52.903 90.1836 52.619 89.574C52.548 89.4665 52.4771 89.2872 52.619 89.1796C53.4355 88.606 52.619 87.853 52.8675 87.2076C52.1576 86.8491 52.6545 86.3471 52.69 85.881C52.69 85.5583 52.4061 85.0922 51.8381 85.1997C50.9151 85.3431 50.0277 85.4866 49.1048 85.4149C48.8208 85.379 48.7143 85.4507 48.6788 85.7375C48.6433 85.9527 48.5723 86.132 48.5723 86.3471C48.5368 88.0323 48.5368 89.7175 48.5368 91.4027C48.5368 91.7612 48.5368 92.1556 48.2883 92.4783C48.1818 92.6217 48.1108 92.8369 48.1463 93.0161C48.4658 94.0559 47.6848 94.6296 47.1879 95.3109C46.9394 95.6336 46.5134 95.8128 46.0874 95.8128C44.916 95.8487 44.3835 94.9165 44.987 93.8408C45.129 93.5898 45.2 93.5181 44.9515 93.1954C44.7385 92.9086 44.845 92.3349 44.9515 91.9405C45.1645 91.0441 44.8095 90.1836 44.9515 89.2872C45.0935 88.355 44.6675 87.3869 45.058 86.4188C45.342 85.7375 45.0225 84.9129 44.9515 84.1599C44.8805 83.407 44.8805 82.654 44.845 81.901C44.845 81.2557 44.916 80.6103 44.916 79.9649C44.916 79.5705 44.987 79.2478 45.342 79.0326C45.3775 79.0326 45.3775 78.9968 45.413 78.9968C45.626 78.8175 45.768 78.4948 45.555 78.3155C45.2355 77.9928 45.3775 78.7099 45.058 78.5665C45.271 77.8494 45.3775 77.0965 45.5905 76.3794C45.839 75.5188 45.8745 74.6224 46.0874 73.7619C46.1584 73.5109 46.1229 73.26 45.8745 73.2241C45.626 73.1882 45.7325 73.5109 45.6615 73.6544C45.484 74.0488 45.91 74.5866 45.129 75.0169C45.413 74.4073 45.3775 73.8695 45.484 73.3675C45.7325 72.1484 46.2294 70.9294 47.0814 70.1047C48.3593 68.8498 49.8857 67.7741 51.8026 67.5948C52.8675 67.4873 53.542 68.1327 54.039 68.8139C54.6424 69.6386 55.3169 70.535 55.2459 71.6823C55.2104 71.9333 55.2104 72.1484 55.1394 72.3636C55.1039 72.507 55.0329 72.7938 55.0684 72.8297C55.8493 73.2958 55.1394 73.9412 55.3169 74.5149C55.3524 74.6583 55.0684 74.9093 55.3524 74.981C55.5654 75.0169 55.6009 74.73 55.6719 74.5507C55.7429 74.8017 55.4589 75.0169 55.6364 75.2678C55.8848 75.4113 55.9558 74.8734 56.2043 75.0886C56.3463 75.232 56.1333 75.4471 56.1688 75.6264C56.2398 76.1642 55.9558 76.6662 55.9913 77.204C56.0268 77.4909 55.9203 77.8136 56.2753 77.9928C56.4528 78.1004 56.4173 78.3155 56.3818 78.4948C56.2043 79.929 56.3108 81.4349 55.9558 82.8691C55.9203 83.0126 55.9203 83.1918 55.8139 83.3353C55.5299 83.7297 55.4589 83.9806 56.0623 84.0882C56.2398 84.1241 56.5593 84.2675 56.2043 84.626C56.0268 84.7695 55.8493 85.128 56.1688 85.4149C56.3108 85.5583 56.2043 85.7375 56.1688 85.9527C56.0268 86.5981 55.8848 87.2793 55.8139 87.9247C55.7784 88.355 56.0268 88.7494 56.4528 88.9287C55.9203 89.2872 55.7784 89.9326 56.1333 91.0083ZM49.7792 72.8655C49.7082 72.7221 49.6372 72.507 49.5662 72.4711C49.3532 72.3994 49.4242 72.6863 49.2822 72.7938C48.9628 73.0807 49.1048 73.4392 49.1758 73.7619C48.5368 73.8695 48.9628 74.3356 48.8563 74.6224C48.3593 75.734 48.6433 76.9172 48.3948 78.0287C48.3593 78.2797 48.3238 78.5665 48.4658 78.7816C49.2467 80.0724 48.8918 81.5425 48.9983 82.9408C49.0338 83.2635 49.0338 83.3711 49.3532 83.407C49.9922 83.4428 50.6312 83.5145 51.2701 83.5145C51.6961 83.5145 52.5126 83.8372 52.0866 82.7974C52.0511 82.7616 52.1576 82.654 52.1221 82.5823C52.0866 82.1162 52.0156 81.6142 51.9091 81.1481C51.7671 80.5385 51.6961 79.7856 51.7316 79.1402C51.7671 78.8175 51.9091 78.4948 51.8381 78.1363C51.7316 77.1682 51.6961 76.2001 51.3766 75.232C51.0926 74.2997 51.1991 73.2241 51.1281 72.256C51.0926 71.6465 51.0926 71.0011 50.8796 70.3915C50.8442 70.2481 50.7732 70.033 50.5602 70.1047C50.3472 70.1764 50.1697 70.4632 50.2762 70.6067C50.6667 70.9652 50.2762 71.2162 50.2407 71.503C50.2762 72.0409 49.8502 72.3636 49.7792 72.8655Z" fill="#232323"/>
<path d="M22.2683 83.2277C21.5229 83.9448 21.5939 84.9129 21.4874 85.7017C21.3454 87.0283 21.0614 88.2833 20.5644 89.4665C20.1029 90.6138 19.7835 91.8329 19.677 93.052C19.6415 93.4105 19.322 93.8767 19.7125 94.2711C19.819 94.3786 19.9255 94.5579 20.1029 94.4862C20.3159 94.4145 20.2804 94.2352 20.2804 94.0201C20.3159 93.2313 20.1739 92.3707 20.8129 91.7254C20.9904 91.5461 20.9194 91.2951 20.9194 91.0441C20.9549 90.7573 20.9904 90.4704 21.2744 90.327C21.4519 90.2553 21.7713 90.1836 21.6293 90.5421C21.4874 90.9007 21.5584 91.2951 21.3454 91.6895C21.0614 92.2273 21.4519 92.9086 21.3099 93.5181C21.0969 94.5221 21.1679 95.5619 21.0969 96.6017C21.0614 96.9961 20.8484 97.6056 20.1739 97.247C19.9255 97.1395 19.6415 97.3546 19.5705 97.3546C18.7895 97.2829 18.2571 97.8924 17.5471 97.9641C16.6951 98.0359 16.1627 97.5339 15.5237 97.1753C15.3817 97.1036 15.2042 96.9602 15.2397 96.8168C15.3462 96.0997 14.8138 95.6694 14.4943 95.1674C14.2813 94.8089 14.6008 94.5938 14.5298 94.3428C14.4588 94.0559 15.2042 93.6257 14.3878 93.4823C14.3878 93.4823 14.3523 93.3388 14.3878 93.303C15.0977 92.6576 14.7428 91.7971 14.8848 91.0441C15.3462 88.7135 15.7367 86.3829 16.1982 84.0882C16.2692 83.7297 16.2692 83.5145 15.8787 83.407C13.9973 82.7974 13.2519 81.1839 12.5774 79.5705C11.6545 77.3833 11.3705 75.0527 10.909 72.758C10.8025 72.1484 10.8735 71.4313 10.0216 71.1445C9.70207 71.0369 9.91506 70.7859 10.1635 70.6784C10.838 70.3198 11.7609 70.7142 12.2224 71.3955C13.6068 73.3317 14.0683 75.6622 15.1332 77.7418C15.4882 78.4231 15.5592 79.2119 15.9852 79.8573C16.1982 80.1441 16.3402 80.3593 16.6951 79.929C17.0501 79.4987 17.0501 79.0326 17.1566 78.5665C17.5471 76.9889 18.1506 75.5188 18.754 74.0488C19.109 73.1882 19.535 72.3994 19.393 71.3955C19.2865 70.6784 20.3159 69.9254 21.3454 69.8179C22.1973 69.7461 22.5878 70.1047 22.8718 70.9652C23.3332 72.3636 23.6172 73.7978 23.4397 75.2678C23.3332 76.0566 23.2268 76.8096 22.9428 77.5626C22.6588 78.3514 22.4458 79.1402 22.5168 80.0366C22.5523 80.5027 22.2683 81.0764 22.0553 81.6142C21.8423 82.0803 21.8778 82.6181 21.7713 83.1201C21.7713 83.2994 21.8423 83.5862 22.2683 83.2277Z" fill="#232323"/>
<path d="M55.8142 13.7046C55.8852 13.8121 55.9207 13.9914 56.1337 14.0631C56.1691 13.346 56.2401 12.7006 56.2046 11.9835C56.1337 11.374 56.2401 10.7286 56.2756 10.0832C56.3111 8.32629 56.0982 6.56939 56.7371 4.8842C57.2341 3.59341 57.5536 2.26677 58.441 1.1194C58.938 0.509867 59.3285 -0.171381 59.9319 -0.709208C61.5648 -2.14341 64.0852 -2.25098 65.7181 -0.888484C66.2505 -0.458222 66.712 0.11546 67.351 0.474012C67.8834 0.760853 67.9544 1.4421 67.9544 2.01578C67.9544 2.30262 67.8479 2.55361 68.3804 2.55361C68.7354 2.55361 68.8064 3.16315 68.6999 3.5217C68.4869 4.48979 69.0194 5.38617 68.9484 6.35426C68.9129 6.56939 68.9484 6.74866 68.8419 6.96379C68.7354 7.17892 68.4869 7.39405 68.8419 7.60919C68.8774 7.64504 68.9129 7.75261 68.8774 7.78846C68.3804 8.64898 68.4869 9.83221 67.5639 10.4417C67.28 10.6569 67.2445 10.872 67.2445 11.2664C67.2445 12.0911 66.8185 12.8082 66.499 13.5253C66.0375 14.5292 65.2566 15.318 64.6531 16.2144C63.8012 17.4335 62.5943 18.3657 60.9614 18.3299C60.8549 18.3299 60.7839 18.294 60.7129 18.2582C60.2514 18.0789 60.1449 18.1865 60.2159 18.7243C60.2869 19.3338 60.3934 19.9075 60.4999 20.517C60.7129 21.7003 60.7484 22.9193 61.2098 24.0308C61.3163 24.2818 61.4228 24.4611 61.6003 24.6762C61.9198 25.0706 61.7068 25.8953 61.2098 25.9312C60.6419 26.0029 60.0739 26.2897 59.5059 26.0029C59.2575 25.8953 59.0445 26.0387 58.8315 26.0387C58.228 26.1104 57.9795 25.3933 57.3761 25.3933C57.3761 25.3933 57.3406 25.2141 57.3406 25.1424C57.5536 23.744 57.0566 22.4532 56.7726 21.1266C56.5596 20.0151 56.3466 18.9036 56.3111 17.7562C56.2756 16.8957 56.0627 16.0351 56.1337 15.1388C56.2756 14.7802 55.7077 14.3141 55.8142 13.7046ZM65.3631 3.59341C65.4696 2.8046 65.1146 2.1592 64.8306 1.47796C64.6176 0.904274 64.1917 0.689142 63.6592 0.760853C62.7362 0.904274 61.8843 1.37039 61.2453 2.05164C60.0029 3.34242 59.9319 5.02762 59.8609 6.67695C59.8254 7.86017 59.8964 9.00754 59.8254 10.1908C59.7544 11.4815 59.3994 12.7723 60.0029 14.0273C60.0739 14.1707 60.0029 14.4575 60.2159 14.4934C60.4289 14.5292 60.5354 14.2782 60.6419 14.099C61.2808 13.2026 62.3813 12.5931 62.6298 11.4098C64.5821 9.15096 65.3276 6.49768 65.3631 3.59341Z" fill="#232323"/>
<path d="M45.1292 18.1506C44.7032 18.0072 44.4547 18.2582 44.2773 18.5091C44.0643 18.8318 44.3838 18.9753 44.5612 19.1904C44.6677 19.3338 44.8097 19.5131 44.7032 19.6924C44.4193 20.3378 44.7032 21.1266 44.1353 21.7003C43.9223 21.9512 43.9933 22.4532 44.2063 22.7401C44.5967 23.3496 44.5612 24.0667 44.5967 24.7121C44.6322 25.1065 44.8452 25.2858 45.0227 25.5726C45.2002 25.8953 45.2712 26.0746 44.8452 26.3256C43.7093 26.971 42.5379 27.3295 41.2954 26.7917C40.976 26.6483 40.337 26.5048 40.976 25.8953C41.2244 25.6802 41.0825 25.3216 41.047 25.0348C40.834 23.1345 40.479 21.27 40.4435 19.3697C40.3725 17.0032 40.1595 14.6368 40.3725 12.2703C40.4435 11.4815 40.5855 10.7286 40.5855 9.90391C40.5855 8.97168 40.692 7.93188 40.9405 6.96379C41.047 6.53353 41.3664 6.21083 41.4729 5.78057C41.6149 5.31445 42.0054 4.92004 41.8634 4.34636C41.7924 4.09538 42.1119 3.9161 42.2184 3.70097C43.2478 1.94407 44.6677 0.617427 46.7266 0.187165C48.182 -0.135531 49.4954 0.258876 50.7024 1.08354C51.4478 1.58552 52.0868 2.19505 52.5483 2.91216C53.1517 3.84439 53.7197 4.88419 53.8262 6.06741C53.8262 6.24668 53.8617 6.49767 53.6487 6.64109C53.4357 6.78451 53.4002 7.07135 53.5067 7.21477C54.0037 7.7526 53.5777 8.25457 53.4712 8.7924C53.2582 9.8322 52.7257 10.8361 52.5128 11.8759C52.1223 13.9197 50.8444 15.318 49.3534 16.4654C48.1465 17.3976 46.6556 17.9713 45.1292 18.1506ZM50.4539 5.49373C50.4539 4.6332 50.2409 3.9161 49.8149 3.27071C49.4954 2.80459 48.9985 2.51775 48.4305 2.62531C47.5431 2.80459 46.6911 3.12729 46.3006 4.05952C45.9102 4.9559 45.2712 5.74471 45.1647 6.74866C45.1647 6.78451 45.1647 6.85622 45.0582 6.89208C44.7387 7.0355 44.7032 7.0355 44.7387 7.25063C44.9162 8.64898 44.5967 10.0473 44.5967 11.4457C44.5967 11.7325 44.2063 11.8759 44.3483 12.1269C44.7387 12.7365 43.9578 13.4177 44.4902 14.0273C44.5612 14.099 44.3128 14.5292 44.5967 14.4934C44.8452 14.4934 45.1647 14.6726 45.4132 14.3141C45.7682 13.7404 46.3716 13.4177 46.8686 12.9875C47.898 12.0911 49.1405 11.374 49.6019 9.93976C50.0989 8.4697 50.3829 6.96379 50.4539 5.49373Z" fill="#232323"/>
<path d="M36.6804 26.2539C36.432 26.2539 36.3965 26.1821 36.3255 26.1104C36.1835 25.967 36.1125 25.5368 35.8995 25.6802C35.5445 25.8953 36.0415 26.0029 36.077 26.218C36.1125 26.469 36.0415 26.6483 35.8995 26.6841C35.651 26.7558 35.509 27.2937 35.2605 27.0068C34.9055 26.6124 34.4086 26.469 34.0891 26.0746C33.1307 24.8555 32.8822 23.4213 32.7757 21.9512C32.7047 20.6605 32.7047 19.3697 32.7047 18.043C32.7047 17.6128 32.5627 17.5052 32.1722 17.6486C31.3558 17.9713 30.5393 18.294 29.6874 18.545C28.6224 18.8677 28.6579 18.8318 28.7289 20.0151C28.7644 20.6246 28.6579 21.27 28.5869 21.8795C28.4094 23.2062 28.4804 24.497 28.5869 25.8953C28.8709 25.7877 28.6934 25.5009 28.8709 25.4292C29.0839 25.4292 29.1194 25.716 29.0839 25.7519C28.5869 26.1821 28.8709 26.5407 29.1194 26.971C29.4034 27.4371 29.0839 27.8315 28.4094 27.9749C27.2735 28.2259 25.4986 27.5088 25.1791 26.469C24.9307 25.6802 24.8952 24.8197 25.0372 23.9233C25.2146 22.8118 25.1791 21.6644 25.2856 20.5529C25.3211 19.9792 25.4631 19.4414 25.6051 18.9036C25.7826 18.3299 25.8181 17.8279 25.0726 17.3618C25.9246 17.3618 25.9956 16.824 26.0311 16.3578C26.1021 14.7085 26.5991 13.1309 26.9185 11.5174C27.096 10.6927 27.451 9.86806 27.4865 9.00754C27.4865 8.75655 27.8415 8.61313 27.9125 8.32629C28.3739 6.99965 28.7289 5.67301 29.3679 4.41808C29.8294 3.48584 30.2553 2.4819 30.7523 1.54966C30.8943 1.29868 31.1783 1.15526 31.4623 1.15526C32.2432 1.22697 33.0597 1.19111 33.8051 1.51381C34.5506 1.83651 34.8701 2.55361 35.1185 3.199C35.5445 4.2388 35.7575 5.35031 35.722 6.49768C35.6865 7.25063 35.8285 8.00359 35.6155 8.7924C35.58 8.93582 35.58 9.1151 35.793 9.18681C36.0415 9.25852 36.0415 9.47365 35.9705 9.65293C35.7575 10.2266 36.219 10.8003 35.935 11.374C35.8285 11.5533 36.0415 11.5174 36.1125 11.5533C36.3255 11.6608 36.3965 11.8759 36.29 12.0911C36.006 12.8799 36.006 13.7404 36.077 14.5651C36.148 15.4615 35.9705 16.4296 36.5739 17.2184C36.8224 17.5769 36.432 17.8279 36.6094 18.1865C37.1774 19.3338 36.5029 20.3736 36.2545 21.4493C36.1835 21.8078 35.8285 22.1664 36.432 22.4174C36.6094 22.4891 36.29 22.7042 36.29 22.9552C36.29 24.0308 36.3965 25.1424 36.6804 26.2539ZM32.1367 9.97563C32.1722 8.43385 32.1722 6.92794 32.2787 5.38617C32.3142 5.09932 32.2787 4.77663 32.1722 4.48979C32.0657 4.13124 31.9592 4.05952 31.6752 4.38222C31.2493 4.92005 31.3558 5.6013 30.8943 6.17498C30.4328 6.78452 30.8943 7.86017 30.1133 8.43385C30.0068 8.50556 30.0068 8.64898 30.0778 8.75655C30.2553 8.93583 30.1488 9.1151 30.0778 9.33023C29.7584 10.5852 29.5454 11.8401 29.4389 13.095C29.3679 13.9555 29.1904 14.8161 28.9774 15.6407C28.7644 16.3578 28.9419 16.6805 29.6874 16.573C30.5038 16.4654 31.2848 16.2861 32.1012 16.322C32.5272 16.322 32.6337 16.071 32.5982 15.7483C32.5272 14.9236 32.5982 14.1348 32.4917 13.3102C32.3142 12.2345 32.2432 11.0871 32.1367 9.97563Z" fill="#232323"/>
<path d="M30.1487 69.4234C30.6457 69.3517 31.1071 69.4234 31.4266 69.7103C31.8171 70.0688 32.2785 70.0688 32.7755 70.1406C34.3374 70.3198 35.8993 70.4991 37.4257 70.7142C37.7097 70.7501 37.9937 70.9294 38.2422 71.0728C38.7037 71.3955 38.8456 71.7899 38.5262 72.3277C38.2777 72.758 37.8872 73.009 37.6387 73.4034C37.5677 73.5109 37.4257 73.6185 37.2837 73.5826C37.1063 73.5109 37.1418 73.3675 37.1772 73.2241C37.2837 72.507 36.8223 72.3636 36.3253 72.3277C35.2249 72.2202 34.1244 72.1484 33.0595 72.0767C32.811 72.0767 32.74 72.1484 32.7755 72.3994C32.953 74.0129 32.6335 75.6264 32.9175 77.2399C32.953 77.5267 32.7755 77.8135 32.7045 78.1004C32.598 78.6382 32.74 78.8892 33.3435 78.7816C34.6569 78.6024 36.0058 78.5665 37.3547 78.6024C37.6387 78.6024 37.8872 78.6024 37.9582 78.9251C37.9937 79.2478 37.7807 79.4629 37.4967 79.5346C36.5383 79.7139 35.6508 80.0366 34.6569 80.1083C33.9824 80.18 33.2725 80.2158 32.598 80.2876C32.3495 80.3234 32.2076 80.3951 32.1721 80.6461C32.1011 81.2556 31.8171 81.9369 31.9236 82.4747C32.0301 83.0125 31.7816 83.4428 31.8526 83.9089C31.9236 84.4826 31.6751 84.9846 31.6751 85.5224C31.6751 85.7375 31.2136 86.2395 31.9236 86.2754C31.9236 86.5264 31.9946 86.8132 31.8881 87.0283C31.6396 87.4944 31.7461 87.8888 31.9236 88.355C32.1721 89.1438 31.9591 89.9684 31.9946 90.7573C31.9946 91.2234 31.8171 91.6895 32.2786 92.048C32.4205 92.1556 32.314 92.3707 32.2786 92.5859C32.1366 93.303 32.2785 93.4823 32.953 93.4105C33.9114 93.303 34.8344 93.1237 35.7928 92.9444C37.4967 92.5859 39.2361 92.299 40.9755 92.3349C41.508 92.3349 41.721 92.7651 41.366 93.1954C40.869 93.7691 40.3366 94.2711 39.5911 94.5579C38.4552 95.024 37.3192 95.5977 36.1123 95.8487C35.0829 96.028 34.1599 96.6017 33.1305 96.6734C31.5331 96.7809 30.0067 96.5299 28.7288 95.4543C28.2318 95.024 27.9478 94.3786 27.8413 93.7691C27.6993 92.801 27.4153 91.8688 27.5218 90.8648C27.5928 90.0043 27.2734 89.1796 27.3444 88.3191C27.3798 87.8888 27.4863 87.4944 27.5573 87.1C27.5928 86.8849 27.7703 87.3152 27.8413 87.0283C27.9478 86.7056 28.0188 86.4188 27.7703 86.1319C27.4153 85.7375 27.4508 85.379 27.8768 85.0204C28.1608 84.7694 28.2673 84.5185 28.2318 83.9806C28.1963 83.1918 28.2318 82.2954 28.4448 81.4708C28.6223 80.6461 28.9418 79.8573 28.7288 78.9968C28.6933 78.8892 28.7643 78.7099 28.8353 78.6741C29.4032 78.4589 29.2967 77.9211 29.2967 77.5626C29.2612 75.483 29.8292 73.5109 30.2197 71.503C30.2907 71.2162 30.2907 70.9652 30.1842 70.6784C30.1132 70.4274 29.8292 70.2481 30.3262 70.0688C30.5392 69.9613 30.0777 69.7103 30.1487 69.4234Z" fill="#232323"/>
<path d="M32.0655 58.4518C34.0534 58.3442 36.0412 58.5235 38.0291 58.5952C38.3841 58.5952 38.9521 58.6311 38.9521 58.9896C38.9876 59.4916 38.5971 59.9935 38.1001 60.1728C37.2127 60.5314 36.2897 60.7824 35.2958 60.7107C34.4083 60.6389 33.4854 60.7107 32.6334 61.1051C31.7105 61.5712 30.7166 61.8222 29.6871 61.7146C29.1902 61.6787 28.7997 61.2843 28.3382 61.0692C26.6698 60.388 26.2083 59.3123 26.3503 57.412C26.5633 55.0097 26.8118 52.6432 26.9183 50.241C27.0248 48.1972 27.2733 46.1535 27.4153 44.1097C27.5218 42.3887 27.6282 40.6676 27.6992 38.9466C27.6992 38.6239 27.6282 38.1936 27.2733 37.9785C26.9183 37.7634 27.0958 37.5841 27.3443 37.4765C27.7347 37.2972 28.1607 37.1538 28.5512 37.2972C30.0421 37.8351 31.4975 37.5841 32.9884 37.4048C33.6984 37.3331 34.3728 37.3331 35.0473 37.5124C35.9347 37.7275 36.1477 38.337 35.5443 39.0541C35.3313 39.3051 35.0828 39.4127 34.7633 39.1617C34.3373 38.8032 33.8404 38.839 33.3079 39.0183C32.7044 39.2334 32.03 39.341 31.391 39.2693C30.8586 39.2334 30.6101 39.341 30.7166 40.0222C30.9295 41.2413 30.965 42.4962 31.036 43.7153C31.0715 44.1097 31.178 44.1814 31.5685 44.1097C32.5979 43.9305 33.5564 43.536 34.5858 43.4285C35.6153 43.3209 36.6092 43.4285 37.6031 43.7512C37.7806 43.8229 38.0646 43.8587 38.0291 44.1097C37.9936 44.3607 37.7451 44.5041 37.5321 44.54C36.9287 44.6117 36.2897 44.6834 35.6863 44.7193C35.2958 44.7551 34.9408 44.791 34.5503 44.9702C33.6274 45.4005 32.6334 45.6515 31.6395 45.8308C31.249 45.9025 31.0005 46.0818 31.0715 46.512C31.1425 47.2291 31.2135 48.0179 31.249 48.6992C31.2845 50.1334 31.462 51.5676 31.1425 53.0018C30.7876 54.5794 30.7876 56.157 30.9295 57.7705C30.965 58.3801 31.2135 58.4518 31.675 58.3801C31.746 58.4518 31.888 58.4518 32.0655 58.4518Z" fill="#232323"/>
<path d="M78.8163 6.82037C78.6033 6.82037 78.4613 6.82037 78.1418 6.82037C79.0293 6.42596 79.7747 6.10327 79.8812 5.13518C79.3842 4.99176 79.2778 5.52958 78.8163 5.92399C79.5972 4.66906 79.9877 3.41413 80.6267 2.23091C81.2656 1.1194 81.9756 0.0437472 82.4726 -1.17533C82.5081 -1.28289 82.5436 -1.39046 82.5791 -1.49802C82.5791 -1.6773 82.3306 -1.85658 82.5791 -1.96414C82.863 -2.07171 83.076 -1.85658 83.218 -1.64144C83.8215 -0.637501 84.2475 0.474009 83.8925 1.65723C83.7505 2.08749 83.786 2.55361 83.715 2.94801C83.5375 4.2388 82.6855 5.2786 82.65 6.56938C82.65 6.60524 82.65 6.64109 82.65 6.64109C81.9046 7.3582 82.3661 8.46971 81.8336 9.29437C81.1236 10.4417 81.1236 11.8401 80.6622 13.0592C80.3782 13.7763 80.2717 14.5292 80.0232 15.2463C79.6327 16.3937 79.4197 17.5769 79.2423 18.796C79.1358 19.5131 79.0293 20.2661 78.7098 20.9473C78.5678 21.2341 78.8163 21.521 78.7453 21.8437C78.4258 23.1345 78.3903 24.4611 78.3903 25.8236C78.3903 26.3614 77.9643 26.5766 77.5029 26.3614C77.2899 26.2539 77.0769 26.1821 76.8639 26.1463C75.586 25.8595 74.2371 24.497 74.3436 23.242C74.4855 21.521 74.521 19.7999 74.947 18.1147C75.0535 17.7562 75.0535 17.3976 75.16 17.0391C75.231 16.7164 75.1245 16.5371 74.876 16.3578C72.9946 14.9953 71.5747 13.2026 70.5808 11.0871C70.5098 10.9079 70.3678 10.7286 70.2258 10.5852C70.0838 10.4059 69.6933 10.4417 69.7288 10.1908C69.7998 9.90391 69.9773 9.58122 70.1903 9.36609C71.3262 8.32629 72.1782 8.57727 73.0301 9.86806C73.8821 11.1588 74.6985 12.4855 75.586 13.7763C76.2604 13.346 76.2959 12.593 76.5799 12.0194C76.9704 11.123 77.2544 10.1908 77.3609 9.15095C77.4674 8.14701 78.3193 7.64504 78.8163 6.82037Z" fill="#232323"/>
<path d="M16.695 16.6805C16.5885 17.2901 16.7305 17.8996 16.1981 18.5809C16.3401 17.8279 15.7011 17.1108 16.695 16.6805Z" fill="#232323"/>
<path d="M23.1563 24.7838C23.3338 24.2101 23.4048 23.6723 23.0498 23.1345C23.5468 23.6364 23.3338 24.2101 23.1563 24.7838Z" fill="#232323"/>
</g>
<defs>
<clipPath id="clip0">
<rect width="82" height="100" fill="white"/>
</clipPath>
</defs>
</svg>
