<svg width="109" height="72" viewBox="0 0 109 72" fill="none" xmlns="http://www.w3.org/2000/svg">
<g clip-path="url(#clip0)">
<path d="M31.6275 59.5693C30.1361 60.1378 31.3189 62.1795 32.116 61.8694C32.9132 61.5592 45.0757 57.9153 45.6928 57.6569C46.31 57.3984 46.13 55.5377 45.6928 55.5377C45.2557 55.5377 31.6275 59.5693 31.6275 59.5693Z" fill="#232323"/>
<path d="M39.522 58.7164C39.522 58.7164 39.3934 70.6561 39.522 71.5348C39.6506 72.4135 41.9391 71.8966 41.9391 71.5348C41.9391 71.173 41.9391 57.7861 41.9391 57.7861L39.522 58.7164Z" fill="#232323"/>
<path d="M50.1934 49.3352C50.8619 49.3352 51.2476 52.7466 51.2476 52.7466C51.2476 52.7466 58.0875 50.7049 58.5246 51.687C58.9617 52.669 53.3562 54.7882 53.3562 54.7882C53.3562 54.7882 54.9504 58.5097 53.9733 59.0524C52.9962 59.6209 51.2476 56.313 50.2191 56.3905C49.1648 56.4422 47.0563 60.6547 46.1049 60.3446C45.1535 60.0344 47.802 56.1321 47.802 55.5118C47.802 54.8916 44.3564 54.5298 44.485 53.7028C44.6135 52.9016 48.8048 52.9016 48.8048 52.9016C48.8048 52.9016 49.3963 49.3352 50.1934 49.3352Z" fill="#232323"/>
<path d="M49.6269 59.6209C49.5497 60.5513 49.1383 70.2685 49.2669 71.1471C49.3955 72.0258 52.044 71.7157 51.9925 70.6561C51.9411 69.5965 51.6325 60.7322 51.504 59.6209C51.3754 58.5097 49.704 58.6906 49.6269 59.6209Z" fill="#232323"/>
<path d="M56.184 71.2247C55.3098 70.4235 56.1326 53.3151 60.0668 53.3151C64.0009 53.3151 64.1295 58.7164 64.1295 58.7164C64.1295 58.7164 65.8009 53.3151 68.3208 53.3151C70.8408 53.3151 71.9464 58.2771 72.2036 62.2828C72.4607 66.2886 71.8436 69.8808 71.715 70.5528C71.5864 71.2247 70.3008 71.4314 70.1722 70.1134C70.0436 68.8212 70.6093 55.5377 68.1923 55.5377C65.7752 55.5377 64.7466 69.855 64.7466 70.4752C64.7466 71.0955 63.1524 70.9146 63.0238 70.346C62.8953 69.7775 63.1524 56.468 60.5553 56.468C57.9583 56.468 57.9583 69.9067 57.9583 70.837C57.9583 71.7674 56.724 71.7157 56.184 71.2247Z" fill="#232323"/>
<path d="M75.5978 64.3245C75.5978 64.3245 83.0034 64.2728 83.6205 63.575C84.2376 62.9031 85.2919 53.0309 78.5549 53.2893C71.8436 53.5477 72.0751 70.9404 79.532 70.837C83.6719 70.346 84.469 66.6245 83.5948 66.3144C82.7205 66.0043 81.692 69.4156 79.8406 69.4156C77.9892 69.4156 76.5749 66.4178 76.5749 62.4379C76.5749 58.458 77.6292 55.5377 79.0949 55.5377C80.5863 55.5377 82.3091 56.7265 82.3091 61.6109L75.5207 62.0761L75.5978 64.3245Z" fill="#232323"/>
<path d="M16.251 26.4121C14.4253 23.0524 0 22.8198 0 36.5169C0 36.5169 0.64284 46.57 10.8254 46.57C13.9882 46.57 15.8653 44.8902 16.7138 43.8823C16.9196 43.6238 16.7138 43.262 16.4053 43.3137C13.3968 43.8047 3.41991 44.8126 3.49705 35.9225C3.57419 26.0502 13.2939 26.6705 15.8396 27.0065C16.1739 27.0581 16.4053 26.7222 16.251 26.4121Z" fill="#232323"/>
<path d="M12.5743 31.7358C12.2915 33.4932 12.0601 38.6877 12.0344 40.2383C12.0086 41.1945 14.7343 40.9103 14.7086 40.2383C14.6057 38.4293 14.4257 33.3123 14.1686 32.201C13.86 31.0897 12.5743 31.7358 12.5743 31.7358Z" fill="#232323"/>
<path d="M21.1366 34.7595H13.3711V36.336H21.1366V34.7595Z" fill="#232323"/>
<path d="M20.3904 25.2749C20.1332 26.3345 19.5932 45.4846 19.5675 46.234C19.5418 47.1127 23.0646 47.1644 23.0131 45.7171C22.9617 44.2182 22.6789 26.257 22.6789 25.1457C22.6789 24.4996 20.6218 24.2929 20.3904 25.2749Z" fill="#232323"/>
<path d="M46.1558 45.0711C43.4044 39.9024 38.0303 42.0732 37.336 45.2003C36.6418 48.3273 40.4474 50.0847 39.6245 48.6116C38.8017 47.1385 38.8789 44.0632 40.8588 44.0632C45.6672 44.0632 44.5358 52.4881 39.2131 52.4881C33.8904 52.4881 33.5561 45.2003 32.6819 39.9799C32.0905 36.491 29.7248 35.7674 28.182 35.664C28.182 35.5865 28.182 35.509 28.182 35.4314C31.6533 35.3539 40.8331 34.682 40.8331 29.3324C40.8331 24.2412 32.1933 24.0344 28.2591 24.0861C26.6906 24.0861 25.6106 24.2412 25.5849 24.9907C25.5078 27.0323 25.1221 44.4767 25.1221 45.9497C25.1221 46.8801 27.642 46.9059 27.6934 45.9497C27.7191 45.5621 27.8734 42.1249 28.0534 38.1192C30.5219 39.3596 30.7276 45.7688 31.4733 48.8959C32.2962 52.4881 34.4047 54.7107 39.136 54.7107C43.893 54.7107 47.6472 48.9734 46.1558 45.0711ZM37.4132 29.8492C37.4132 32.4853 31.1648 33.0538 28.3106 33.1572C28.4134 30.8313 28.4906 28.6346 28.5677 27.0581C30.9848 27.0064 37.4132 27.0581 37.4132 29.8492Z" fill="#232323"/>
<path d="M41.5784 34.682C41.4499 35.8191 41.3213 39.9024 41.3213 40.5743C41.3213 41.2721 43.6098 41.453 43.7127 40.5743C43.8155 39.6956 43.2498 35.6899 43.0698 34.7078C42.8898 33.7516 41.6556 33.9067 41.5784 34.682Z" fill="#232323"/>
<path d="M42.6075 30.056C40.5761 30.056 40.5761 33.2089 42.6075 33.2089C44.6389 33.2089 44.6389 30.056 42.6075 30.056Z" fill="#232323"/>
<path d="M55.8755 28.1177C55.0784 24.2929 44.3558 22.949 44.6129 31.6324C44.7929 37.6023 53.2013 39.3855 53.2527 41.9957C53.0727 45.8464 47.7243 44.8385 47.7243 41.8665C46.7472 41.1687 45.4872 46.4666 51.8642 46.4666C53.1756 46.4666 55.5412 45.3295 55.5155 42.0474C55.0527 36.3618 47.4929 36.1809 47.4929 31.0639C47.4929 25.9469 53.6899 26.9289 54.847 28.1177C55.9526 29.2807 55.9269 28.3762 55.8755 28.1177Z" fill="#232323"/>
<path d="M108.974 28.1177C108.177 24.2929 97.4544 22.949 97.7116 31.6324C97.8916 37.6023 106.3 39.3855 106.351 41.9957C106.171 45.8464 100.823 44.8385 100.823 41.8665C99.8458 41.1687 98.5858 46.4666 104.963 46.4666C106.274 46.4666 108.64 45.3295 108.614 42.0474C108.151 36.3618 100.592 36.1809 100.592 31.0639C100.592 25.9469 106.788 26.9289 107.946 28.1177C109.051 29.2807 109.026 28.3762 108.974 28.1177Z" fill="#232323"/>
<path d="M63.3837 33.3381C63.358 33.0797 63.1523 32.8988 62.9466 32.9246L60.7095 33.2089C60.7095 31.1156 60.7095 29.4099 60.7095 28.738C60.7095 26.5671 57.8039 25.6884 57.8039 28.3245C57.8039 29.3582 57.8296 31.3223 57.881 33.5707L54.7183 33.9842C54.4868 34.01 54.3325 34.2426 54.3583 34.5011C54.384 34.7595 54.564 34.9404 54.7954 34.9146C54.7954 34.9146 54.7954 34.9146 54.8211 34.9146L57.9067 34.5269C57.9839 38.7653 58.061 43.6755 58.1124 45.1486C58.1896 47.552 60.7352 47.0869 60.7352 45.5621C60.7352 44.58 60.7352 38.7652 60.7352 34.1651L63.0495 33.855C63.2295 33.8291 63.4095 33.5965 63.3837 33.3381Z" fill="#232323"/>
<path d="M90.2545 13.9555C86.6031 13.5161 84.0575 15.5061 83.2089 16.4106C82.8747 16.7724 83.5689 17.6769 84.1346 17.2118C84.6746 16.7207 89.4059 14.9634 91.4887 17.1342C93.4172 19.1242 94.0087 27.911 93.7258 33.9067C90.9745 33.3123 83.0547 31.9426 82.7461 39.1787C82.7461 44.3733 90.1002 43.8047 93.1601 43.3395C93.083 44.5283 93.0315 45.3036 93.0315 45.4587C93.0315 46.4149 95.9115 46.57 95.9886 45.4587C96.0657 44.3474 96.4772 34.4494 96.4772 26.6188C96.4772 18.7882 93.9572 14.3948 90.2545 13.9555ZM85.6775 39.308C85.446 37.318 87.426 35.3022 93.5972 36.0258C93.4944 37.6798 93.4172 39.2563 93.3144 40.626C91.1802 40.781 85.8574 40.9619 85.6775 39.308Z" fill="#232323"/>
<path d="M63.6159 46.6217C63.6159 45.2261 63.4616 30.5212 66.1872 26.7222C68.8357 23.0524 72.8728 24.6805 73.8499 27.1615C73.9013 27.2649 74.0556 27.3424 74.1327 27.239C76.2155 24.5772 79.4298 24.5772 80.8697 27.4975C82.4897 32.2268 81.3326 45.743 81.1269 46.4925C80.9211 47.2419 78.6326 47.2936 78.6326 46.2599C78.6326 45.2261 80.5612 28.1953 77.3984 28.0919C74.5184 27.9885 74.3384 31.4257 73.6956 37.0596C73.3613 39.9024 73.1813 43.2103 73.1813 46.2857C73.1813 47.2419 70.8414 47.1127 70.8414 46.2857C70.8414 45.8722 71.0214 41.453 71.2014 37.163C71.3814 32.8471 72.2556 28.066 69.7357 27.9368C66.6244 27.7559 66.1615 40.4709 66.1615 46.0273C66.1872 47.2936 63.6159 46.6217 63.6159 46.6217Z" fill="#232323"/>
<path d="M44.2531 10.1048C43.276 11.9655 40.8332 23.2592 46.2331 23.2592C51.6586 23.2592 51.6586 16.5398 51.6586 16.5398L50.6301 15.4544C50.6301 15.4544 49.7815 21.0883 47.2873 21.1141C43.9446 21.14 46.3874 13.878 46.8502 11.9139C47.3388 9.94975 45.4102 7.88227 44.2531 10.1048Z" fill="#232323"/>
<path d="M46.8758 7.05527C46.8501 6.3575 46.3101 5.7631 45.5901 5.7631C44.9216 5.7631 44.2787 6.3575 44.3045 7.05527C44.3302 7.75305 44.8702 8.34745 45.5901 8.34745C46.2587 8.34745 46.9015 7.75305 46.8758 7.05527Z" fill="#232323"/>
<path d="M51.1955 0.982049C50.7841 2.45513 45.9242 22.4838 53.5869 22.4838C57.6496 22.4838 57.4953 18.8141 57.4439 18.5556C57.4182 18.2714 56.8268 17.9612 56.3125 18.7365C55.7982 19.5118 54.1011 20.6748 53.3554 19.7961C50.9641 16.9792 53.2526 2.89447 53.3554 1.83488C53.484 0.775301 51.8383 -1.21465 51.1955 0.982049Z" fill="#232323"/>
<path d="M47.2616 4.23833C46.3101 4.23833 46.6187 5.68557 47.4415 5.7631C48.2644 5.81478 54.1785 5.81478 54.6928 5.7631C55.2071 5.71141 55.3613 4.39339 54.6928 4.23833C53.9985 4.10911 47.2616 4.23833 47.2616 4.23833Z" fill="#232323"/>
<path d="M55.2844 2.04163C56.1072 1.3697 57.3929 2.01579 57.4701 3.38549C57.5729 4.7552 56.6987 7.88226 55.2844 8.52835C55.2844 8.52835 56.4158 5.03948 55.5158 3.90236C54.6416 2.76525 55.2844 2.04163 55.2844 2.04163Z" fill="#232323"/>
<path d="M62.6385 0C60.35 0 57.8301 1.80905 57.8301 6.09907C57.8301 10.3891 60.4529 13.4386 61.3786 15.4027C62.3042 17.3927 62.4585 20.649 60.89 20.649C59.3215 20.649 59.5015 19.3051 58.8843 19.6669C58.2672 20.0029 58.4472 22.4838 62.6385 22.4838C66.5213 22.4838 65.6727 17.2118 64.0785 13.878C62.4842 10.5441 60.5043 8.37329 60.5043 4.60014C60.5043 0.826992 64.4642 1.16296 63.7699 4.96195C63.1014 8.76095 63.1271 9.30366 64.0013 9.45872C65.647 9.743 68.4755 0 62.6385 0Z" fill="#232323"/>
</g>
<defs>
<clipPath id="clip0">
<rect width="109" height="72" fill="white"/>
</clipPath>
</defs>
</svg>
