<svg width="97" height="75" viewBox="0 0 97 75" fill="none" xmlns="http://www.w3.org/2000/svg">
<g clip-path="url(#clip0)">
<path d="M29.0836 59.9928C29.0836 54.692 28.7588 50.2865 28.2175 45.8811C27.7844 42.192 27.4235 42.6934 24.6084 43.0516C22.1543 43.3739 19.7002 43.553 17.246 43.7321C15.9829 43.8395 15.622 43.4456 15.4415 41.8696C15.2972 40.6519 15.6581 40.043 16.813 39.9714C19.1227 39.8639 21.3964 39.5057 23.7062 39.3983C25.2942 39.3267 26.8821 39.0043 28.5062 39.0401C29.3363 39.0401 29.6972 39.3267 29.9137 40.0072C30.6355 42.192 31.2851 44.341 31.4656 46.6691C31.6821 49.6777 32.2235 52.6863 32.5483 55.6948C33.0175 59.563 33.1979 63.3954 31.7904 67.2278C30.7799 69.9499 28.9754 71.8481 26.5573 73.245C22.443 75.5731 18.04 75.4298 13.9979 73.5315C10.3167 71.8123 7.50167 68.8754 6.23852 64.7565C5.37235 61.9628 5.04754 59.0974 5.33626 56.2321C5.5528 53.6533 6.77987 51.4685 9.01746 50.1433C10.6054 49.1762 12.5182 48.7464 14.431 48.9971C17.7152 49.4269 20.2776 51.0029 22.0099 53.8324C23.5257 56.3396 22.7678 61.2106 20.4942 63.1805C20.3498 63.3238 20.1333 63.4312 19.9528 63.5029C17.6791 64.5057 14.034 63.5745 12.4821 61.6046C12.1212 61.139 12.0851 60.7808 12.5182 60.351C12.6987 60.1719 12.9152 59.9928 13.1317 59.8496C14.3227 58.8825 14.3227 58.9183 15.4776 59.957C16.1272 60.5659 16.8851 61.0315 17.7874 60.7092C18.7618 60.3868 19.231 59.6347 19.3754 58.6676C19.7002 56.7693 18.9423 55.1934 17.7152 53.8682C16.6686 52.7579 15.4776 51.8983 13.7814 52.0774C11.7242 52.2565 10.4611 53.4742 9.70318 55.2651C8.80092 57.3782 8.62047 59.5272 9.41446 61.7837C11.1107 66.6547 14.4671 69.735 19.3032 71.3109C23.4536 72.6361 28.037 69.4842 28.6866 64.9355C29.0114 63.0373 29.1558 61.0673 29.0836 59.9928Z" fill="#232323"/>
<path d="M30.3464 20.5229C30.563 20.2006 30.4908 19.8782 30.4547 19.5917C30.166 17.2994 30.1299 15.0072 30.2021 12.7149C30.3103 9.77793 29.9133 6.87678 29.9133 3.93982C29.9133 3.29512 29.9133 2.65042 29.9133 2.00572C29.9133 1.43266 29.7329 0.716325 30.4186 0.465609C31.2487 0.14326 32.1148 -0.214907 33.0532 0.14326C33.5224 0.322343 33.6306 0.752142 33.6667 1.18194C33.7389 1.93409 33.8111 2.68624 33.775 3.40257C33.6306 9.16905 34.1359 14.8997 34.3524 20.6662C34.4968 24.1762 34.7855 27.6862 34.8577 31.1963C34.8938 32.7006 34.8938 32.7006 33.3419 32.7006C33.0893 32.7006 32.8005 32.7006 32.5479 32.7006C31.2126 32.6647 31.0682 32.5573 31.1404 31.1963C31.2487 29.0473 30.9239 26.9341 30.8878 24.8209C30.8878 24.212 30.6351 23.8897 30.0216 23.639C27.6757 22.7794 25.2577 22.3854 22.8396 21.8839C22.2622 21.7765 22.0817 22.0988 22.0457 22.6003C21.9374 24.212 22.0096 25.788 22.1178 27.3997C22.19 28.6891 22.2983 29.9427 22.3344 31.2321C22.3705 32.1991 22.0817 32.4498 21.1073 32.4857C20.8908 32.4857 20.6742 32.4498 20.4577 32.4498C18.581 32.5931 18.5449 32.5931 18.5088 30.7307C18.4366 28.2235 18.4727 25.7163 18.2923 23.2092C18.2201 22.1347 18.184 22.063 17.1735 22.3137C13.5645 23.1017 9.99152 24.1046 6.63513 25.7163C5.15543 26.4327 4.03663 28.4026 4.18099 29.9069C4.21708 30.4441 4.32536 31.0172 5.01107 31.0888C5.69678 31.1605 5.91333 30.6232 6.12987 30.1218C6.31032 29.7278 6.31032 29.298 6.27423 28.8682C6.20205 28.0444 6.70731 27.5788 7.42912 27.3639C8.00656 27.1848 8.76445 27.6146 9.12536 28.2593C9.81107 29.5129 9.30581 32.9513 8.2231 34.2049C6.92385 35.745 4.46972 36.3897 2.66521 35.6733C1.97949 35.4226 1.47423 34.9212 1.18551 34.2765C0.427611 32.5573 0.24716 30.8381 0.644152 28.9756C1.51032 25.6805 3.74791 23.6031 6.77949 22.0988C10.0998 20.4513 13.5284 19.3051 17.2096 19.0186C18.0757 18.947 18.2923 18.4814 18.3284 17.765C18.3645 16.5473 18.5088 15.3295 18.4727 14.0759C18.4727 13.1447 18.978 12.8582 19.7359 12.7507C21.5043 12.5 22.0096 12.8582 22.0817 14.6132C22.1178 15.616 22.1539 16.6547 22.1539 17.6576C22.1539 18.3381 22.2983 18.7679 23.0923 18.8395C25.4381 19.0902 27.7118 19.7349 29.9133 20.5587C30.0216 20.5945 30.202 20.5587 30.3464 20.5229Z" fill="#232323"/>
<path d="M45.0354 39.255C49.6188 38.7536 52.47 42.765 52.9391 46.5616C53.4083 50.1074 50.9181 54.692 47.5978 56.0172C44.061 57.414 40.3076 57.0559 38.07 53.4742C35.9407 50.0716 35.7602 45.0215 38.6835 41.4756C39.9467 39.9713 41.7512 39.5774 43.5196 39.255C44.061 39.1834 44.6023 39.255 45.0354 39.255ZM45.5046 46.2393C44.7828 46.2034 43.7361 47.3854 43.7361 48.245C43.7361 49.0329 44.3497 49.7135 45.1076 49.7493C45.9016 49.7851 46.8038 48.8539 46.8399 47.9584C46.876 47.0988 46.2264 46.2751 45.5046 46.2393Z" fill="#232323"/>
<path d="M96.4999 38.3238C96.3556 39.3625 95.8864 40.0788 95.4533 40.7951C93.5766 43.9112 91.8804 47.0988 89.6067 49.9642C88.5601 51.2894 87.3691 52.543 86.6112 54.1189C86.2142 54.9427 85.9977 55.8381 85.9977 56.7335C86.0338 60.1361 85.8894 63.5387 86.539 66.9412C86.936 69.0544 86.6112 69.3051 84.4097 69.2335C83.1104 69.1977 83.0383 69.1977 83.0022 67.9083C82.8939 65.616 82.93 63.3238 82.8217 61.0315C82.7495 59.6347 82.6052 58.2736 82.4247 56.9126C82.3165 56.053 81.8473 55.3008 81.3781 54.5845C79.7541 52.2206 78.2022 49.7493 76.5059 47.457C74.6653 44.9498 73.5465 42.0129 72.1029 39.2908C71.8503 38.7894 72.0668 38.6103 72.5721 38.5745C73.1134 38.5387 73.6909 38.6461 74.1601 38.4312C75.6037 37.7865 76.3616 38.5745 76.939 39.6848C77.7691 41.2249 78.5992 42.8009 79.3932 44.3768C80.548 46.7407 82.0999 48.8539 83.6157 50.967C83.9766 51.4685 84.3014 51.3252 84.6262 50.8954C85.312 50 86.0338 49.1404 86.7195 48.245C88.5601 45.8811 90.112 43.3381 91.8082 40.8668C92.2774 40.2221 92.4939 39.4341 92.8909 38.7178C93.324 37.9656 93.7932 37.6433 94.6593 37.8223C95.2007 38.0014 95.8503 38.0014 96.4999 38.3238Z" fill="#232323"/>
<path d="M95.6334 2.61459C94.9116 4.58451 93.9011 6.33952 92.8906 8.09454C90.5086 12.106 88.5958 16.3324 86.25 20.308C85.2755 21.9914 84.8064 23.6748 85.1673 25.6447C85.4199 27.0415 85.4199 28.51 85.4921 29.9427C85.5282 30.6232 85.2394 31.053 84.4815 31.0888C84.1206 31.0888 83.7237 31.1246 83.3628 31.1963C82.6409 31.3037 82.4244 30.9455 82.3883 30.3008C82.3161 27.6862 81.9913 25.1074 81.6304 22.4928C81.45 21.275 81.053 20.2364 80.4394 19.2335C79.1041 17.0129 77.6605 14.7922 76.3612 12.5358C74.8455 9.957 73.3297 7.3782 71.6334 4.90686C71.3086 4.44124 71.0199 3.90399 70.7673 3.36674C70.3342 2.50714 70.4424 2.25643 71.3808 2.04153C73.3658 1.57591 73.5462 1.61173 74.6289 3.29511C76.65 6.5186 78.5627 9.7421 80.5838 12.9656C81.5582 14.5057 82.6049 15.9742 83.7237 17.5501C84.4455 16.9412 84.8785 16.1533 85.3477 15.4369C87.874 11.5329 90.1477 7.48565 91.9522 3.18766C92.2049 2.61459 92.4214 2.32806 93.1432 2.50714C93.8289 2.75786 94.6229 2.18479 95.6334 2.61459Z" fill="#232323"/>
<path d="M59.9401 50.9312C60.0484 55.3725 60.0123 59.957 60.6619 64.5057C60.8423 65.7235 60.8063 65.7235 61.9972 65.7593C63.5491 65.7951 65.101 65.8309 66.6529 65.8309C68.1326 65.8667 68.5657 66.2607 68.71 67.6934C68.7461 67.9083 68.7461 68.1232 68.7822 68.3381C68.8183 69.4126 68.6378 69.6991 67.5551 69.7708C65.6424 69.914 63.7296 70.2364 61.7807 70.2006C60.5536 70.1647 59.2905 70.2006 58.0634 70.308C57.486 70.3438 57.2694 70.1647 57.1611 69.6991C57.089 69.2693 56.9807 68.8753 56.9807 68.4455C56.5837 61.5688 56.1867 54.7278 55.7536 47.851C55.6093 45.6662 55.4288 43.4814 55.3927 41.2966C55.3566 39.8281 55.5371 39.6132 56.9446 39.4699C57.1972 39.4341 57.486 39.4341 57.7386 39.4341C59.4348 39.3266 59.4709 39.3266 59.5431 40.9026C59.7596 44.1977 60.0845 47.4928 59.9401 50.9312Z" fill="#232323"/>
<path d="M39.9463 19.2335C39.9824 13.288 44.5658 11.1748 48.4275 11.5688C49.1493 11.6404 49.835 11.7837 50.3764 12.2851C52.8666 14.4341 54.5267 17.5501 53.0109 20.9527C51.8921 23.4599 50.0876 25.3582 47.0922 25.5014C44.4215 25.6447 42.3282 24.4269 40.8125 22.3137C40.0546 21.2751 39.9824 20.1289 39.9463 19.2335ZM47.814 18.4814C47.814 17.8367 47.3448 17.2994 46.7673 17.3352C46.1899 17.3711 45.6125 18.0874 45.5403 18.8037C45.5042 19.4842 45.8651 19.7708 46.4786 19.7708C47.2365 19.8066 47.814 19.2335 47.814 18.4814Z" fill="#232323"/>
<path d="M60.4819 8.23781C60.4458 10.9599 60.6262 13.6461 60.951 16.3682C61.0593 17.371 61.0954 18.3739 61.0593 19.4126C61.0232 21.9556 61.3841 24.4986 61.4563 27.0415C61.4563 27.722 61.745 27.9728 62.4307 28.0086C63.9465 28.0444 65.4262 28.116 66.942 28.1518C67.6999 28.1518 68.2052 28.4026 68.0608 29.2622C68.0247 29.4771 68.0969 29.692 68.0969 29.9069C68.3134 31.5902 68.2052 31.6619 66.4728 31.7335C64.2713 31.841 62.0698 31.6977 59.9044 31.9842C58.533 32.1633 58.3165 31.8768 58.2443 30.5516C57.8473 23.9613 57.739 17.371 57.1616 10.7808C57.0172 8.98996 56.9811 7.16331 56.9811 5.37248C56.945 4.19053 57.2698 3.93981 58.8939 3.83236C60.0127 3.76073 60.4097 4.01145 60.4819 5.12176C60.554 6.08881 60.4819 7.16331 60.4819 8.23781Z" fill="#232323"/>
<path d="M65.6787 49.6777C65.6787 49.3553 65.6787 49.033 66.0757 48.8897C66.6531 48.639 68.7464 48.8897 69.1795 49.2837C69.6125 49.6418 69.5404 50.1433 69.5765 50.6089C69.6486 52.4714 69.6486 54.3338 69.7208 56.1963C69.7569 57.4857 69.793 57.5215 71.0922 57.5931C71.5253 57.6289 71.9584 57.5931 72.3554 57.5573C73.9073 57.4857 74.0877 57.6289 74.1599 59.2049C74.1599 59.4198 74.196 59.6347 74.196 59.8496C74.196 60.4943 73.8712 60.8166 73.2216 60.8883C71.4171 61.0315 69.5765 61.3181 67.7719 61.2464C66.4727 61.2106 66.3644 61.0673 66.2922 59.7421C66.184 57.5931 65.7509 50.8954 65.6787 49.6777Z" fill="#232323"/>
<path d="M69.0354 19.8782C69.0715 21.096 69.2159 21.2034 70.4429 21.3467C70.8038 21.3825 71.2008 21.4183 71.5617 21.4183C72.2474 21.3825 72.464 21.7765 72.6084 22.3854C72.9693 23.9613 72.861 24.1046 71.2369 24.2478C70.0099 24.3195 68.7828 24.4627 67.5557 24.4627C66.2204 24.4986 66.1843 24.4627 66.076 23.1733C65.8956 20.8453 65.7512 18.5172 65.6068 16.1533C65.5347 14.9355 65.4264 13.7178 65.3903 12.5C65.3542 11.2464 65.4625 11.139 66.6896 10.9599C66.9422 10.9241 67.2309 10.8882 67.4835 10.8882C68.4941 10.8882 68.7106 11.0673 68.7467 12.0702C68.8189 13.3596 68.9993 18.5888 69.0354 19.8782Z" fill="#232323"/>
<path d="M45.4317 65.7593C43.555 65.9026 41.6783 65.616 39.8016 65.9026C39.1159 66.01 38.6828 65.616 38.4302 65.0072C38.1054 64.255 37.8888 63.5029 38.2858 62.7149C38.4302 62.3925 38.8272 62.3567 39.1159 62.3567C40.2347 62.2851 41.3535 62.106 42.4723 62.1418C44.8182 62.2493 47.2001 62.2851 49.546 62.0702C50.34 61.9986 50.9535 62.3209 51.2783 63.0014C51.6031 63.7178 51.4949 64.4699 51.0618 65.1146C50.773 65.5444 50.34 65.5086 49.9069 65.5086C48.4272 65.5802 46.9475 65.6877 45.4317 65.7593Z" fill="#232323"/>
<path d="M46.4063 29.1906C47.7416 29.1906 49.077 29.1906 50.4123 29.1906C51.7476 29.2264 52.3973 29.7636 52.3973 30.9814C52.3973 31.9843 51.8559 32.5215 50.8454 32.5573C48.4995 32.5931 46.1176 32.6648 43.7717 32.7006C43.4469 32.7006 43.1221 32.7006 42.7972 32.7006C41.2815 32.5573 40.4875 31.3037 40.9927 29.8711C41.1732 29.3338 41.6424 29.3338 42.0394 29.3338C43.483 29.298 44.9266 29.3338 46.4063 29.3338C46.4063 29.2264 46.4063 29.1906 46.4063 29.1906Z" fill="#232323"/>
</g>
<defs>
<clipPath id="clip0">
<rect width="96" height="75" fill="white" transform="translate(0.5)"/>
</clipPath>
</defs>
</svg>
