<svg width="113" height="68" viewBox="0 0 113 68" fill="none" xmlns="http://www.w3.org/2000/svg">
<path d="M59.5293 43.8899C57.5193 46.2721 55.3232 46.6257 51.266 45.1554C51.2102 46.3838 51.1358 47.5563 51.0799 48.7474C51.0427 49.6779 50.9869 50.6085 50.6333 51.5018C49.7399 53.7165 48.3813 53.9585 46.4644 53.1768C45.6641 52.8604 45.0499 52.2649 44.5847 51.539C43.8402 50.3479 43.3749 49.0638 43.0772 47.7052C42.4444 44.7832 41.793 41.8799 41.1416 38.9766C41.0672 38.6788 40.9555 38.3996 40.788 37.9344C40.3227 39.0696 40.453 40.1119 40.3786 41.0982C40.1925 43.5735 40.1552 46.0674 40.0436 48.5613C40.025 48.8777 40.025 49.194 39.9877 49.4918C39.9319 50.1246 39.6527 50.4596 38.9455 50.3665C38.108 50.2549 37.2519 50.3293 36.4144 50.2921C35.1675 50.2549 34.1811 49.529 33.4366 48.5054C33.1016 48.0402 32.8783 47.5004 32.4503 47.1282C31.9664 47.2399 31.8919 47.6493 31.7989 47.9471C31.0544 50.3479 29.1747 51.3529 26.9414 51.7996C23.9078 52.4138 21.172 51.5577 18.8084 49.6593C16.0167 47.426 14.3417 44.3738 13.0948 41.0796C11.7734 37.5808 11.2895 33.933 10.9731 30.2294C10.8056 28.3869 11.0289 26.6002 11.215 24.8136C11.2337 24.5902 11.3081 24.3669 11.2895 24.1436C10.8987 21.8544 11.9781 19.9561 12.7411 17.9089C13.4111 16.085 14.8442 14.9683 15.905 13.5167C16.4261 12.8094 17.487 12.3814 18.4734 12.2511C19.4039 12.1394 20.3345 12.1394 21.265 12.0464C22.3072 11.9533 23.2936 12.3442 24.0008 12.9211C24.615 13.4236 25.2292 14.2053 25.3408 15.1358C25.4525 15.9175 25.4711 16.7178 24.8942 17.4436C24.2242 17.2016 24.1869 16.4572 23.7403 16.0478C22.7725 15.1544 22.6422 15.1172 21.5814 15.8058C20.2972 16.6433 19.832 18.0205 19.3853 19.3605C18.5664 21.9102 18.5664 24.5344 18.7339 27.1586C18.9759 30.918 19.8692 34.5285 21.1906 38.0646C21.9536 40.1119 22.5678 42.1963 23.4983 44.1691C24.3544 45.9743 25.8619 47.1282 27.4997 48.1518C28.6164 48.8404 30.7194 47.5377 31.2405 46.3279C31.5197 45.6393 31.5755 45.0066 31.2033 44.2807C29.6028 41.1169 28.6164 37.7483 27.7044 34.3424C26.6808 30.5086 27.4997 27.0283 29.7517 23.8272C30.738 22.4314 31.4266 22.8594 32.3944 23.4736C33.6228 24.2738 33.995 25.2975 34.1997 26.6747C34.6836 29.9688 34.4789 33.2444 34.2183 36.5199C34.1439 37.5994 34.1439 38.623 34.5905 39.6652C35.2419 41.1727 35.7816 42.736 36.3586 44.2807C36.5075 44.6902 36.6377 45.1182 37.0286 45.416C37.3822 45.2113 37.2519 44.8763 37.2705 44.5971C37.438 42.736 37.5869 40.8749 37.9591 39.0324C38.2383 37.6738 38.8897 36.5385 39.6155 35.4219C40.2855 34.3983 42.1838 34.361 43.0213 35.3102C43.6541 36.0174 44.138 36.8735 44.3241 37.7669C44.7708 40.0002 45.6827 42.0846 46.0736 44.3366C46.3713 45.993 46.6877 47.6493 47.0413 49.3057C47.2088 50.0688 47.3391 50.869 47.9533 51.5577C48.6419 50.8877 48.6233 50.0315 48.6419 49.3057C48.7535 45.8813 48.7908 42.4568 48.2324 39.0324C47.8044 36.4269 48.251 33.8958 49.6097 31.6997C50.4658 30.3224 51.4708 28.8894 53.3505 28.5358C55.8444 28.0705 56.868 28.8336 57.4821 31.1413C58.2266 33.9888 56.8866 36.4827 54.0763 37.3574C53.7413 37.4691 53.4063 37.5808 53.0527 37.6738C51.7313 38.0274 51.7499 38.0088 52.1035 39.4046C52.4758 40.8563 53.0899 42.1591 54.2252 43.1827C55.621 44.4482 57.7241 44.1132 58.636 42.4755C58.8035 42.1777 58.7849 41.8799 58.6918 41.5821C58.5243 41.0238 58.3568 40.4655 58.2452 39.9071C57.5752 36.8735 58.4685 34.2494 60.4413 31.9788C61.1671 31.1413 62.0791 30.4899 62.9352 29.7641C63.6052 29.2058 64.4613 29.0755 65.2802 28.908C65.9688 28.7591 66.7132 29.6338 66.7318 30.6574C66.769 32.5185 66.3782 34.2866 65.1685 35.7755C64.4427 36.6688 63.7168 37.5808 62.9724 38.4741C62.656 38.8463 62.5629 39.1999 62.6932 39.6838C62.991 40.8005 63.2143 41.9357 63.8099 42.9593C64.0146 43.313 64.2379 43.6666 64.5171 43.9271C66.0432 45.2857 67.2715 44.8391 68.0904 43.2385C69.7282 40.0374 70.1749 36.5758 70.119 33.0024C70.1004 30.6016 69.7654 28.2008 69.9143 25.7813C69.9329 25.3161 69.8399 24.9252 69.6352 24.4972C69.4118 24.0319 69.5049 23.5852 69.9515 23.1758C70.6588 22.5244 70.9193 22.45 71.4218 23.2502C72.6129 25.1113 74.3251 25.6138 76.391 25.4277C77.2285 25.3533 78.0846 25.2602 78.9221 25.4277C80.2993 25.6883 81.1368 26.7305 80.8204 28.1077C80.3737 30.0061 79.8898 31.9044 79.2385 33.7469C78.3265 36.3338 77.824 38.9766 77.5449 41.6752C77.4146 42.8291 77.0982 43.9457 77.061 45.0996C77.0424 45.6021 77.0796 46.086 77.2471 46.5513C77.5076 47.2771 78.0101 47.761 78.8104 47.8354C79.499 47.9099 80.0946 47.5004 80.4296 46.6629C80.8576 45.5463 81.3043 44.411 81.6021 43.2571C82.0301 41.638 82.7559 40.1677 83.5934 38.7532C84.0029 38.046 84.189 37.3946 84.0215 36.613C83.2584 33.0024 83.7051 29.4477 84.5054 25.8744C85.3429 22.1894 87.3157 19.2116 90.2562 16.9597C92.3779 15.3405 95.3184 15.0986 97.5145 16.6619C98.4637 17.3319 98.9476 18.2253 99.0592 19.3605C99.2267 21.11 98.8173 22.7105 97.7006 24.125C97.2354 24.7205 96.342 24.9625 95.8581 24.6461C95.4115 24.3483 95.2812 23.6597 95.5417 22.9711C95.7837 22.3011 96.249 21.7241 96.3606 20.9983C96.4537 20.4214 96.6584 19.7327 96.0815 19.4164C95.5045 19.1 95.1695 19.77 94.7787 20.105C94.1645 20.6447 93.6992 21.3519 93.4387 22.0777C92.5826 24.46 91.559 26.805 91.0565 29.2802C90.4795 32.0905 90.312 34.938 91.0565 37.7482C91.559 39.628 92.5826 41.2471 93.4759 42.9407C94.9834 45.7882 95.9326 48.7846 95.4487 52.0602C95.1323 54.1632 94.4995 56.136 92.6756 57.4946C91.0937 58.6857 88.3765 59.2254 86.2176 57.1038C85.194 56.0988 84.2076 55.0751 84.1704 53.4932C84.1332 52.5999 84.3379 51.8182 84.9334 51.1296C85.4918 50.4968 86.3479 50.6457 86.5898 51.446C86.9062 52.4696 87.1668 53.5118 87.3901 54.554C87.5018 55.0565 87.6879 55.4846 88.0229 55.8568C88.879 56.8246 90.0515 56.806 90.8704 55.7824C91.652 54.8146 92.0056 53.7351 91.8195 52.4324C91.4845 50.0688 90.4423 48.0216 89.1209 46.1046C87.6693 44.0202 86.1804 41.973 85.0265 39.6838C84.9707 39.5721 84.859 39.4977 84.7101 39.3302C84.2821 39.5907 84.2448 40.0374 84.1518 40.4469C83.7423 42.2149 83.3515 44.0016 82.9048 45.7696C82.4023 47.7796 81.2671 49.2871 79.3129 50.1432C77.9543 50.7388 76.4468 50.5154 75.3487 49.4732C73.8785 48.0588 73.3015 46.3093 73.2457 44.2993C73.1154 40.1305 74.4926 36.3152 75.8885 32.5185C76.4096 31.1041 76.9493 29.6711 77.4146 28.238C77.6751 27.4563 77.5076 27.2888 76.6887 27.2888C75.144 27.2888 73.5807 27.3819 72.1663 26.6375C72.0546 26.7677 71.9429 26.8236 71.9615 26.8794C72.4826 30.4899 71.794 34.0633 71.6451 37.6552C71.5335 40.1305 70.6215 42.4196 69.114 44.2807C67.0296 46.8863 62.8049 48.0216 59.976 44.2435C59.883 44.1318 59.7713 43.9271 59.5293 43.8899ZM51.4894 34.9566C51.4708 36.0919 51.601 36.3152 52.271 36.3152C54.4671 36.3338 56.0305 34.6216 55.8071 32.4255C55.7513 31.9044 55.528 31.6252 54.9882 31.5694C52.941 31.3647 51.7871 32.2766 51.5452 34.3238C51.5266 34.5472 51.508 34.7705 51.4894 34.9566ZM62.4513 37.3016C63.6796 36.2594 64.5916 35.1055 65.1871 33.7655C65.5593 32.928 65.7827 31.9974 65.5407 31.0297C65.4291 30.6016 65.2057 30.3224 64.7218 30.3038C63.6796 30.248 62.2466 31.4949 62.2838 32.5372C62.3024 33.2444 62.1721 33.9516 62.2466 34.6588C62.3024 35.4777 61.9674 36.3338 62.4513 37.3016ZM32.7108 33.933C33.325 31.4391 33.3436 26.4141 32.7294 25.0927C31.3708 28.0147 31.5197 30.8808 32.7108 33.933Z" fill="#232323"/>
<path d="M54.6533 56.229C60.7019 54.554 66.8063 53.9771 73.041 54.4423C73.3947 54.461 73.7483 54.5354 74.1019 54.5912C74.3438 54.6285 74.4927 54.796 74.4927 55.0565C74.5113 55.3171 74.3624 55.4846 74.1391 55.559C73.8041 55.6521 73.4505 55.7637 73.0969 55.8196C71.6452 55.9871 70.1749 56.1732 68.7047 56.3034C65.0569 56.6012 61.4277 56.8804 57.78 57.1596C57.0728 57.2154 56.4028 57.4573 55.6769 57.234C55.193 57.0479 54.7836 56.8432 54.6533 56.229Z" fill="#232323"/>
<path d="M107.639 11.1903C107.118 10.0364 107.49 8.78943 107.286 7.33777C106.318 8.43582 105.48 9.36638 104.606 10.3714C104.624 9.64554 104.624 9.66415 105.387 8.69638C105.778 8.19388 106.281 7.74721 106.615 7.00277C105.462 7.02138 104.494 7.30055 103.303 7.20749C103.861 6.55611 104.475 6.68638 104.996 6.57472C105.462 6.46305 106.113 6.57472 106.281 6.05361C106.467 5.51389 105.815 5.27194 105.536 4.89972C105.089 4.26695 104.345 3.89473 103.898 3.18751C104.419 2.94556 104.643 3.28056 104.903 3.50389C105.573 4.09945 106.187 4.73222 106.709 5.45805C106.857 5.66278 107.025 5.92333 107.341 5.79305C107.583 5.7 107.565 5.42083 107.583 5.21611C107.676 3.96917 107.769 2.72223 107.714 1.47529C107.695 1.25196 107.658 0.991401 107.974 0.97279C108.272 0.935568 108.328 1.21473 108.328 1.41946C108.29 2.35001 108.235 3.28056 108.197 4.22972C108.197 4.43445 108.067 4.67639 108.421 4.88111C109.091 4.43445 109.407 3.50389 110.394 3.31778C110.003 3.80167 109.612 4.30417 109.24 4.78806C109.109 4.95556 108.96 5.16028 109.165 5.38361C109.314 5.5325 109.5 5.45805 109.668 5.42083C110.394 5.25333 111.045 4.84389 112.05 4.80667C111.175 5.51389 110.3 5.75583 109.482 6.05361C107.714 6.66777 107.695 6.72361 108.905 8.08221C109.463 8.71499 110.003 9.38499 110.542 10.0364C111.026 10.6133 111.492 11.1903 111.901 11.8416C110.338 10.9855 109.612 9.27332 108.142 8.19388C107.565 9.14304 108.011 10.2225 107.639 11.1903Z" fill="#232323"/>
<path d="M1.07146 51.8368C2.29979 51.2785 3.34201 50.9621 4.42145 50.3107C3.30479 49.1754 1.77868 48.5799 1.01562 47.1654C2.39284 47.9285 3.39784 49.2499 4.99839 49.8826C5.16589 48.1704 4.73784 46.6257 4.73784 45.0438C5.81728 46.2535 5.05422 47.8913 5.72422 49.2685C6.58033 48.3565 6.71061 47.0351 7.79005 46.3651C7.38061 47.2213 6.91533 48.0588 6.54311 48.9149C6.24533 49.6221 6.45005 49.8826 7.17588 49.6593C8.08783 49.3988 9.09282 49.3429 9.91171 48.7474C9.68838 49.3057 9.24171 49.5476 8.73921 49.6965C8.27394 49.8454 7.79005 49.9385 7.32477 50.0874C6.93394 50.2176 6.26394 49.9571 6.1895 50.534C6.13367 50.9807 6.692 51.2226 7.04561 51.4832C7.77144 52.0043 8.27394 52.6929 8.85088 53.3629C7.84588 52.7674 7.15727 51.7251 5.89172 51.3157C5.64978 52.3579 6.00339 53.2885 6.07783 54.4796C5.38922 53.6793 5.687 52.7674 5.12867 52.0229C4.23534 53.0465 3.80728 54.2748 2.95117 55.224C3.28617 53.6607 4.53311 52.5254 4.99839 50.9249C3.63978 50.9993 2.63479 52.116 1.07146 51.8368Z" fill="#232323"/>
<path d="M106.095 46.9607C105.518 46.1418 105.332 45.1554 104.494 44.6343C103.936 44.9693 104.234 45.6952 103.712 46.086C103.452 45.6393 103.936 45.1554 103.545 44.6157C102.149 45.0624 101.051 46.3093 99.3389 46.6443C99.8786 45.9371 100.549 45.844 101.07 45.509C101.628 45.1368 102.205 44.8018 102.763 44.4482C104.085 43.6293 104.066 43.3316 102.707 42.4568C102.131 42.0846 101.423 41.8985 100.939 41.2657C101.535 41.1355 101.907 41.6566 102.428 41.5449C102.707 40.9866 102 40.6143 102.131 39.9816C102.819 40.1491 102.726 40.8935 103.08 41.2657C103.433 41.6193 103.489 42.2335 104.122 42.4941C104.811 40.9866 104.531 39.2371 105.239 37.7855C105.332 37.8041 105.443 37.8227 105.536 37.8413C105.276 39.4605 105.015 41.0796 104.736 42.8291C106.448 42.2893 107.491 40.968 109.017 40.5027C108.086 41.5077 106.783 42.066 105.741 43.0896C106.56 43.8527 107.732 44.0016 108.477 45.1741C107.193 44.5971 106.262 43.7596 104.922 43.6293C104.941 44.8577 106.337 45.6021 106.095 46.9607Z" fill="#232323"/>
<path d="M76.0003 15.7686C75.4047 16.3455 75.6653 17.1458 75.0511 17.4994C74.8092 17.1644 75.0697 16.9597 75.107 16.7178C75.1628 16.4572 75.1814 16.1966 75.2186 15.8058C73.9345 16.3083 73.2831 17.4808 72.1292 18.095C72.0361 17.4808 72.5572 17.4064 72.762 17.1458C73.3947 16.3828 74.195 15.8058 74.9208 15.1544C75.4233 14.6891 75.3675 14.4286 74.7161 14.2425C74.0833 14.0564 73.432 13.9447 72.6689 13.7772C73.3017 12.9211 74.0461 13.6842 74.6603 13.4794C74.865 12.7536 74.0647 12.1953 74.3625 11.3578C74.9953 12.0278 75.0325 12.9211 75.7583 13.5911C76.4469 11.6183 76.4656 9.5525 77.4147 7.74722C77.2658 9.71999 76.4842 11.5625 76.3725 13.6655C77.8056 13.163 78.7919 12.1022 80.1878 11.6928C79.313 12.3442 78.4569 12.9955 77.5078 13.7028C78.1033 14.3355 78.9408 14.1122 79.4619 14.5216C79.4433 15.0055 79.1455 14.9125 78.885 14.8753C78.2708 14.7636 77.6753 14.6333 77.0425 14.5403C76.3353 14.4472 76.1119 14.7078 76.3911 15.3591C76.5958 15.843 76.9122 16.2897 77.1356 16.7736C77.3031 17.1458 77.6194 17.518 77.3031 18.1136C76.8192 17.3505 76.6331 16.4572 76.0003 15.7686Z" fill="#232323"/>
<path d="M4.4779 9.21748C5.1479 8.52887 4.9804 7.65415 5.53873 6.92832C5.8179 7.63554 5.37123 8.04498 5.29679 8.52887C5.25957 8.78943 5.07346 9.06859 5.25957 9.29192C5.52012 9.5897 5.83651 9.38498 6.11567 9.29192C6.4879 9.18026 6.86012 9.01276 7.30678 8.84526C7.36262 9.2547 7.12067 9.4222 6.84151 9.53387C6.33901 9.71998 5.78068 9.86887 5.24095 10.0736C4.77568 10.2597 4.57096 10.6505 4.53373 11.1158C4.4779 11.6369 4.88734 11.7672 5.27818 11.8975C6.22734 12.2139 7.12067 12.6791 7.88372 13.3305C7.10206 13.0514 6.33901 12.735 5.55734 12.493C4.6454 12.2139 4.60818 12.2697 4.51512 13.2002C4.4779 13.6841 4.68262 14.168 4.45929 14.6519C4.44068 14.6705 4.38485 14.6705 4.3104 14.6891C3.78929 14.4472 4.32901 13.8516 3.93818 13.5352C3.36124 13.8144 3.67763 14.6147 3.13791 14.9311C2.82152 14.6147 3.11929 14.3541 3.17513 14.1122C3.28679 13.6841 3.45429 13.2747 3.54735 12.828C3.62179 12.4186 3.95679 11.9905 3.45429 11.6183C2.97041 11.2461 2.63541 11.5997 2.26319 11.823C1.83513 12.1022 1.42569 12.4744 0.737079 12.4558C0.979023 11.823 1.6118 11.7858 1.96541 11.4508C2.33763 11.0972 2.39346 10.8366 1.9468 10.5203C1.33263 10.0736 0.737079 9.60831 0.309025 8.97554C0.122914 8.71498 -0.0818075 8.47304 0.160136 8.04498C0.792912 8.9197 1.4443 9.71998 2.35624 10.2783C3.19374 10.7808 3.99401 10.4272 3.9754 9.45942C3.9754 8.62193 3.84513 7.78443 3.77068 6.94693C3.75207 6.7236 3.71485 6.50027 3.9754 6.2211C4.55235 7.13304 4.03124 8.21248 4.4779 9.21748Z" fill="#232323"/>
<path d="M45.236 11.4694C46.0176 10.5761 45.7571 9.49666 46.3898 8.71499C46.6504 9.42221 46.0921 9.99916 46.3154 10.6505C46.8737 10.8925 47.339 10.0364 47.9904 10.5575C47.3948 10.9669 46.7062 11.1158 46.1851 11.5811C45.4407 12.2325 45.4221 12.493 46.2037 13.1258C46.9854 13.7586 47.8229 14.2983 48.4371 15.1172C47.3762 14.6891 46.6504 13.7028 45.4407 13.2933C45.0312 14.4472 45.6454 15.6383 45.2732 16.755C44.8451 16.5502 45.0126 16.2525 44.9754 16.0105C44.9382 15.7872 44.9568 15.5639 44.9196 15.3405C44.8824 15.1544 44.6404 13.6283 44.6404 13.5166C44.659 13.2933 44.7521 13.0514 44.566 12.8839C44.3054 12.6419 44.0635 12.8466 43.8401 12.9583C43.3935 13.1816 42.984 13.4422 42.5374 13.6469C42.2396 13.7772 41.979 14.1122 41.4951 13.8516C41.9976 13.1072 43.0026 13.0886 43.5051 12.3442C42.7979 11.488 41.5882 11.4136 40.8438 10.6505C41.1043 10.2225 41.3462 10.4644 41.551 10.5761C42.2954 10.9669 43.0399 11.395 43.7843 11.7672C44.5101 12.1394 44.7335 11.9905 44.6776 11.1344C44.5846 9.5711 44.4543 8.02639 44.3612 6.46306C44.3426 6.25833 44.2682 6.01639 44.5846 5.66278C44.9568 6.66778 44.7335 7.63555 44.8637 8.52888C44.9754 9.44083 44.8823 10.39 45.236 11.4694Z" fill="#232323"/>
<path d="M33.1759 64.7156C33.1201 64.362 33.0456 64.027 32.5431 64.2504C32.3198 64.3434 32.0592 64.3806 31.8173 64.4365L31.8359 64.4737C32.0034 63.692 33.0456 63.9526 33.3248 63.1895C32.5803 62.0915 31.1287 61.7937 30.2354 60.5468C31.5009 61.0307 32.4128 61.7937 33.5109 62.4265C33.9762 60.9562 33.269 59.5604 33.5295 58.0343C34.1995 58.7601 33.8645 59.5418 34.0134 60.2118C34.1437 60.8818 34.1623 61.589 34.2367 62.3334C35.2789 61.9984 35.2603 60.7887 36.1351 60.4723L36.0978 60.4537C36.0048 61.1982 35.1673 61.6448 35.2603 62.5381C36.2467 62.4823 37.1028 61.9054 38.1078 62.1101C37.2517 62.4265 36.3956 62.7243 35.5581 63.0593C34.8695 63.3384 34.7951 63.5804 35.3162 64.1015C36.0048 64.7901 36.7678 65.4229 37.2517 66.2976C36.2839 65.5904 35.5023 64.6598 34.3298 64.027C33.9948 65.3112 34.3298 66.5395 34.1065 67.7306C33.6412 67.6934 33.7715 67.3398 33.7528 67.1165C33.7156 66.5023 33.7156 65.8695 33.7156 65.2554C33.7156 64.8645 33.5109 64.697 33.1387 64.7156H33.1759Z" fill="#232323"/>
<path d="M33.1579 64.6784C32.8229 65.702 32.0971 66.4651 31.3154 67.1909C31.7807 66.2418 32.246 65.3112 33.1765 64.7157L33.1579 64.6784Z" fill="#232323"/>
<path d="M31.8362 64.4365C31.0545 65.0134 30.552 65.1995 29.4912 65.274C30.2729 64.9948 30.9057 64.2504 31.8734 64.4551C31.8548 64.4737 31.8362 64.4365 31.8362 64.4365Z" fill="#232323"/>
<path d="M36.1173 60.4537C36.322 59.5976 36.322 59.5976 37.1781 58.8532C36.8617 59.6162 36.564 60.1001 36.0801 60.4351C36.0987 60.4165 36.1173 60.4537 36.1173 60.4537Z" fill="#232323"/>
</svg>
