<svg width="101" height="77" viewBox="0 0 101 77" fill="none" xmlns="http://www.w3.org/2000/svg">
<g clip-path="url(#clip0)">
<path d="M70.2369 6.24055C69.5696 6.07545 68.1014 5.58017 65.9993 5.283C66.0327 4.42451 65.9993 3.66508 65.8992 3.07074C65.5989 1.08961 62.6293 -1.73673e-05 62.1622 1.65093C62.0621 1.98111 61.695 3.23583 61.1945 5.08489C57.9913 5.38206 55.8559 6.73583 56.4898 7.75942C57.0904 8.71696 58.7588 8.38678 60.4605 7.95753C59.2593 12.8443 57.8912 19.6462 57.9913 24.7311C56.8235 27.2406 54.3877 30.8396 50.05 30.8396C48.3483 30.8396 47.3807 29.9481 46.9469 28.5943C53.2866 23.0802 58.1248 15.3538 51.8852 15.3538C45.4454 15.3538 42.0087 23.5424 43.31 29.0896C41.1078 30.8726 38.8055 32.1273 36.9036 32.1273C34.1675 32.1273 33.8672 27.2736 34.668 21.5943C39.2392 17.6321 44.5779 13.0424 44.5779 7.5613C44.5779 -3.50002 32.032 -3.03775 30.5973 12.8113C30.3637 15.2877 29.8966 21.2972 29.8632 23.6745C26.3931 26.4481 22.8228 27.5707 23.8905 28.3632C24.4244 28.7594 27.027 27.1745 29.8632 25.2594C30.0634 30.2122 31.665 34.0755 36.6366 34.0755C38.6386 34.0755 41.308 32.8207 43.9773 30.9387C44.9449 32.8207 46.68 34.0755 49.2492 34.0755C53.7204 34.0755 56.6233 30.9387 58.325 28.033C58.8589 30.4104 60.0267 31.9292 62.1288 31.9292C67.2673 31.9292 68.3684 29.1887 68.7688 28.4292C69.1692 27.6368 67.701 27.967 67.2005 28.5613C66.6667 29.1556 65.9993 30.2122 63.8639 30.0141C61.7284 29.816 64.2643 16.5094 64.698 14.6273C64.9983 13.3726 65.5989 10.0047 65.8659 6.99998C67.1672 6.93395 68.4351 6.90093 69.4361 7.06602C71.1044 7.36319 71.2379 6.5047 70.2369 6.24055ZM40.6073 4.02828C43.31 4.02828 39.8065 14.4292 36.67 17.7641C36.2362 18.2264 35.7024 18.7547 35.0684 19.316C36.3697 11.9198 39.1725 4.02828 40.6073 4.02828ZM51.3847 17.0377C53.2866 17.0377 50.5839 21.7594 46.68 25.9198C46.9136 21.9906 49.3493 17.0377 51.3847 17.0377Z" fill="#232323"/>
<path d="M96.9965 5.44811C96.3292 5.28301 94.8611 4.78773 92.759 4.49056C92.7923 3.63207 92.759 2.87264 92.6589 2.2783C92.3586 0.297166 89.3889 -0.792457 88.9218 0.858486C88.8217 1.18868 88.4547 2.44339 87.9542 4.29245C84.751 4.58962 82.6155 5.94339 83.2495 6.96698C83.8501 7.92452 85.5184 7.59434 87.2201 7.16509C85.9188 12.4151 84.4507 19.8443 84.8177 25.0613C83.1827 26.8774 80.4467 29.5519 79.1454 28.6604C78.4113 27.8019 79.8794 20.8019 80.0129 18.9198C80.1464 17.0377 77.3436 17.6981 77.1767 18.3255C76.7096 20.0755 73.0393 30.6085 78.6115 30.6085C81.5811 30.6085 83.75 28.8915 85.118 27.2406C85.6519 29.6179 86.8197 31.1698 88.9218 31.1698C94.0603 31.1698 95.1614 28.4292 95.5618 27.6698C95.9622 26.8774 94.494 27.2075 93.9935 27.8019C93.4597 28.3962 92.2918 29.4198 90.1564 29.2217C88.0209 29.0236 91.0239 15.75 91.491 13.8679C91.7913 12.6132 92.3919 9.24528 92.6589 6.24056C93.9602 6.17452 95.2281 6.14151 96.2291 6.3066C97.8307 6.57075 97.9642 5.71226 96.9965 5.44811Z" fill="#232323"/>
<path d="M78.7119 15.6179C81.5815 15.6179 81.5815 11.2264 78.7119 11.2264C75.8758 11.2264 75.8424 15.6179 78.7119 15.6179Z" fill="#232323"/>
<path d="M0.5 55.9339C0.5 62.7028 3.36954 65.9387 8.07424 65.9387C16.883 66.599 23.4563 50.4528 28.1944 58.9056C29.8961 66.566 14.1136 72.4434 11.1106 72.0471C8.07424 71.6509 9.54238 74.9198 13.7466 75.1839C17.9508 75.4481 32.799 71.2877 32.799 58.1792C32.799 50.1887 21.9214 49.7924 15.6151 56.033C6.67284 62.4056 3.66984 57.849 6.00551 53.0283C8.37454 48.2075 19.4189 38.2028 23.7566 36.2547C28.0943 34.3066 24.3238 33.283 21.1206 34.0424C18.3512 34.7358 0.5 43.4528 0.5 55.9339Z" fill="#232323"/>
<path d="M19.1856 45.4009C21.2877 46.0613 30.7638 47.4811 38.2379 43.0566C43.1095 40.4481 41.5079 49.033 41.5079 49.033C41.5079 49.033 44.6777 39.3915 52.2853 39.3915C59.8929 39.3915 57.991 52.6651 57.991 54.4811C57.991 56.2971 56.6563 74.6226 56.3894 75.8113C56.1225 76.967 50.7171 76.967 50.8505 75.8113C50.984 74.6556 54.3207 45.1037 50.3167 45.1037C43.977 45.1037 40.4735 58.9056 40.4735 58.9056C40.4735 58.9056 40.2066 72.8396 39.9396 75.1839C39.6727 77.5283 34.5342 77.8915 34.3007 74.2594C34.0337 70.6273 35.2349 46.9528 35.2349 46.9528C35.2349 46.9528 31.1642 48.9009 27.6273 48.9009C24.0905 48.9009 19.0855 47.8443 18.5516 46.9528C17.9844 46.0613 19.1856 45.4009 19.1856 45.4009Z" fill="#232323"/>
<path d="M65.3648 56.8915C59.3922 56.8915 58.2243 64.6179 58.2243 66.0708C58.2243 67.5566 57.3902 76.2076 64.6641 76.2076C72.0048 76.2406 74.6408 56.8915 65.3648 56.8915ZM64.0301 68.9434C63.0291 68.9434 62.2284 67.8868 62.2284 66.566C62.2284 65.2453 63.0291 64.1887 64.0301 64.1887C65.0311 64.1887 65.832 65.2453 65.832 66.566C65.7986 67.8868 64.9978 68.9434 64.0301 68.9434Z" fill="#232323"/>
<path d="M97.4968 43.3538C96.7961 45.6981 88.9216 65.9717 88.9216 65.9717C88.9216 65.9717 86.3857 56.9575 86.0187 54.6132C85.6516 52.2689 83.5495 51.7406 83.049 53.6557C82.1481 56.2311 77.9773 67.8208 77.4434 69.1085C77.31 67.8868 76.3089 63.2972 75.9753 55.9009C75.9419 54.8774 75.9753 53.6887 75.9086 52.7641C76.2088 52.7311 76.5092 52.6651 76.8428 52.5991C90.2562 50.3538 89.1885 36.4858 80.5132 36.4858C74.4404 36.4858 71.7711 42.2641 71.0704 49.4292C67.033 49.6273 63.2959 49.4623 62.0947 49.8585C61.1938 50.1557 62.0947 51.9387 62.0947 51.9387C62.395 52.6651 63.0957 54.184 70.8702 53.4575C70.8034 64.2547 74.2402 76.2406 76.7427 76.2406C79.4454 76.2406 83.5829 61.8773 83.5829 61.8773C83.5829 61.8773 85.2512 75.5472 88.5545 75.5472C92.6253 75.5472 99.699 51.2783 100.4 47.1179C101.1 42.9245 98.1975 41.0424 97.4968 43.3538ZM83.4161 43.3538C83.3827 46.7547 80.0127 48.2736 75.9086 48.967C76.6426 38.533 83.4828 36.6509 83.4161 43.3538Z" fill="#232323"/>
</g>
<defs>
<clipPath id="clip0">
<rect width="100" height="77" fill="white" transform="translate(0.5)"/>
</clipPath>
</defs>
</svg>
