<svg width="101" height="32" viewBox="0 0 101 32" fill="none" xmlns="http://www.w3.org/2000/svg">
<g clip-path="url(#clip0)">
<path d="M9.02575 25.1262C9.58778 24.4255 9.78615 23.7915 9.98451 23.1575C10.5465 21.5224 11.5053 20.2544 13.0922 19.5204C13.7204 19.22 14.3816 19.0532 15.1089 19.22C15.7701 19.3869 16.266 19.7206 16.5966 20.3879C17.1256 21.4891 17.4562 22.6236 17.4562 23.8582C17.4562 25.6267 17.4893 27.3619 17.4562 29.1304C17.4562 29.5975 17.3901 30.098 17.2909 30.5318C17.1256 31.2326 16.828 31.4328 16.1338 31.4661C15.4726 31.4995 15.175 31.2993 15.142 30.5986C15.0758 28.83 14.8775 27.0949 14.9436 25.3264C14.9767 24.4588 14.9436 23.5579 14.7122 22.7237C14.4146 21.6893 13.7534 21.4891 12.9269 22.1564C12.4971 22.4901 12.2657 22.9239 12.0343 23.3911C10.9433 25.5266 10.5465 27.829 10.3812 30.1648C10.249 30.4651 10.249 30.6987 10.249 30.9656C10.2159 31.3994 10.0176 31.633 9.58778 31.6997C9.158 31.7664 8.72821 31.8665 8.29842 31.9333C7.37273 32.0668 7.37273 32.0668 7.24048 31.1324C6.64539 26.3274 6.08336 21.5224 5.48828 16.7174C5.45521 16.4839 5.42215 16.2836 5.42215 16.0501C5.38909 15.4828 5.12461 15.3493 4.56258 15.3827C3.47158 15.4828 2.38058 15.4494 1.32264 15.6163C0.198586 15.7831 0.0663439 15.6163 0.0332834 14.5151C0.000222819 13.3806 0.000222806 13.3806 1.15734 13.147C1.88467 13.0136 2.61201 13.0469 3.33934 13.0136C3.66994 13.0136 4.00055 13.0136 4.33116 12.9802C5.15767 12.8467 5.22379 12.7466 5.19073 11.9124C5.15767 10.3441 5.09155 8.77583 5.38909 7.20753C5.75276 5.20544 6.28173 3.27009 7.76945 1.76853C8.92657 0.634012 10.249 -0.133455 12.0012 0.0333859C12.5302 0.066754 13.0922 0.066754 13.6212 0.100122C16.9272 0.166858 19.2084 3.20335 18.3819 6.47343C17.8199 8.80919 16.5305 10.6111 14.5799 12.0459C12.993 13.2138 11.3069 14.048 9.38942 14.4818C9.158 14.5485 8.89351 14.6486 8.66209 14.7153C8.067 14.8155 7.93476 15.1491 7.96782 15.7164C8.03394 17.3181 8.2323 18.9197 8.46373 20.5214C8.69515 21.9562 8.82739 23.4244 9.02575 25.1262ZM7.9017 9.50992C7.9017 10.2107 7.86863 10.9448 7.9017 11.6789C7.93476 12.4463 8.00088 12.4463 8.76127 12.2461C9.85227 11.9458 10.8441 11.3785 11.869 10.9448C14.1501 9.97708 15.142 8.0751 15.5717 5.73933C15.9354 3.73724 14.3816 2.46926 12.8608 2.36915C10.3482 2.23568 8.43066 3.77061 8.03394 6.30659C7.86863 7.341 7.80251 8.40878 7.9017 9.50992Z" fill="#232323"/>
<path d="M30.2837 24.0918C30.0192 26.6277 29.1927 28.9301 26.6139 30.3316C23.8038 31.8332 20.7953 29.9646 20.1671 27.2617C19.6382 25.1262 19.8365 23.024 20.5969 20.9885C21.3243 19.0532 22.9442 18.1189 24.994 18.4192C25.8205 18.5193 26.6139 18.7529 27.3743 19.1199C29.4241 20.0876 30.1514 21.7894 30.2837 24.0918ZM27.2421 23.8248C27.2421 22.5235 26.3495 21.4557 25.2585 21.2555C25.027 21.2221 24.8287 21.2889 24.6634 21.389C23.5724 21.9896 22.5806 24.3253 23.374 25.8603C23.9691 27.0282 25.3576 27.195 26.2833 26.2607C26.9776 25.56 27.176 24.6257 27.2421 23.8248Z" fill="#232323"/>
<path d="M44.9617 25.1262C45.5238 24.4255 45.7221 23.7915 45.9205 23.1575C46.4825 21.5224 47.4413 20.2544 49.0282 19.5204C49.6563 19.22 50.3175 19.0532 51.0449 19.22C51.7061 19.3869 52.202 19.7206 52.5326 20.3879C53.0616 21.4891 53.3922 22.6236 53.3922 23.8582C53.3922 25.6267 53.4252 27.3619 53.3922 29.1304C53.3922 29.5975 53.326 30.098 53.2269 30.5318C53.0616 31.2325 52.764 31.4328 52.0697 31.4661C51.4085 31.4995 51.111 31.2993 51.0779 30.5986C51.0118 28.83 50.8134 27.0949 50.8796 25.3264C50.9126 24.4588 50.8796 23.5579 50.6481 22.7237C50.3506 21.6893 49.6894 21.4891 48.8629 22.1564C48.4331 22.4901 48.2017 22.9239 47.9702 23.391C46.8792 25.5266 46.4825 27.829 46.3172 30.1648C46.2842 30.4317 46.2842 30.6653 46.2842 30.9322C46.2511 31.366 46.0527 31.5996 45.6229 31.6663C45.1932 31.7331 44.7634 31.8332 44.3336 31.8999C43.4079 32.0334 43.4079 32.0334 43.2756 31.0991C42.6805 26.2941 42.1185 21.4891 41.5234 16.6841C41.4904 16.4505 41.4573 16.2503 41.4573 16.0167C41.4243 15.4494 41.1598 15.316 40.5977 15.3493C39.5067 15.4494 38.4157 15.4161 37.3578 15.5829C36.2337 15.7498 36.1015 15.5829 36.0684 14.4818C36.0354 13.3473 36.0354 13.3473 37.1925 13.1137C37.9198 12.9802 38.6472 13.0136 39.3745 12.9802C39.7051 12.9802 40.0357 12.9802 40.3663 12.9468C41.1928 12.8134 41.2589 12.7133 41.2259 11.8791C41.1928 10.3108 41.1267 8.74246 41.4243 7.17416C41.7879 5.17207 42.3169 3.23672 43.8046 1.73516C44.9948 0.567277 46.3503 -0.200189 48.0694 -0.0667163C48.5984 -0.0333483 49.1604 -0.0333483 49.6894 1.98334e-05C52.9954 0.066756 55.2766 3.10325 54.4501 6.37332C53.8881 8.70909 52.5987 10.511 50.6481 11.9458C49.0612 13.1137 47.3751 13.9479 45.4576 14.3817C45.2262 14.4484 44.9617 14.5485 44.7303 14.6152C44.1352 14.7153 44.003 15.049 44.036 15.6163C44.1022 17.218 44.3005 18.8196 44.5319 20.4213C44.6311 21.9562 44.7634 23.4244 44.9617 25.1262ZM43.8377 9.50992C43.8377 10.2107 43.8046 10.9448 43.8377 11.6789C43.8707 12.4463 43.9369 12.4463 44.6972 12.2461C45.7882 11.9458 46.7801 11.3785 47.8049 10.9448C50.0861 9.97708 51.0779 8.0751 51.5077 5.73933C51.8714 3.73725 50.3175 2.46926 48.7968 2.36915C46.2842 2.23568 44.3666 3.77061 43.9699 6.30659C43.8046 7.341 43.7385 8.40878 43.8377 9.50992Z" fill="#232323"/>
<path d="M66.2196 24.0918C65.9551 26.6278 65.1286 28.9302 62.5499 30.3316C59.7397 31.8332 56.7312 29.9646 56.1031 27.2618C55.6072 25.1262 55.8055 23.0574 56.5659 21.0219C57.2933 19.0866 58.9132 18.1523 60.963 18.4526C61.7895 18.5527 62.5829 18.7863 63.3433 19.1533C65.36 20.0876 66.0874 21.7894 66.2196 24.0918ZM63.178 23.8248C63.178 22.5235 62.2854 21.4557 61.1944 21.2555C60.963 21.2221 60.7646 21.2889 60.5993 21.389C59.5083 21.9896 58.5165 24.3254 59.3099 25.8603C59.905 27.0282 61.2936 27.195 62.2193 26.2607C62.9466 25.56 63.1119 24.6257 63.178 23.8248Z" fill="#232323"/>
<path d="M79.742 25.1262C80.304 24.4255 80.5024 23.7915 80.7008 23.1575C81.2628 21.5224 82.2215 20.2544 83.8084 19.5204C84.4366 19.22 85.0978 19.0532 85.8251 19.22C86.4863 19.3869 86.9823 19.7206 87.3129 20.3879C87.8418 21.4891 88.1724 22.6236 88.1724 23.8582C88.1724 25.6267 88.2055 27.3619 88.1724 29.1304C88.1724 29.5975 88.1063 30.098 88.0071 30.5318C87.8418 31.2325 87.5443 31.4328 86.85 31.4661C86.1888 31.4995 85.8913 31.2993 85.8582 30.5986C85.7921 28.83 85.5937 27.0949 85.6598 25.3264C85.6929 24.4588 85.6598 23.5579 85.4284 22.7237C85.1309 21.6893 84.4697 21.4891 83.6431 22.1564C83.2134 22.4901 82.9819 22.9239 82.7505 23.391C81.6595 25.5266 81.2628 27.829 81.0975 30.1648C81.0644 30.4317 81.0644 30.6653 81.0644 30.9322C81.0314 31.366 80.833 31.5996 80.4032 31.6663C79.9734 31.7331 79.5436 31.8332 79.1138 31.8999C78.1882 32.0334 78.1882 32.0334 78.0559 31.0991C77.4608 26.2941 76.8988 21.4891 76.3037 16.6841C76.2706 16.4505 76.2376 16.2503 76.2376 16.0167C76.2045 15.4494 75.94 15.316 75.378 15.3493C74.287 15.4494 73.196 15.4161 72.1381 15.5829C71.014 15.7498 70.8818 15.5829 70.8487 14.4818C70.8157 13.3473 70.8157 13.3473 71.9728 13.1137C72.7001 12.9802 73.4274 13.0136 74.1548 12.9802C74.4854 12.9802 74.816 12.9802 75.1466 12.9468C75.9731 12.8134 76.0392 12.7133 76.0062 11.8791C75.9731 10.3108 75.907 8.74246 76.2045 7.17416C76.5682 5.17207 77.0972 3.23672 78.5849 1.73516C79.7751 0.567277 81.1305 -0.200189 82.8497 -0.0667163C83.3787 -0.0333483 83.9407 -0.0333483 84.4697 1.98334e-05C87.7757 0.066756 90.0569 3.10325 89.2304 6.37332C88.6683 8.70909 87.379 10.511 85.4284 11.9458C83.8415 13.1137 82.1554 13.9479 80.2379 14.3817C80.0065 14.4484 79.742 14.5485 79.5106 14.6152C78.9155 14.7153 78.7832 15.049 78.8163 15.6163C78.8824 17.218 79.0808 18.8196 79.3122 20.4213C79.4114 21.9562 79.5436 23.4244 79.742 25.1262ZM78.6179 9.50992C78.6179 10.2107 78.5849 10.9448 78.6179 11.6789C78.651 12.4463 78.7171 12.4463 79.4775 12.2461C80.5685 11.9458 81.5603 11.3785 82.5852 10.9448C84.8664 9.97708 85.8582 8.0751 86.288 5.73933C86.6517 3.73725 85.0978 2.46926 83.577 2.36915C81.0644 2.23568 79.1469 3.77061 78.7502 6.30659C78.5849 7.341 78.5188 8.40878 78.6179 9.50992Z" fill="#232323"/>
<path d="M101 24.0918C100.735 26.6278 99.9089 28.9302 97.3302 30.3316C94.52 31.8332 91.5115 29.9646 90.8833 27.2618C90.3874 25.1262 90.5858 23.0574 91.3462 21.0219C92.0735 19.0866 93.6935 18.1523 95.7433 18.4526C96.5698 18.5527 97.3632 18.7863 98.1236 19.1533C100.107 20.0876 100.868 21.7894 101 24.0918ZM97.9583 23.8248C97.9583 22.5235 97.0657 21.4557 95.9747 21.2555C95.7433 21.2221 95.5449 21.2889 95.3796 21.389C94.2886 21.9896 93.2968 24.3254 94.0902 25.8603C94.6853 27.0282 96.0739 27.195 96.9996 26.2607C97.6938 25.56 97.8922 24.6257 97.9583 23.8248Z" fill="#232323"/>
</g>
<defs>
<clipPath id="clip0">
<rect width="101" height="32" fill="white"/>
</clipPath>
</defs>
</svg>
