<svg width="24" height="24" viewBox="0 0 24 24" fill="none" xmlns="http://www.w3.org/2000/svg">
<path fill-rule="evenodd" clip-rule="evenodd" d="M2.71125 3.93C2.71125 2.74328 3.67328 1.78125 4.86 1.78125H20.82C22.0067 1.78125 22.9688 2.74328 22.9688 3.93V16.53C22.9688 17.7167 22.0067 18.6788 20.82 18.6788H9.3192L13.9305 13.1452L9.53249 6.86239C9.07117 6.20336 8.10741 6.16884 7.60013 6.79319L2.71125 12.8103V3.93ZM14.5399 12.381L15.9216 10.6044C16.7151 9.5842 18.2232 9.49031 19.1371 10.4042L22.0312 13.2983V3.93C22.0312 3.26105 21.489 2.71875 20.82 2.71875H4.86C4.19105 2.71875 3.64875 3.26105 3.64875 3.93V10.1697L6.87252 6.20201C7.77244 5.09442 9.48213 5.15565 10.3005 6.32477L14.5399 12.381ZM22.0312 14.6242L18.4742 11.0671C17.959 10.552 17.1089 10.6049 16.6616 11.18L14.89 13.4578C14.8868 13.4619 14.8835 13.466 14.8801 13.4701L11.3208 17.7413H20.82C21.489 17.7413 22.0312 17.199 22.0312 16.53V14.6242ZM14.94 5.23875C14.271 5.23875 13.7288 5.78105 13.7288 6.45C13.7288 7.11896 14.271 7.66125 14.94 7.66125C15.609 7.66125 16.1512 7.11896 16.1512 6.45C16.1512 5.78105 15.609 5.23875 14.94 5.23875ZM12.7913 6.45C12.7913 5.26328 13.7533 4.30125 14.94 4.30125C16.1267 4.30125 17.0887 5.26328 17.0887 6.45C17.0887 7.63672 16.1267 8.59875 14.94 8.59875C13.7533 8.59875 12.7913 7.63672 12.7913 6.45ZM5.28 12.7013C5.53888 12.7013 5.74875 12.9111 5.74875 13.17V16.4813H8.64C8.89888 16.4813 9.10875 16.6911 9.10875 16.95C9.10875 17.2089 8.89888 17.4188 8.64 17.4188H5.74875V21.15C5.74875 21.4089 5.53888 21.6188 5.28 21.6188C5.02112 21.6188 4.81125 21.4089 4.81125 21.15V17.4188H1.5C1.24112 17.4188 1.03125 17.2089 1.03125 16.95C1.03125 16.6911 1.24112 16.4813 1.5 16.4813H4.81125V13.17C4.81125 12.9111 5.02112 12.7013 5.28 12.7013Z" fill="white" stroke="white" stroke-width="0.4"/>
</svg>
