<svg width="24" height="24" viewBox="0 0 24 24" fill="none" xmlns="http://www.w3.org/2000/svg">
<g clip-path="url(#clip0)">
<rect x="8.31908" y="7.62743" width="15.0981" height="15.0981" rx="3.3" stroke="white" stroke-width="1.4"/>
<path d="M18.4773 7.47187L18.9728 6.9775C18.8415 6.84586 18.6632 6.77187 18.4773 6.77187V7.47187ZM15.3613 7.47187V6.77187C15.0821 6.77187 14.8296 6.93779 14.7188 7.19405C14.608 7.45032 14.6601 7.74792 14.8513 7.95134L15.3613 7.47187ZM23.7235 16.3667H24.4235C24.4235 16.1885 24.3555 16.017 24.2335 15.8872L23.7235 16.3667ZM23.7235 20.0025L23.2067 20.4747C23.4016 20.6879 23.7074 20.7596 23.9767 20.6551C24.246 20.5505 24.4235 20.2913 24.4235 20.0025H23.7235ZM12.6588 7.89389L13.1755 7.42169C13.0429 7.27656 12.8554 7.19389 12.6588 7.19389V7.89389ZM9.1295 7.89389V7.19389C8.85084 7.19389 8.59872 7.35917 8.48758 7.61471C8.37644 7.87025 8.42745 8.16736 8.61746 8.3712L9.1295 7.89389ZM22.9286 22.6969V23.3969C23.2072 23.3969 23.4594 23.2316 23.5705 22.9761C23.6816 22.7205 23.6306 22.4234 23.4406 22.2196L22.9286 22.6969ZM19.4629 22.6969L18.951 23.1743C19.0834 23.3163 19.2688 23.3969 19.4629 23.3969V22.6969ZM8.04846 10.4584L8.56037 9.981C8.35996 9.76612 8.04669 9.69928 7.77603 9.81363C7.50537 9.92799 7.33493 10.1992 7.3493 10.4927L8.04846 10.4584ZM8.23923 14.354L7.54007 14.3882C7.54824 14.555 7.61578 14.7134 7.7305 14.8348L8.23923 14.354ZM16.1244 22.6969V23.3969C16.404 23.3969 16.6567 23.2306 16.7673 22.9738C16.8779 22.7171 16.8252 22.4192 16.6332 22.2161L16.1244 22.6969ZM12.8495 22.6969L12.3389 23.1757C12.4712 23.3168 12.6561 23.3969 12.8495 23.3969V22.6969ZM24.219 12.2365L18.9728 6.9775L17.9817 7.96625L23.2279 13.2252L24.219 12.2365ZM18.4773 6.77187H15.3613V8.17187H18.4773V6.77187ZM14.8513 7.95134L23.2135 16.8461L24.2335 15.8872L15.8714 6.99241L14.8513 7.95134ZM23.0235 16.3667V20.0025H24.4235V16.3667H23.0235ZM24.2402 19.5303L13.1755 7.42169L12.142 8.36609L23.2067 20.4747L24.2402 19.5303ZM12.6588 7.19389H9.1295V8.59389H12.6588V7.19389ZM8.61746 8.3712L22.4166 23.1742L23.4406 22.2196L9.64153 7.41658L8.61746 8.3712ZM22.9286 21.9969H19.4629V23.3969H22.9286V21.9969ZM19.9748 22.2194L8.56037 9.981L7.53655 10.9359L18.951 23.1743L19.9748 22.2194ZM7.3493 10.4927L7.54007 14.3882L8.93839 14.3197L8.74762 10.4242L7.3493 10.4927ZM7.7305 14.8348L15.6157 23.1777L16.6332 22.2161L8.74797 13.8731L7.7305 14.8348ZM16.1244 21.9969H12.8495V23.3969H16.1244V21.9969ZM13.3601 22.218L9.06779 17.6408L8.04657 18.5985L12.3389 23.1757L13.3601 22.218Z" fill="white"/>
<rect x="0.817187" y="0.840625" width="15.0981" height="15.0981" rx="3.3" stroke="white" stroke-width="1.4" stroke-dasharray="4 2"/>
<path fill-rule="evenodd" clip-rule="evenodd" d="M8.49841 16.6388H12.6153C14.8245 16.6388 16.6153 14.8479 16.6153 12.6388V7.99688H14.6153V12.6388C14.6153 13.7433 13.7199 14.6388 12.6153 14.6388H8.49841V16.6388Z" fill="white"/>
</g>
<defs>
<clipPath id="clip0">
<rect width="24" height="24" fill="white"/>
</clipPath>
</defs>
</svg>
