<svg width="24" height="24" viewBox="0 0 24 24" fill="none" xmlns="http://www.w3.org/2000/svg">
<rect x="8.31914" y="7.62743" width="15.0981" height="15.0981" rx="3.3" stroke="#333333" stroke-width="1.4"/>
<path d="M18.4776 7.47187L18.9732 6.9775C18.8419 6.84586 18.6636 6.77187 18.4776 6.77187V7.47187ZM15.3617 7.47187V6.77187C15.0825 6.77187 14.83 6.93779 14.7192 7.19405C14.6084 7.45032 14.6605 7.74792 14.8517 7.95134L15.3617 7.47187ZM23.7238 16.3667H24.4238C24.4238 16.1885 24.3559 16.017 24.2338 15.8872L23.7238 16.3667ZM23.7238 20.0025L23.2071 20.4747C23.4019 20.6879 23.7078 20.7596 23.9771 20.6551C24.2464 20.5505 24.4238 20.2913 24.4238 20.0025H23.7238ZM12.6591 7.89389L13.1759 7.42169C13.0433 7.27656 12.8557 7.19389 12.6591 7.19389V7.89389ZM9.12986 7.89389V7.19389C8.8512 7.19389 8.59908 7.35917 8.48795 7.61471C8.37681 7.87025 8.42782 8.16736 8.61783 8.3712L9.12986 7.89389ZM22.929 22.6969V23.3969C23.2076 23.3969 23.4597 23.2316 23.5709 22.9761C23.682 22.7205 23.631 22.4234 23.441 22.2196L22.929 22.6969ZM19.4633 22.6969L18.9514 23.1743C19.0838 23.3163 19.2692 23.3969 19.4633 23.3969V22.6969ZM8.04883 10.4584L8.56074 9.981C8.36033 9.76612 8.04706 9.69928 7.77639 9.81363C7.50573 9.92799 7.33529 10.1992 7.34967 10.4927L8.04883 10.4584ZM8.2396 14.354L7.54044 14.3882C7.54861 14.555 7.61615 14.7134 7.73087 14.8348L8.2396 14.354ZM16.1248 22.6969V23.3969C16.4043 23.3969 16.6571 23.2306 16.7677 22.9738C16.8783 22.7171 16.8255 22.4192 16.6335 22.2161L16.1248 22.6969ZM12.8499 22.6969L12.3393 23.1757C12.4716 23.3168 12.6564 23.3969 12.8499 23.3969V22.6969ZM24.2194 12.2365L18.9732 6.9775L17.9821 7.96625L23.2283 13.2252L24.2194 12.2365ZM18.4776 6.77187H15.3617V8.17187H18.4776V6.77187ZM14.8517 7.95134L23.2138 16.8461L24.2338 15.8872L15.8717 6.99241L14.8517 7.95134ZM23.0238 16.3667V20.0025H24.4238V16.3667H23.0238ZM24.2406 19.5303L13.1759 7.42169L12.1424 8.36609L23.2071 20.4747L24.2406 19.5303ZM12.6591 7.19389H9.12986V8.59389H12.6591V7.19389ZM8.61783 8.3712L22.4169 23.1742L23.441 22.2196L9.6419 7.41658L8.61783 8.3712ZM22.929 21.9969H19.4633V23.3969H22.929V21.9969ZM19.9752 22.2194L8.56074 9.981L7.53692 10.9359L18.9514 23.1743L19.9752 22.2194ZM7.34967 10.4927L7.54044 14.3882L8.93876 14.3197L8.74799 10.4242L7.34967 10.4927ZM7.73087 14.8348L15.6161 23.1777L16.6335 22.2161L8.74833 13.8731L7.73087 14.8348ZM16.1248 21.9969H12.8499V23.3969H16.1248V21.9969ZM13.3605 22.218L9.06816 17.6408L8.04694 18.5985L12.3393 23.1757L13.3605 22.218Z" fill="#333333"/>
<rect x="0.817187" y="0.840625" width="15.0981" height="15.0981" rx="3.3" stroke="#333333" stroke-width="1.4" stroke-dasharray="4 2"/>
<path fill-rule="evenodd" clip-rule="evenodd" d="M8.49805 16.6388H12.615C14.8241 16.6388 16.615 14.8479 16.615 12.6388V7.99688H14.615V12.6388C14.615 13.7433 13.7195 14.6388 12.615 14.6388H8.49805V16.6388Z" fill="#333333"/>
</svg>
