<svg width="12" height="16" viewBox="0 0 12 16" fill="none" xmlns="http://www.w3.org/2000/svg">
<path d="M0.7 15.0834L2.48 0.623434H7.12C7.92 0.623434 8.60333 0.703434 9.17 0.863435C9.74333 1.01677 10.21 1.23677 10.57 1.52343C10.9367 1.8101 11.2067 2.15677 11.38 2.56343C11.5533 2.9701 11.64 3.42343 11.64 3.92343C11.64 4.33677 11.5833 4.73343 11.47 5.11343C11.3633 5.48677 11.1933 5.83343 10.96 6.15343C10.7267 6.47343 10.43 6.7601 10.07 7.01343C9.71 7.26677 9.28 7.47677 8.78 7.64343C9.6 7.8501 10.21 8.18677 10.61 8.65343C11.01 9.11344 11.21 9.7001 11.21 10.4134C11.21 11.0801 11.0867 11.7001 10.84 12.2734C10.5933 12.8401 10.2367 13.3334 9.77 13.7534C9.30333 14.1668 8.73333 14.4934 8.06 14.7334C7.39333 14.9668 6.63667 15.0834 5.79 15.0834H0.7ZM4.07 8.71343L3.54 13.0634H5.99C6.45667 13.0634 6.85667 13.0001 7.19 12.8734C7.52333 12.7468 7.79667 12.5701 8.01 12.3434C8.23 12.1101 8.39 11.8334 8.49 11.5134C8.59667 11.1868 8.65 10.8301 8.65 10.4434C8.65 9.91677 8.48333 9.49677 8.15 9.18343C7.81667 8.8701 7.27 8.71343 6.51 8.71343H4.07ZM4.29 6.92343H6.21C7.10333 6.92343 7.79 6.71343 8.27 6.29343C8.75667 5.87343 9 5.2301 9 4.36343C9 3.75677 8.82667 3.31677 8.48 3.04343C8.14 2.76343 7.60667 2.62343 6.88 2.62343H4.82L4.29 6.92343Z" fill="black"/>
</svg>
