<svg width="24" height="25" viewBox="0 0 24 25" fill="none" xmlns="http://www.w3.org/2000/svg">
<path fill-rule="evenodd" clip-rule="evenodd" d="M6.09376 1.58344C6.35264 1.58344 6.56251 1.7933 6.56251 2.05219V5.33344H18.4915L21.8953 2.08793C22.0827 1.90928 22.3794 1.91635 22.558 2.10371C22.7367 2.29108 22.7296 2.58779 22.5422 2.76644L19.3125 5.84595L19.3125 17.3334H22.2188C22.4776 17.3334 22.6875 17.5433 22.6875 17.8022C22.6875 18.0611 22.4776 18.2709 22.2188 18.2709H19.3125V21.5522C19.3125 21.8111 19.1026 22.0209 18.8438 22.0209C18.5849 22.0209 18.375 21.8111 18.375 21.5522V18.2709H6.09376C6.02822 18.2709 5.96583 18.2575 5.90919 18.2332C5.85419 18.2097 5.80285 18.1752 5.75853 18.1298C5.75317 18.1243 5.74794 18.1187 5.74285 18.113C5.70611 18.0716 5.678 18.0253 5.65847 17.9764C5.63972 17.9297 5.6283 17.8791 5.62562 17.8263C5.62521 17.8183 5.62501 17.8103 5.62501 17.8022V6.27094H1.96875C1.70987 6.27094 1.5 6.06107 1.5 5.80219C1.5 5.54331 1.70987 5.33344 1.96875 5.33344H5.62501V2.05219C5.62501 1.7933 5.83488 1.58344 6.09376 1.58344ZM7.26465 17.3334H18.375L18.375 6.73984L7.26465 17.3334ZM17.5082 6.27094L6.56251 16.7076V6.27094H17.5082Z" fill="#333333" stroke="#333333" stroke-width="0.3" stroke-linecap="round" stroke-linejoin="round"/>
</svg>
