<svg width="20" height="20" viewBox="0 0 20 20" fill="none" xmlns="http://www.w3.org/2000/svg">
<path fill-rule="evenodd" clip-rule="evenodd" d="M7.42266 1.64121C7.32128 1.79719 7.31361 2.00678 7.3511 2.15675C7.35954 2.19048 7.3638 2.22511 7.3638 2.25987V3.1953H12.6362V2.25987C12.6362 1.80979 12.4989 1.58819 12.3843 1.47811C12.2588 1.35769 12.1128 1.32445 12.0409 1.32445H8.29923C7.71776 1.32445 7.50673 1.51188 7.42266 1.64121ZM13.4866 3.1953V2.25987C13.4866 1.62146 13.2837 1.16275 12.9732 0.864648C12.6734 0.576884 12.3092 0.47406 12.0409 0.47406H8.29923C7.52007 0.47406 6.9941 0.740168 6.70966 1.17776C6.45833 1.56442 6.45027 2.00401 6.51341 2.30749V3.1953H0.815819C0.580991 3.1953 0.390625 3.38566 0.390625 3.62049C0.390625 3.85532 0.580991 4.04569 0.815819 4.04569H1.47339L3.79309 18.6267C3.81995 19.2011 4.4357 19.6928 5.57799 19.6928H15.1023C15.148 19.6928 15.1934 19.6854 15.2368 19.671C15.4661 19.5946 15.7831 19.4233 16.0485 19.1437C16.3153 18.8626 16.5389 18.461 16.5477 17.9391L18.5325 4.04569H19.1842C19.419 4.04569 19.6094 3.85532 19.6094 3.62049C19.6094 3.38566 19.419 3.1953 19.1842 3.1953H13.4866ZM17.6735 4.04569H2.33447L4.63728 18.5205C4.63926 18.533 4.64069 18.5455 4.64156 18.5581C4.64549 18.5607 4.72372 18.8424 5.57799 18.8424H15.025C15.1379 18.7944 15.2968 18.7004 15.4318 18.5582C15.5847 18.3971 15.6976 18.1858 15.6976 17.907C15.6976 17.8869 15.699 17.8668 15.7019 17.8469L17.6735 4.04569ZM6.93861 5.57638C7.17343 5.57638 7.3638 5.76675 7.3638 6.00158V16.5464C7.3638 16.7812 7.17343 16.9716 6.93861 16.9716C6.70378 16.9716 6.51341 16.7812 6.51341 16.5464V6.00158C6.51341 5.76675 6.70378 5.57638 6.93861 5.57638ZM10 5.57638C10.2348 5.57638 10.4252 5.76675 10.4252 6.00158V16.5464C10.4252 16.7812 10.2348 16.9716 10 16.9716C9.76517 16.9716 9.57481 16.7812 9.57481 16.5464V6.00158C9.57481 5.76675 9.76517 5.57638 10 5.57638ZM13.0614 5.57638C13.2962 5.57638 13.4866 5.76675 13.4866 6.00158V16.5464C13.4866 16.7812 13.2962 16.9716 13.0614 16.9716C12.8266 16.9716 12.6362 16.7812 12.6362 16.5464V6.00158C12.6362 5.76675 12.8266 5.57638 13.0614 5.57638Z" fill="#333333" stroke="#333333" stroke-width="0.3" stroke-linecap="round" stroke-linejoin="round"/>
</svg>
