<svg width="14" height="16" viewBox="0 0 14 16" fill="none" xmlns="http://www.w3.org/2000/svg">
<path d="M7.625 0.75C7.625 0.404822 7.34518 0.125 7 0.125C6.65482 0.125 6.375 0.404822 6.375 0.75H7.625ZM7 11.5L6.57767 11.9607C6.81662 12.1798 7.18338 12.1798 7.42233 11.9607L7 11.5ZM13.4223 6.46072C13.6768 6.22748 13.694 5.83212 13.4607 5.57767C13.2275 5.32322 12.8321 5.30603 12.5777 5.53928L13.4223 6.46072ZM1.42233 5.53928C1.16788 5.30603 0.772524 5.32322 0.539279 5.57767C0.306033 5.83212 0.323223 6.22748 0.577672 6.46072L1.42233 5.53928ZM1 14.375C0.654822 14.375 0.375 14.6548 0.375 15C0.375 15.3452 0.654822 15.625 1 15.625V14.375ZM13 15.625C13.3452 15.625 13.625 15.3452 13.625 15C13.625 14.6548 13.3452 14.375 13 14.375V15.625ZM6.375 0.75V11.5H7.625V0.75H6.375ZM12.5777 5.53928L6.57767 11.0393L7.42233 11.9607L13.4223 6.46072L12.5777 5.53928ZM0.577672 6.46072L6.57767 11.9607L7.42233 11.0393L1.42233 5.53928L0.577672 6.46072ZM1 15.625H13V14.375H1V15.625Z" fill="#333333"/>
</svg>
