<svg width="23" height="22" viewBox="0 0 23 22" fill="none" xmlns="http://www.w3.org/2000/svg">
<path fill-rule="evenodd" clip-rule="evenodd" d="M20.4688 6.48969H8.46875C8.15809 6.48969 7.90625 6.74153 7.90625 7.05219V19.8022C7.90625 20.1128 8.15809 20.3647 8.46875 20.3647H20.4688C20.7794 20.3647 21.0312 20.1128 21.0312 19.8022V7.05219C21.0312 6.74153 20.7794 6.48969 20.4688 6.48969ZM8.46875 5.55219C7.64032 5.55219 6.96875 6.22376 6.96875 7.05219V19.8022C6.96875 20.6306 7.64032 21.3022 8.46875 21.3022H20.4688C21.2972 21.3022 21.9688 20.6306 21.9688 19.8022V7.05219C21.9688 6.22376 21.2972 5.55219 20.4688 5.55219H8.46875Z" fill="#333333"/>
<path fill-rule="evenodd" clip-rule="evenodd" d="M0.5 2.55219C0.5 1.46487 1.38144 0.583435 2.46875 0.583435H14.4688C15.5561 0.583435 16.4375 1.46487 16.4375 2.55219V4.80219H15.5V2.55219C15.5 1.98264 15.0383 1.52094 14.4688 1.52094H2.46875C1.89921 1.52094 1.4375 1.98264 1.4375 2.55219V15.3022C1.4375 15.8717 1.89921 16.3334 2.46875 16.3334H5.84375V17.2709H2.46875C1.38144 17.2709 0.5 16.3895 0.5 15.3022V2.55219Z" fill="#333333"/>
<path fill-rule="evenodd" clip-rule="evenodd" d="M20.4688 6.48969H8.46875C8.15809 6.48969 7.90625 6.74153 7.90625 7.05219V19.8022C7.90625 20.1128 8.15809 20.3647 8.46875 20.3647H20.4688C20.7794 20.3647 21.0312 20.1128 21.0312 19.8022V7.05219C21.0312 6.74153 20.7794 6.48969 20.4688 6.48969ZM8.46875 5.55219C7.64032 5.55219 6.96875 6.22376 6.96875 7.05219V19.8022C6.96875 20.6306 7.64032 21.3022 8.46875 21.3022H20.4688C21.2972 21.3022 21.9688 20.6306 21.9688 19.8022V7.05219C21.9688 6.22376 21.2972 5.55219 20.4688 5.55219H8.46875Z" stroke="#333333" stroke-width="0.3"/>
<path fill-rule="evenodd" clip-rule="evenodd" d="M0.5 2.55219C0.5 1.46487 1.38144 0.583435 2.46875 0.583435H14.4688C15.5561 0.583435 16.4375 1.46487 16.4375 2.55219V4.80219H15.5V2.55219C15.5 1.98264 15.0383 1.52094 14.4688 1.52094H2.46875C1.89921 1.52094 1.4375 1.98264 1.4375 2.55219V15.3022C1.4375 15.8717 1.89921 16.3334 2.46875 16.3334H5.84375V17.2709H2.46875C1.38144 17.2709 0.5 16.3895 0.5 15.3022V2.55219Z" stroke="#333333" stroke-width="0.3"/>
</svg>
