<svg width="24" height="24" viewBox="0 0 24 24" fill="none" xmlns="http://www.w3.org/2000/svg">
<path d="M4.61131 23.1152C3.23372 22.8281 2.16432 21.9175 1.5266 21.0465L5.96838 14.3665C6.77559 15.5682 8.23872 17.7619 10.3345 20.9412C7.98931 23.0677 6.04952 23.415 4.61131 23.1152Z" stroke="#333333" stroke-width="1.4"/>
<path d="M1.27812 3.54405L5.97974 0.899298L10.4329 3.53386V8.5673L5.97955 11.2773L1.27812 8.55704V3.54405Z" stroke="#333333" stroke-width="1.4"/>
<path d="M14.5293 3.45202V9.18139C15.6061 10.415 18.6527 12.1422 22.2245 9.18139C22.1954 6.44837 22.2124 4.22305 22.2245 3.45202M22.2245 3.35899C22.2245 4.54242 20.5018 5.50178 18.3769 5.50178C16.2519 5.50178 14.5293 4.54242 14.5293 3.35899C14.5293 2.17555 16.2519 1.21619 18.3769 1.21619C20.5018 1.21619 22.2245 2.17555 22.2245 3.35899Z" stroke="#333333" stroke-width="1.4"/>
<path d="M22.7242 18.4401C22.7242 20.8986 20.6875 22.9151 18.1457 22.9151C15.6039 22.9151 13.5672 20.8986 13.5672 18.4401C13.5672 15.9817 15.6039 13.9651 18.1457 13.9651C20.6875 13.9651 22.7242 15.9817 22.7242 18.4401Z" stroke="#333333" stroke-width="1.4"/>
</svg>
