<svg width="24" height="24" viewBox="0 0 24 24" fill="none" xmlns="http://www.w3.org/2000/svg">
<path d="M4.60991 23.1152C3.23231 22.8281 2.16292 21.9175 1.5252 21.0465L5.96697 14.3665C6.77418 15.5682 8.23732 17.7619 10.3331 20.9412C7.98791 23.0677 6.04812 23.415 4.60991 23.1152Z" stroke="white" stroke-width="1.4"/>
<path d="M1.27733 3.54405L5.97895 0.899298L10.4321 3.53386V8.5673L5.97876 11.2773L1.27733 8.55704V3.54405Z" stroke="white" stroke-width="1.4"/>
<path d="M14.5281 3.45202V9.18139C15.605 10.415 18.6516 12.1422 22.2233 9.18139C22.1943 6.44837 22.2112 4.22305 22.2233 3.45202M22.2233 3.35899C22.2233 4.54242 20.5007 5.50178 18.3757 5.50178C16.2508 5.50178 14.5281 4.54242 14.5281 3.35899C14.5281 2.17555 16.2508 1.21619 18.3757 1.21619C20.5007 1.21619 22.2233 2.17555 22.2233 3.35899Z" stroke="white" stroke-width="1.4"/>
<path d="M22.7227 18.4401C22.7227 20.8986 20.686 22.9151 18.1442 22.9151C15.6025 22.9151 13.5657 20.8986 13.5657 18.4401C13.5657 15.9817 15.6025 13.9651 18.1442 13.9651C20.686 13.9651 22.7227 15.9817 22.7227 18.4401Z" stroke="white" stroke-width="1.4"/>
</svg>
