<svg width="30" height="32" viewBox="0 0 30 32" fill="none" xmlns="http://www.w3.org/2000/svg">
<path fill-rule="evenodd" clip-rule="evenodd" d="M29.3393 12.7958C29.61 12.9259 29.7821 13.1996 29.7821 13.4999V29.1249C29.7821 30.2467 28.8727 31.1562 27.7509 31.1562H2.12588C1.00405 31.1562 0.0946262 30.2467 0.0946262 29.1249V14.1249C0.0946262 13.8323 -0.00909232 13.0088 0.251119 12.8749C0.511331 12.741 1.09183 13.3191 1.32997 13.4892L14.4003 22.8251C15.0434 23.1208 15.7636 22.9669 16.0867 22.8308L28.5128 12.8898C28.7473 12.7022 29.0686 12.6657 29.3393 12.7958ZM28.2196 15.1254L16.9243 24.1617L16.8503 24.1987C16.305 24.4713 14.9491 24.8475 13.6515 24.1987L13.5967 24.1713L1.65713 15.643V29.1249C1.65713 29.3838 1.86699 29.5937 2.12588 29.5937H27.7509C28.0098 29.5937 28.2196 29.3838 28.2196 29.1249V15.1254Z" fill="#333333"/>
<path fill-rule="evenodd" clip-rule="evenodd" d="M16.3385 2.97143C15.7041 2.42347 14.7668 2.4132 14.1205 2.94713L1.4783 13.7311C1.14565 14.0059 0.653221 13.959 0.378425 13.6264C0.250876 13.6264 0.0457759 12.8177 0.378425 12.5429L13.1254 1.7425C14.3593 0.723185 16.1486 0.74279 17.3598 1.78889L29.5116 12.2836C29.8382 12.5656 29.8743 13.059 29.5923 13.3855C29.3102 13.7121 28.8169 13.7482 28.4903 13.4662L16.3385 2.97143ZM12.7926 21.8425C13.0176 22.2107 12.9015 22.6915 12.5334 22.9165L1.28337 29.7915C0.915203 30.0165 0.434353 29.9004 0.209362 29.5323C-0.0156295 29.1641 0.100438 28.6833 0.468605 28.4583L11.7186 21.5833C12.0868 21.3583 12.5676 21.4743 12.7926 21.8425ZM17.3436 22.0155C17.5686 21.6474 17.7902 21.3583 18.1584 21.5833L29.4084 28.4583C29.7765 28.6833 29.8926 29.1641 29.6676 29.5323C29.4426 29.9004 28.9618 30.0165 28.5936 29.7915L17.3436 22.9165C16.9754 22.6915 17.1186 22.3837 17.3436 22.0155Z" fill="#333333"/>
<path d="M16.8004 16.4766C16.4271 16.4766 16.0922 16.3945 15.7958 16.2302C15.5048 16.0659 15.3017 15.8014 15.1864 15.4369C14.8625 15.8066 14.5194 16.071 14.1571 16.2302C13.7948 16.3893 13.405 16.4689 12.9878 16.4689C12.6419 16.4689 12.34 16.4125 12.082 16.2995C11.8295 16.1865 11.6154 16.0325 11.4397 15.8374C11.2695 15.6371 11.1405 15.4035 11.0527 15.1365C10.9703 14.8644 10.9292 14.5692 10.9292 14.2508C10.9292 13.9581 10.9676 13.6629 11.0444 13.3651C11.1268 13.0622 11.2476 12.7721 11.4068 12.4948C11.566 12.2124 11.7636 11.9506 11.9996 11.7092C12.2412 11.4628 12.5239 11.2497 12.8478 11.07C13.1717 10.8851 13.534 10.7414 13.9348 10.6387C14.3355 10.5309 14.7802 10.4769 15.2687 10.4769C15.6915 10.4769 16.0538 10.5077 16.3557 10.5694C16.6576 10.631 16.9486 10.7183 17.2286 10.8312L16.4381 13.6886C16.3502 14.0172 16.3063 14.2919 16.3063 14.5127C16.3063 14.6667 16.3255 14.7951 16.3639 14.8978C16.4079 15.0005 16.4628 15.0826 16.5286 15.1442C16.6 15.2058 16.6851 15.2495 16.7839 15.2752C16.8827 15.2957 16.9898 15.306 17.105 15.306C17.3356 15.306 17.5525 15.2392 17.7556 15.1057C17.9642 14.9671 18.1453 14.7745 18.2991 14.5281C18.4528 14.2816 18.5735 13.989 18.6614 13.6501C18.7547 13.3112 18.8014 12.9415 18.8014 12.541C18.8014 11.8735 18.6888 11.2856 18.4637 10.7773C18.2442 10.269 17.934 9.8454 17.5332 9.50652C17.138 9.1625 16.6631 8.90578 16.1087 8.73634C15.5542 8.56176 14.9476 8.47448 14.2888 8.47448C13.5697 8.47448 12.9 8.60284 12.2796 8.85957C11.6648 9.11116 11.1295 9.45774 10.6739 9.89931C10.2237 10.3409 9.86965 10.862 9.61163 11.4628C9.35911 12.0635 9.23285 12.7105 9.23285 13.4036C9.23285 14.2457 9.37283 14.9876 9.65281 15.6294C9.93278 16.2661 10.3171 16.8001 10.8056 17.2314C11.2942 17.6576 11.8679 17.9785 12.5267 18.1941C13.1909 18.4098 13.9073 18.5176 14.6759 18.5176C15.0986 18.5176 15.4938 18.4945 15.8616 18.4483C16.2294 18.4072 16.5671 18.3482 16.8745 18.2712C17.1819 18.1993 17.4619 18.1145 17.7144 18.017C17.9669 17.9246 18.192 17.8244 18.3896 17.7166C18.4994 17.6601 18.5928 17.6319 18.6696 17.6319C18.8288 17.6319 18.9413 17.7141 19.0072 17.8784L19.2872 18.5638C18.7163 18.913 18.0493 19.1979 17.2862 19.4187C16.5231 19.6395 15.653 19.7499 14.6759 19.7499C13.6822 19.7499 12.7627 19.6036 11.9173 19.3109C11.0719 19.0182 10.339 18.5972 9.71868 18.0478C9.10384 17.5035 8.62075 16.8386 8.26941 16.053C7.92356 15.2675 7.75063 14.3843 7.75063 13.4036C7.75063 12.8542 7.82474 12.3202 7.97296 11.8016C8.12668 11.2831 8.34352 10.7978 8.62349 10.346C8.90347 9.88904 9.24108 9.47058 9.63634 9.09062C10.0316 8.71067 10.4708 8.38462 10.9539 8.11249C11.437 7.84036 11.9585 7.62985 12.5184 7.48095C13.0839 7.32691 13.674 7.24989 14.2888 7.24989C15.0684 7.24989 15.815 7.37312 16.5286 7.61958C17.2478 7.8609 17.8818 8.21005 18.4308 8.66702C18.9853 9.11886 19.4272 9.67339 19.7566 10.3306C20.0859 10.9827 20.2506 11.7195 20.2506 12.541C20.2506 13.0904 20.1628 13.6064 19.9871 14.0891C19.8169 14.5666 19.5754 14.9825 19.2625 15.3368C18.9551 15.6911 18.59 15.9709 18.1673 16.1763C17.7501 16.3765 17.2944 16.4766 16.8004 16.4766ZM13.3913 15.2443C13.534 15.2443 13.6767 15.2238 13.8195 15.1827C13.9677 15.1417 14.1077 15.0698 14.2394 14.9671C14.3712 14.8593 14.492 14.7181 14.6018 14.5435C14.7115 14.3689 14.8021 14.1507 14.8735 13.8888L15.4746 11.7169C15.2989 11.6861 15.1178 11.6707 14.9311 11.6707C14.5908 11.6707 14.2724 11.74 13.9759 11.8787C13.6795 12.0173 13.4215 12.2047 13.2019 12.4409C12.9878 12.6771 12.8176 12.9492 12.6913 13.2573C12.5651 13.5602 12.502 13.876 12.502 14.2046C12.502 14.5332 12.5761 14.7899 12.7243 14.9748C12.878 15.1545 13.1003 15.2443 13.3913 15.2443Z" fill="#333333"/>
</svg>
