<svg width="24" height="21" viewBox="0 0 24 21" fill="none" xmlns="http://www.w3.org/2000/svg">
<path fill-rule="evenodd" clip-rule="evenodd" d="M2.71125 2.93C2.71125 1.74328 3.67328 0.78125 4.86 0.78125H20.82C22.0067 0.78125 22.9688 1.74328 22.9688 2.93V15.53C22.9688 16.7167 22.0067 17.6788 20.82 17.6788H9.3192L13.9305 12.1452L9.53249 5.86239C9.07117 5.20336 8.10741 5.16884 7.60013 5.79319L2.71125 11.8103V2.93ZM14.5399 11.381L15.9216 9.60441C16.7151 8.5842 18.2232 8.49031 19.1371 9.40422L22.0312 12.2983V2.93C22.0312 2.26105 21.489 1.71875 20.82 1.71875H4.86C4.19105 1.71875 3.64875 2.26105 3.64875 2.93V9.16973L6.87252 5.20201C7.77244 4.09442 9.48213 4.15565 10.3005 5.32477L14.5399 11.381ZM22.0312 13.6242L18.4742 10.0671C17.959 9.55196 17.1089 9.60489 16.6616 10.18L14.89 12.4578C14.8868 12.4619 14.8835 12.466 14.8801 12.4701L11.3208 16.7413H20.82C21.489 16.7413 22.0312 16.199 22.0312 15.53V13.6242ZM14.94 4.23875C14.271 4.23875 13.7288 4.78105 13.7288 5.45C13.7288 6.11896 14.271 6.66125 14.94 6.66125C15.609 6.66125 16.1512 6.11896 16.1512 5.45C16.1512 4.78105 15.609 4.23875 14.94 4.23875ZM12.7913 5.45C12.7913 4.26328 13.7533 3.30125 14.94 3.30125C16.1267 3.30125 17.0887 4.26328 17.0887 5.45C17.0887 6.63672 16.1267 7.59875 14.94 7.59875C13.7533 7.59875 12.7913 6.63672 12.7913 5.45ZM5.28 11.7013C5.53888 11.7013 5.74875 11.9111 5.74875 12.17V15.4813H8.64C8.89888 15.4813 9.10875 15.6911 9.10875 15.95C9.10875 16.2089 8.89888 16.4188 8.64 16.4188H5.74875V20.15C5.74875 20.4089 5.53888 20.6188 5.28 20.6188C5.02112 20.6188 4.81125 20.4089 4.81125 20.15V16.4188H1.5C1.24112 16.4188 1.03125 16.2089 1.03125 15.95C1.03125 15.6911 1.24112 15.4813 1.5 15.4813H4.81125V12.17C4.81125 11.9111 5.02112 11.7013 5.28 11.7013Z" fill="#333333" stroke="#333333" stroke-width="0.4"/>
</svg>
