<svg width="10" height="14" viewBox="0 0 10 14" fill="none" xmlns="http://www.w3.org/2000/svg">
<path d="M5.93164 13.2221L5.82422 13.5834H0.375L0.511719 13.2221C1.05859 13.2091 1.41992 13.1635 1.5957 13.0854C1.88216 12.9747 2.09375 12.8217 2.23047 12.6264C2.44531 12.3204 2.66667 11.7735 2.89453 10.9858L5.19922 2.9975C5.39453 2.33344 5.49219 1.83213 5.49219 1.49359C5.49219 1.32432 5.44987 1.18109 5.36523 1.0639C5.2806 0.946716 5.15039 0.858826 4.97461 0.800232C4.80534 0.735128 4.47005 0.702576 3.96875 0.702576L4.08594 0.341248H9.20312L9.0957 0.702576C8.67904 0.696065 8.36979 0.741638 8.16797 0.839294C7.875 0.969503 7.65039 1.15505 7.49414 1.39594C7.3444 1.63682 7.14909 2.17067 6.9082 2.9975L4.61328 10.9858C4.40495 11.7215 4.30078 12.1902 4.30078 12.392C4.30078 12.5548 4.33984 12.6948 4.41797 12.812C4.5026 12.9226 4.63281 13.0105 4.80859 13.0756C4.99089 13.1342 5.36523 13.183 5.93164 13.2221Z" fill="black"/>
</svg>
