<svg width="40" height="40" viewBox="0 0 40 40" fill="none" xmlns="http://www.w3.org/2000/svg">
<path fill-rule="evenodd" clip-rule="evenodd" d="M20 39.0001C30.4933 39.0001 39 30.4934 39 20.0001C39 9.5065 30.4932 1.0001 20 1C9.5062 1 1 9.5065 1 20.0001C1 30.4934 9.5063 39.0001 20 39.0001ZM13.9402 12.3849C14.381 10.6573 13.1729 9.18431 11.3132 9.1823C10.0883 9.1808 9.1147 9.77062 8.73427 10.7449C8.12476 12.3049 9.04671 13.9191 10.7008 14.1875C12.258 14.4404 13.6072 13.6894 13.9402 12.3849ZM21.3124 18.1206C21.3477 18.0842 21.368 18.0633 21.3842 18.0397C22.6612 16.1764 24.485 15.6286 26.613 15.9557C29.0721 16.3342 30.6458 18.0556 31.0476 20.6895C31.1429 21.3141 31.1903 21.9412 31.1898 22.5726L31.189 23.718C31.1874 25.9587 31.1858 28.1993 31.1954 30.4399C31.1971 30.7352 31.1244 30.822 30.8217 30.8183C29.4478 30.8018 28.0734 30.802 26.6994 30.8183C26.3988 30.8216 26.3217 30.7359 26.3233 30.4401C26.3335 28.2165 26.3312 25.9929 26.3289 23.7695L26.3282 23.1028C26.3273 22.5469 26.2891 21.9945 26.1328 21.4562C25.632 19.7296 23.6677 19.1235 22.2689 20.2716C21.5132 20.8917 21.2177 21.7116 21.2234 22.6766C21.2321 24.3085 21.2303 25.9404 21.2285 27.5722V27.5731C21.2278 28.2479 21.227 28.9232 21.227 29.5981C21.227 29.6897 21.2255 29.7814 21.2239 29.8731C21.2204 30.0843 21.2168 30.2955 21.2322 30.5052C21.2514 30.7668 21.1446 30.8171 20.9077 30.8156C19.5082 30.8061 18.109 30.8051 16.7097 30.8162C16.4558 30.8182 16.3645 30.7666 16.3674 30.4875C16.3879 28.4079 16.3963 26.3273 16.3972 24.2475C16.3976 21.6881 16.3925 19.129 16.3746 16.5697C16.3727 16.2895 16.4313 16.2067 16.7208 16.2099C18.1202 16.2255 19.5195 16.2232 20.9188 16.2115C21.1708 16.2092 21.2411 16.285 21.2331 16.5301C21.2209 16.8985 21.2232 17.2673 21.2257 17.6687L21.2257 17.6696C21.2267 17.8426 21.2278 18.0216 21.2278 18.2093C21.2633 18.1712 21.2907 18.1429 21.3124 18.1206ZM13.7119 30.4348C13.7037 28.677 13.7045 26.9192 13.7054 25.1614C13.7057 24.6129 13.706 24.0644 13.706 23.5159C13.7061 22.9336 13.7059 22.3514 13.7058 21.7691L13.7058 21.7648C13.7053 20.0296 13.7048 18.2945 13.7112 16.5593C13.7123 16.3104 13.6685 16.2076 13.3868 16.2107C11.9755 16.2252 10.564 16.2237 9.15231 16.2117C8.89813 16.2093 8.83907 16.2903 8.83938 16.5325C8.8463 21.183 8.84741 25.8333 8.84068 30.4839C8.84038 30.7544 8.92725 30.8187 9.18455 30.8166C10.5708 30.8049 11.9571 30.8006 13.3431 30.8191C13.6555 30.8232 13.7131 30.7213 13.7119 30.4348Z" fill="#0172B1"/>
</svg>
