<svg width="16" height="23" viewBox="0 0 16 23" fill="none" xmlns="http://www.w3.org/2000/svg">
<path fill-rule="evenodd" clip-rule="evenodd" d="M8.9375 17.4807C10.2156 17.2585 11.1875 16.1439 11.1875 14.8022C11.1875 13.3007 9.97027 12.0834 8.46875 12.0834C6.96723 12.0834 5.75 13.3007 5.75 14.8022C5.75 16.1439 6.72186 17.2585 8 17.4807V19.3022C8 19.5611 8.20987 19.7709 8.46875 19.7709C8.72763 19.7709 8.9375 19.5611 8.9375 19.3022V17.4807ZM8.46875 13.0209C7.48499 13.0209 6.6875 13.8184 6.6875 14.8022C6.6875 15.7859 7.48499 16.5834 8.46875 16.5834C9.45251 16.5834 10.25 15.7859 10.25 14.8022C10.25 13.8184 9.45251 13.0209 8.46875 13.0209Z" fill="#333333"/>
<path fill-rule="evenodd" clip-rule="evenodd" d="M2.75 9.08344V6.11469C2.75 3.19225 5.1482 0.833435 8.09375 0.833435C11.0393 0.833435 13.4375 3.19225 13.4375 6.11469V9.08344H13.7188C14.8061 9.08344 15.6875 9.96487 15.6875 11.0522V20.8022C15.6875 21.8895 14.8061 22.7709 13.7188 22.7709H2.46875C1.38144 22.7709 0.5 21.8895 0.5 20.8022V11.0522C0.5 9.96487 1.38144 9.08344 2.46875 9.08344H2.75ZM3.6875 6.11469C3.6875 3.72138 5.65452 1.77094 8.09375 1.77094C10.533 1.77094 12.5 3.72138 12.5 6.11469V9.08344H3.6875V6.11469ZM1.4375 11.0522C1.4375 10.4826 1.89921 10.0209 2.46875 10.0209H13.7188C14.2883 10.0209 14.75 10.4826 14.75 11.0522V20.8022C14.75 21.3717 14.2883 21.8334 13.7188 21.8334H2.46875C1.89921 21.8334 1.4375 21.3717 1.4375 20.8022V11.0522Z" fill="#333333"/>
<path fill-rule="evenodd" clip-rule="evenodd" d="M8.9375 17.4807C10.2156 17.2585 11.1875 16.1439 11.1875 14.8022C11.1875 13.3007 9.97027 12.0834 8.46875 12.0834C6.96723 12.0834 5.75 13.3007 5.75 14.8022C5.75 16.1439 6.72186 17.2585 8 17.4807V19.3022C8 19.5611 8.20987 19.7709 8.46875 19.7709C8.72763 19.7709 8.9375 19.5611 8.9375 19.3022V17.4807ZM8.46875 13.0209C7.48499 13.0209 6.6875 13.8184 6.6875 14.8022C6.6875 15.7859 7.48499 16.5834 8.46875 16.5834C9.45251 16.5834 10.25 15.7859 10.25 14.8022C10.25 13.8184 9.45251 13.0209 8.46875 13.0209Z" stroke="#333333" stroke-width="0.3" stroke-linecap="round" stroke-linejoin="round"/>
<path fill-rule="evenodd" clip-rule="evenodd" d="M2.75 9.08344V6.11469C2.75 3.19225 5.1482 0.833435 8.09375 0.833435C11.0393 0.833435 13.4375 3.19225 13.4375 6.11469V9.08344H13.7188C14.8061 9.08344 15.6875 9.96487 15.6875 11.0522V20.8022C15.6875 21.8895 14.8061 22.7709 13.7188 22.7709H2.46875C1.38144 22.7709 0.5 21.8895 0.5 20.8022V11.0522C0.5 9.96487 1.38144 9.08344 2.46875 9.08344H2.75ZM3.6875 6.11469C3.6875 3.72138 5.65452 1.77094 8.09375 1.77094C10.533 1.77094 12.5 3.72138 12.5 6.11469V9.08344H3.6875V6.11469ZM1.4375 11.0522C1.4375 10.4826 1.89921 10.0209 2.46875 10.0209H13.7188C14.2883 10.0209 14.75 10.4826 14.75 11.0522V20.8022C14.75 21.3717 14.2883 21.8334 13.7188 21.8334H2.46875C1.89921 21.8334 1.4375 21.3717 1.4375 20.8022V11.0522Z" stroke="#333333" stroke-width="0.3" stroke-linecap="round" stroke-linejoin="round"/>
</svg>
