<svg width="32" height="32" viewBox="0 0 32 32" fill="none" xmlns="http://www.w3.org/2000/svg">
<circle cx="16" cy="16" r="16" fill="#333333"/>
<path fill-rule="evenodd" clip-rule="evenodd" d="M24.132 24.1317C23.5462 24.7175 22.5965 24.7175 22.0107 24.1317L7.86854 9.98962C7.28275 9.40383 7.28275 8.45408 7.86854 7.8683C8.45433 7.28251 9.40407 7.28251 9.98986 7.8683L24.132 22.0104C24.7178 22.5962 24.7178 23.546 24.132 24.1317Z" fill="white"/>
<path fill-rule="evenodd" clip-rule="evenodd" d="M24.132 7.86829C24.7178 8.45408 24.7178 9.40383 24.132 9.98961L9.98986 24.1317C9.40407 24.7175 8.45433 24.7175 7.86854 24.1317C7.28275 23.546 7.28275 22.5962 7.86854 22.0104L22.0107 7.86829C22.5965 7.28251 23.5462 7.28251 24.132 7.86829Z" fill="white"/>
</svg>
