<svg width="40" height="40" viewBox="0 0 40 40" fill="none" xmlns="http://www.w3.org/2000/svg">
<path d="M13.5287 31.6137C11.1583 31.0217 9.83752 29.1369 9.83352 26.3425C9.83192 25.4481 9.89673 25.0193 10.1191 24.4449C10.6663 23.0353 12.1143 21.9721 14.0191 21.5817C14.9679 21.3865 15.2599 21.1769 15.2599 20.6929C15.2599 20.5409 15.3727 20.0897 15.5103 19.6881C16.1375 17.8673 17.2967 16.3497 18.5367 15.7281C19.8343 15.0777 20.4887 14.9313 22.0583 14.9401C24.2879 14.9521 25.3991 15.4353 26.9543 17.0689L27.8087 17.9673L28.5759 17.7017C32.2839 16.4185 35.9807 18.6033 36.2799 22.2529L36.3607 23.2521L37.0911 23.5137C39.1767 24.2609 40.1567 25.8305 39.9791 28.1369C39.8623 29.6449 39.1575 30.8497 38.0399 31.4481L37.5151 31.7289L25.8423 31.7513C16.8727 31.7689 14.0215 31.7369 13.5287 31.6137Z" fill="#2450A3"/>
<path d="M4.77839 30.0017C3.39439 29.6729 1.92799 28.4513 1.24079 27.0521C0.85119 26.2593 0.82959 26.1425 0.82959 24.7401C0.82959 23.4057 0.86319 23.1905 1.17359 22.5289C1.82799 21.1321 3.08239 20.1233 4.65599 19.7273C4.98799 19.6433 5.29999 19.5097 5.34959 19.4305C5.39919 19.3505 5.45359 18.9177 5.47119 18.4681C5.58079 15.6745 7.41359 13.2121 9.97359 12.4217C11.3568 11.9945 13.0936 12.1001 14.5984 12.7017C15.0752 12.8929 15.0216 12.9337 16.0304 11.6113C16.6272 10.8289 17.832 9.8561 18.8184 9.3609C19.884 8.8265 20.9904 8.5793 22.316 8.5833C26.0176 8.5921 29.208 10.9073 30.3872 14.4409C30.764 15.5705 30.7448 15.8865 30.3016 15.8953C30.1072 15.8993 29.5512 16.0065 29.0664 16.1329L28.1832 16.3625L27.3784 15.5577C25.108 13.2873 21.4024 12.7961 18.2512 14.3489C16.9928 14.9689 15.9816 15.8593 15.2176 17.0201C14.6728 17.8473 13.9784 19.3913 13.9784 19.7737C13.9784 20.0457 13.7584 20.1817 12.8184 20.4897C9.90719 21.4441 8.20879 23.6497 8.20959 26.4689C8.20959 27.4961 8.47439 28.7529 8.84159 29.4729C8.97999 29.7441 9.05759 30.0017 9.01359 30.0457C8.89999 30.1577 5.27839 30.1201 4.77839 30.0017Z" fill="#2450A3"/>
</svg>
