<svg width="12" height="13" viewBox="0 0 12 13" fill="none" xmlns="http://www.w3.org/2000/svg">
<path fill-rule="evenodd" clip-rule="evenodd" d="M0.249999 6.5C0.249999 6.08579 0.585784 5.75 0.999998 5.75L11 5.75C11.4142 5.75 11.75 6.08579 11.75 6.5C11.75 6.91421 11.4142 7.25 11 7.25L0.999999 7.25C0.585784 7.25 0.249999 6.91422 0.249999 6.5Z" fill="#333333"/>
<path fill-rule="evenodd" clip-rule="evenodd" d="M6 12.25C5.58579 12.25 5.25 11.9142 5.25 11.5L5.25 1.5C5.25 1.08579 5.58578 0.750001 6 0.750001C6.41421 0.75 6.75 1.08579 6.75 1.5L6.75 11.5C6.75 11.9142 6.41421 12.25 6 12.25Z" fill="#333333"/>
</svg>
