<svg width="22" height="23" viewBox="0 0 22 23" fill="none" xmlns="http://www.w3.org/2000/svg">
<path d="M1.4375 11.1772C1.4375 5.84419 5.76075 1.52094 11.0938 1.52094C16.4268 1.52094 20.75 5.84419 20.75 11.1772C20.75 16.5102 16.4268 20.8334 11.0938 20.8334C9.00108 20.8334 7.06458 20.1682 5.48314 19.0372L7.40902 18.7664C7.66538 18.7303 7.84398 18.4933 7.80793 18.2369C7.77188 17.9806 7.53484 17.802 7.27848 17.838L4.27848 18.2599C4.04709 18.2924 3.875 18.4904 3.875 18.724V21.6772C3.875 21.9361 4.08487 22.1459 4.34375 22.1459C4.60263 22.1459 4.8125 21.9361 4.8125 21.6772V19.7087C6.56994 21.0047 8.74278 21.7709 11.0938 21.7709C16.9445 21.7709 21.6875 17.028 21.6875 11.1772C21.6875 5.32642 16.9445 0.583435 11.0938 0.583435C5.24298 0.583435 0.5 5.32642 0.5 11.1772C0.5 11.4361 0.709867 11.6459 0.96875 11.6459C1.22763 11.6459 1.4375 11.4361 1.4375 11.1772Z" fill="#333333"/>
<path fill-rule="evenodd" clip-rule="evenodd" d="M17.342 9.26252L12.4859 4.40637C11.717 3.63752 10.4705 3.63752 9.70163 4.40637L4.84548 9.26252C4.07663 10.0314 4.07663 11.2779 4.84548 12.0468L9.70163 16.9029C10.4705 17.6718 11.717 17.6718 12.4859 16.9029L17.342 12.0468C18.1109 11.2779 18.1109 10.0314 17.342 9.26252ZM5.50839 9.92544L10.3645 5.06928C10.7673 4.66655 11.4202 4.66655 11.823 5.06928L16.6791 9.92544C17.0818 10.3282 17.0818 10.9811 16.6791 11.3838L11.823 16.24C11.4202 16.6427 10.7673 16.6427 10.3645 16.24L5.50839 11.3838C5.10566 10.9811 5.10566 10.3282 5.50839 9.92544Z" fill="#333333"/>
<path d="M1.4375 11.1772C1.4375 5.84419 5.76075 1.52094 11.0938 1.52094C16.4268 1.52094 20.75 5.84419 20.75 11.1772C20.75 16.5102 16.4268 20.8334 11.0938 20.8334C9.00108 20.8334 7.06458 20.1682 5.48314 19.0372L7.40902 18.7664C7.66538 18.7303 7.84398 18.4933 7.80793 18.2369C7.77188 17.9806 7.53484 17.802 7.27848 17.838L4.27848 18.2599C4.04709 18.2924 3.875 18.4904 3.875 18.724V21.6772C3.875 21.9361 4.08487 22.1459 4.34375 22.1459C4.60263 22.1459 4.8125 21.9361 4.8125 21.6772V19.7087C6.56994 21.0047 8.74278 21.7709 11.0938 21.7709C16.9445 21.7709 21.6875 17.028 21.6875 11.1772C21.6875 5.32642 16.9445 0.583435 11.0938 0.583435C5.24298 0.583435 0.5 5.32642 0.5 11.1772C0.5 11.4361 0.709867 11.6459 0.96875 11.6459C1.22763 11.6459 1.4375 11.4361 1.4375 11.1772Z" stroke="#333333" stroke-width="0.3" stroke-linecap="round" stroke-linejoin="round"/>
<path fill-rule="evenodd" clip-rule="evenodd" d="M17.342 9.26252L12.4859 4.40637C11.717 3.63752 10.4705 3.63752 9.70163 4.40637L4.84548 9.26252C4.07663 10.0314 4.07663 11.2779 4.84548 12.0468L9.70163 16.9029C10.4705 17.6718 11.717 17.6718 12.4859 16.9029L17.342 12.0468C18.1109 11.2779 18.1109 10.0314 17.342 9.26252ZM5.50839 9.92544L10.3645 5.06928C10.7673 4.66655 11.4202 4.66655 11.823 5.06928L16.6791 9.92544C17.0818 10.3282 17.0818 10.9811 16.6791 11.3838L11.823 16.24C11.4202 16.6427 10.7673 16.6427 10.3645 16.24L5.50839 11.3838C5.10566 10.9811 5.10566 10.3282 5.50839 9.92544Z" stroke="#333333" stroke-width="0.3" stroke-linecap="round" stroke-linejoin="round"/>
</svg>
