<svg width="16" height="16" viewBox="0 0 16 16" fill="none" xmlns="http://www.w3.org/2000/svg">
<path d="M11.3474 3.09278C11.3474 2.83828 11.1411 2.63196 10.8866 2.63196C10.6321 2.63196 10.4258 2.83828 10.4258 3.09278V4.82474C10.4258 5.07925 10.6321 5.28557 10.8866 5.28557C11.1411 5.28557 11.3474 5.07925 11.3474 4.82474V3.09278ZM2.51546 0.9C1.62327 0.9 0.9 1.62327 0.9 2.51546V13.4845C0.9 14.3767 1.62327 15.1 2.51546 15.1H13.4845C14.3767 15.1 15.1 14.3767 15.1 13.4845V2.51546C15.1 1.62327 14.3767 0.9 13.4845 0.9H2.51546ZM2.51546 1.82165H3.7866V5.40206C3.7866 6.29426 4.50987 7.01753 5.40206 7.01753H11.1753C12.0675 7.01753 12.7907 6.29426 12.7907 5.40206V1.82165H13.4845C13.8677 1.82165 14.1783 2.13228 14.1783 2.51546V13.4845C14.1783 13.8677 13.8677 14.1783 13.4845 14.1783H2.51546C2.13228 14.1783 1.82165 13.8677 1.82165 13.4845V2.51546C1.82165 2.13228 2.13228 1.82165 2.51546 1.82165ZM11.8691 1.82165V5.40206C11.8691 5.78524 11.5584 6.09588 11.1753 6.09588H5.40206C5.01888 6.09588 4.70825 5.78524 4.70825 5.40206V1.82165H11.8691Z" fill="#333333" stroke="#333333" stroke-width="0.2" stroke-linecap="round" stroke-linejoin="round"/>
</svg>
