<svg width="24" height="24" viewBox="0 0 24 24" fill="none" xmlns="http://www.w3.org/2000/svg">
<path fill-rule="evenodd" clip-rule="evenodd" d="M10.5 20.0625C15.7812 20.0625 20.0625 15.7812 20.0625 10.5C20.0625 5.21878 15.7812 0.9375 10.5 0.9375C5.21878 0.9375 0.9375 5.21878 0.9375 10.5C0.9375 15.7812 5.21878 20.0625 10.5 20.0625ZM10.5 21C16.299 21 21 16.299 21 10.5C21 4.70101 16.299 0 10.5 0C4.70101 0 0 4.70101 0 10.5C0 16.299 4.70101 21 10.5 21Z" fill="#333333"/>
<path fill-rule="evenodd" clip-rule="evenodd" d="M17.1685 17.1685C17.3516 16.9855 17.6484 16.9855 17.8315 17.1685L23.3315 22.6685C23.5145 22.8516 23.5145 23.1484 23.3315 23.3315C23.1484 23.5145 22.8516 23.5145 22.6685 23.3315L17.1685 17.8315C16.9855 17.6484 16.9855 17.3516 17.1685 17.1685Z" fill="#333333"/>
</svg>
