<svg width="16" height="16" viewBox="0 0 16 16" fill="none" xmlns="http://www.w3.org/2000/svg">
<path fill-rule="evenodd" clip-rule="evenodd" d="M6.14939 2.3836C5.22398 1.45775 3.62203 1.12067 2.35915 2.38362C1.10054 3.64231 1.50847 5.32315 2.35928 6.17386L3.28945 7.10424C3.39878 7.21359 3.39876 7.39087 3.2894 7.5002C3.18005 7.60953 3.00277 7.60951 2.89344 7.50016L1.96334 6.56985C1.96332 6.56984 1.96335 6.56986 1.96334 6.56985C0.953306 5.55991 0.430842 3.5201 1.96317 1.98767C3.49125 0.459503 5.45092 0.892682 6.54545 1.98773C6.85571 2.29813 7.27966 2.678 7.73799 3.08869C8.0192 3.34065 8.31335 3.60422 8.60212 3.87045C8.97683 4.21592 9.33891 4.56292 9.63796 4.88426C9.93245 5.2007 10.1838 5.5109 10.3191 5.78153C10.5581 6.25944 10.8138 6.88785 10.8138 7.59281C10.8138 8.31046 10.549 9.07831 9.80152 9.82574C9.69218 9.93508 9.5149 9.93508 9.40555 9.82574C9.29621 9.7164 9.29621 9.53912 9.40555 9.42978C10.0535 8.78179 10.2538 8.15425 10.2539 7.59281C10.2539 7.01868 10.0445 6.48431 9.81826 6.03201C9.721 5.83753 9.51709 5.57635 9.22804 5.26575C8.94355 4.96006 8.59376 4.62439 8.22255 4.28216C7.94953 4.03045 7.66275 3.77339 7.38403 3.52355C6.91505 3.10317 6.46888 2.70323 6.14939 2.3836Z" fill="#333333"/>
<path fill-rule="evenodd" clip-rule="evenodd" d="M9.80115 13.6164C10.7266 14.5422 12.3289 14.8794 13.5918 13.6164C14.2299 12.9782 14.4401 12.239 14.44 11.6049C14.44 11.2864 14.3867 10.9965 14.309 10.7633C14.2293 10.5244 14.1309 10.3656 14.0568 10.2915L13.1265 9.36104C13.0172 9.25168 13.0172 9.0744 13.1265 8.96507C13.2359 8.85574 13.4132 8.85576 13.5225 8.96512L14.4525 9.89534C14.4526 9.89538 14.4525 9.8953 14.4525 9.89534C14.611 10.0537 14.7454 10.3019 14.8402 10.5861C14.9369 10.8761 15 11.2258 15 11.6049C15 12.3662 14.745 13.255 13.9877 14.0124C12.4597 15.5405 10.4996 15.1073 9.40509 14.0123C9.09489 13.7019 8.67106 13.3221 8.21287 12.9115C7.93161 12.6595 7.6374 12.3959 7.34858 12.1296C6.97391 11.7841 6.61187 11.4371 6.31285 11.1158C6.01839 10.7993 5.76712 10.4892 5.63178 10.2185C5.39277 9.74062 5.13703 9.11222 5.13704 8.40725C5.13705 7.6896 5.40192 6.92176 6.14935 6.17432C6.2587 6.06498 6.43597 6.06498 6.54532 6.17432C6.65466 6.28367 6.65466 6.46095 6.54532 6.57029C5.89733 7.21828 5.69702 7.84582 5.69702 8.40726C5.69701 8.98138 5.90641 9.51576 6.13261 9.96806C6.22988 10.1625 6.43378 10.4237 6.72279 10.7343C7.00725 11.04 7.357 11.3757 7.72816 11.7179C8.00124 11.9697 8.28809 12.2268 8.56687 12.4767C9.0357 12.897 9.48173 13.2968 9.80115 13.6164Z" fill="#333333"/>
<path d="M1.96334 6.56985L2.89344 7.50016C3.00277 7.60951 3.18005 7.60953 3.2894 7.5002C3.39876 7.39087 3.39878 7.21359 3.28945 7.10424L2.35928 6.17386C1.50847 5.32315 1.10054 3.64231 2.35915 2.38362C3.62203 1.12067 5.22398 1.45775 6.14939 2.3836C6.46888 2.70323 6.91505 3.10317 7.38403 3.52355C7.66275 3.77339 7.94953 4.03045 8.22255 4.28216C8.59376 4.62439 8.94355 4.96006 9.22804 5.26575C9.51708 5.57635 9.721 5.83753 9.81826 6.03201C10.0445 6.48431 10.2539 7.01868 10.2539 7.59281C10.2538 8.15425 10.0535 8.78179 9.40555 9.42978C9.29621 9.53912 9.29621 9.7164 9.40555 9.82574C9.5149 9.93508 9.69218 9.93508 9.80152 9.82574C10.549 9.07831 10.8138 8.31046 10.8138 7.59281C10.8138 6.88785 10.5581 6.25944 10.3191 5.78153C10.1838 5.5109 9.93245 5.2007 9.63796 4.88426C9.33891 4.56292 8.97683 4.21592 8.60212 3.87045C8.31335 3.60422 8.0192 3.34065 7.73799 3.08868C7.27966 2.678 6.85571 2.29813 6.54545 1.98773C5.45092 0.892682 3.49125 0.459503 1.96317 1.98767C0.430842 3.5201 0.953306 5.55991 1.96334 6.56985ZM1.96334 6.56985C1.96335 6.56986 1.96332 6.56984 1.96334 6.56985ZM14.4525 9.89534L13.5225 8.96512C13.4132 8.85576 13.2359 8.85574 13.1265 8.96507C13.0172 9.0744 13.0172 9.25168 13.1265 9.36104L14.0568 10.2915C14.1309 10.3656 14.2293 10.5244 14.309 10.7633C14.3867 10.9965 14.44 11.2864 14.44 11.6049C14.4401 12.239 14.2299 12.9782 13.5918 13.6164C12.3289 14.8794 10.7266 14.5422 9.80115 13.6164C9.48173 13.2968 9.0357 12.897 8.56687 12.4767C8.28809 12.2268 8.00124 11.9697 7.72816 11.7179C7.357 11.3757 7.00725 11.04 6.72279 10.7343C6.43378 10.4237 6.22988 10.1625 6.13261 9.96806C5.90641 9.51576 5.69701 8.98138 5.69702 8.40726C5.69702 7.84582 5.89733 7.21828 6.54532 6.57029C6.65466 6.46095 6.65466 6.28367 6.54532 6.17432C6.43597 6.06498 6.25869 6.06498 6.14935 6.17432C5.40192 6.92176 5.13705 7.6896 5.13704 8.40725C5.13703 9.11222 5.39277 9.74062 5.63178 10.2185C5.76712 10.4892 6.01839 10.7993 6.31285 11.1158C6.61187 11.4371 6.97391 11.7841 7.34858 12.1296C7.6374 12.3959 7.93161 12.6595 8.21287 12.9115C8.67106 13.3221 9.09489 13.7019 9.40509 14.0123C10.4996 15.1073 12.4597 15.5405 13.9877 14.0124C14.745 13.255 15 12.3662 15 11.6049C15 11.2258 14.9369 10.8761 14.8402 10.5861C14.7454 10.3019 14.611 10.0537 14.4525 9.89534ZM14.4525 9.89534C14.4525 9.8953 14.4526 9.89538 14.4525 9.89534Z" stroke="black" stroke-width="0.5"/>
</svg>
