<svg width="38" height="38" viewBox="0 0 38 38" fill="none" xmlns="http://www.w3.org/2000/svg">
<circle cx="19" cy="19" r="19" fill="#00ACEE"/>
<path fill-rule="evenodd" clip-rule="evenodd" d="M29.4036 13.885C29.4036 13.6224 29.3926 13.3708 29.3816 13.1089C30.4369 12.2868 31.3415 11.2481 32.0625 10.06C31.1048 10.5166 30.0715 10.8251 28.9826 10.9506C30.0922 10.2314 30.9425 9.0782 31.3409 7.6967C30.3069 8.35899 29.1546 8.83823 27.9383 9.0782C26.9574 7.90238 25.5691 7.14821 24.0282 7.12559C21.0679 7.07965 18.6657 9.72884 18.6657 13.0513C18.6657 13.5196 18.709 13.9762 18.806 14.4211C14.3482 14.1133 10.396 11.6581 7.75711 7.94763C7.29412 8.83823 7.02513 9.87693 7.02513 10.9849C7.02513 13.0972 7.97243 14.9703 9.4157 16.0666C8.53241 16.0206 7.70344 15.7464 6.98115 15.2788V15.3584C6.98115 18.3044 8.83374 20.7589 11.289 21.341C10.837 21.4788 10.363 21.5473 9.87869 21.5473C9.52304 21.5357 9.19003 21.5021 8.86607 21.4212C9.54438 23.8414 11.5263 25.5999 13.8735 25.6575C12.032 27.268 9.72802 28.2382 7.21847 28.2265C6.78717 28.2265 6.35651 28.1922 5.9375 28.1346C8.30674 29.8706 11.128 30.875 14.1535 30.875C24.0081 30.8743 29.4036 21.7749 29.4036 13.885Z" fill="white"/>
</svg>
