<svg width="15" height="19" viewBox="0 0 15 19" fill="none" xmlns="http://www.w3.org/2000/svg">
<path d="M10.9375 0.267029H12.832V8.53851C12.832 9.97732 12.6693 11.1199 12.3438 11.9662C12.0182 12.8126 11.429 13.5027 10.5762 14.0366C9.72982 14.5639 8.61654 14.8276 7.23633 14.8276C5.89518 14.8276 4.79818 14.5965 3.94531 14.1342C3.09245 13.672 2.48372 13.0047 2.11914 12.1323C1.75456 11.2534 1.57227 10.0554 1.57227 8.53851V0.267029H3.4668V8.52875C3.4668 9.77224 3.58073 10.6902 3.80859 11.2827C4.04297 11.8686 4.4401 12.3211 5 12.6401C5.56641 12.9591 6.25651 13.1186 7.07031 13.1186C8.46354 13.1186 9.45638 12.8028 10.0488 12.1713C10.6413 11.5398 10.9375 10.3256 10.9375 8.52875V0.267029Z" fill="black"/>
<path d="M0 17.435H14.4434V18.8998H0V17.435Z" fill="black"/>
</svg>
