<svg width="23" height="23" viewBox="0 0 23 23" fill="none" xmlns="http://www.w3.org/2000/svg">
<g clip-path="url(#clip0)">
<path fill-rule="evenodd" clip-rule="evenodd" d="M10.7831 18.4901C15.3642 18.4901 19.078 14.7763 19.078 10.1952C19.078 5.61412 15.3642 1.90039 10.7831 1.90039C6.20201 1.90039 2.48828 5.61412 2.48828 10.1952C2.48828 14.7763 6.20201 18.4901 10.7831 18.4901ZM10.7831 19.5213C15.9338 19.5213 20.1092 15.3459 20.1092 10.1952C20.1092 5.04457 15.9338 0.869141 10.7831 0.869141C5.63246 0.869141 1.45703 5.04457 1.45703 10.1952C1.45703 15.3459 5.63246 19.5213 10.7831 19.5213Z" fill="#333333"/>
<path fill-rule="evenodd" clip-rule="evenodd" d="M10.7831 9.67974C11.0679 9.67974 11.2989 9.67974 11.2989 9.67974H14.3361C14.6208 9.67974 14.8517 9.91059 14.8517 10.1954C14.8517 10.4801 14.6208 10.711 14.3361 10.711H11.2989C11.2989 10.711 11.0679 10.711 10.7831 10.711C10.4983 10.711 10.2676 10.711 10.2676 10.711H7.23046C6.94569 10.711 6.71484 10.4801 6.71484 10.1954C6.71484 9.91059 6.94569 9.67974 7.23046 9.67974H10.2676C10.2676 9.67974 10.4983 9.67974 10.7831 9.67974ZM16.636 16.0482C16.8374 15.8468 17.1639 15.8468 17.3653 16.0482L22.2503 20.9333C22.4517 21.1346 22.4517 21.4611 22.2503 21.6625C22.049 21.8638 21.7225 21.8638 21.5211 21.6625L16.636 16.7774C16.4347 16.576 16.4347 16.2495 16.636 16.0482Z" fill="#333333"/>
<path fill-rule="evenodd" clip-rule="evenodd" d="M10.7831 18.4901C15.3642 18.4901 19.078 14.7763 19.078 10.1952C19.078 5.61412 15.3642 1.90039 10.7831 1.90039C6.20201 1.90039 2.48828 5.61412 2.48828 10.1952C2.48828 14.7763 6.20201 18.4901 10.7831 18.4901ZM10.7831 19.5213C15.9338 19.5213 20.1092 15.3459 20.1092 10.1952C20.1092 5.04457 15.9338 0.869141 10.7831 0.869141C5.63246 0.869141 1.45703 5.04457 1.45703 10.1952C1.45703 15.3459 5.63246 19.5213 10.7831 19.5213Z" stroke="#333333" stroke-width="1.3" stroke-linecap="round"/>
<path fill-rule="evenodd" clip-rule="evenodd" d="M10.7831 9.67974C11.0679 9.67974 11.2989 9.67974 11.2989 9.67974H14.3361C14.6208 9.67974 14.8517 9.91059 14.8517 10.1954C14.8517 10.4801 14.6208 10.711 14.3361 10.711H11.2989C11.2989 10.711 11.0679 10.711 10.7831 10.711C10.4983 10.711 10.2676 10.711 10.2676 10.711H7.23046C6.94569 10.711 6.71484 10.4801 6.71484 10.1954C6.71484 9.91059 6.94569 9.67974 7.23046 9.67974H10.2676C10.2676 9.67974 10.4983 9.67974 10.7831 9.67974ZM16.636 16.0482C16.8374 15.8468 17.1639 15.8468 17.3653 16.0482L22.2503 20.9333C22.4517 21.1346 22.4517 21.4611 22.2503 21.6625C22.049 21.8638 21.7225 21.8638 21.5211 21.6625L16.636 16.7774C16.4347 16.576 16.4347 16.2495 16.636 16.0482Z" stroke="#333333" stroke-width="1.3" stroke-linecap="round"/>
</g>
<defs>
<clipPath id="clip0">
<rect width="22" height="22" fill="white" transform="translate(0.671875 0.0834351)"/>
</clipPath>
</defs>
</svg>
