<svg width="23" height="23" viewBox="0 0 23 23" fill="none" xmlns="http://www.w3.org/2000/svg">
<g clip-path="url(#clip0)">
<path fill-rule="evenodd" clip-rule="evenodd" d="M10.7831 18.4901C15.3642 18.4901 19.078 14.7764 19.078 10.1952C19.078 5.61413 15.3642 1.90041 10.7831 1.90041C6.20201 1.90041 2.48828 5.61413 2.48828 10.1952C2.48828 14.7764 6.20201 18.4901 10.7831 18.4901ZM10.7831 19.5213C15.9338 19.5213 20.1092 15.3459 20.1092 10.1952C20.1092 5.04459 15.9338 0.869156 10.7831 0.869156C5.63246 0.869156 1.45703 5.04459 1.45703 10.1952C1.45703 15.3459 5.63246 19.5213 10.7831 19.5213Z" fill="#333333"/>
<path fill-rule="evenodd" clip-rule="evenodd" d="M10.7833 6.12696C11.068 6.12696 11.2989 6.35782 11.2989 6.64259V9.67976H14.3361C14.6208 9.67976 14.8517 9.91061 14.8517 10.1954C14.8517 10.4802 14.6208 10.711 14.3361 10.711H11.2989V13.7482C11.2989 14.0329 11.068 14.2638 10.7833 14.2638C10.4985 14.2638 10.2676 14.0329 10.2676 13.7482V10.711H7.23046C6.94569 10.711 6.71484 10.4802 6.71484 10.1954C6.71484 9.91061 6.94569 9.67976 7.23046 9.67976H10.2676V6.64259C10.2676 6.35782 10.4985 6.12696 10.7833 6.12696ZM16.636 16.0482C16.8374 15.8468 17.1639 15.8468 17.3653 16.0482L22.2503 20.9333C22.4517 21.1346 22.4517 21.4611 22.2503 21.6625C22.049 21.8638 21.7225 21.8638 21.5211 21.6625L16.636 16.7774C16.4347 16.576 16.4347 16.2495 16.636 16.0482Z" fill="#333333"/>
<path fill-rule="evenodd" clip-rule="evenodd" d="M10.7831 18.4901C15.3642 18.4901 19.078 14.7764 19.078 10.1952C19.078 5.61413 15.3642 1.90041 10.7831 1.90041C6.20201 1.90041 2.48828 5.61413 2.48828 10.1952C2.48828 14.7764 6.20201 18.4901 10.7831 18.4901ZM10.7831 19.5213C15.9338 19.5213 20.1092 15.3459 20.1092 10.1952C20.1092 5.04459 15.9338 0.869156 10.7831 0.869156C5.63246 0.869156 1.45703 5.04459 1.45703 10.1952C1.45703 15.3459 5.63246 19.5213 10.7831 19.5213Z" stroke="#333333" stroke-width="1.3" stroke-linecap="round"/>
<path fill-rule="evenodd" clip-rule="evenodd" d="M10.7833 6.12696C11.068 6.12696 11.2989 6.35782 11.2989 6.64259V9.67976H14.3361C14.6208 9.67976 14.8517 9.91061 14.8517 10.1954C14.8517 10.4802 14.6208 10.711 14.3361 10.711H11.2989V13.7482C11.2989 14.0329 11.068 14.2638 10.7833 14.2638C10.4985 14.2638 10.2676 14.0329 10.2676 13.7482V10.711H7.23046C6.94569 10.711 6.71484 10.4802 6.71484 10.1954C6.71484 9.91061 6.94569 9.67976 7.23046 9.67976H10.2676V6.64259C10.2676 6.35782 10.4985 6.12696 10.7833 6.12696ZM16.636 16.0482C16.8374 15.8468 17.1639 15.8468 17.3653 16.0482L22.2503 20.9333C22.4517 21.1346 22.4517 21.4611 22.2503 21.6625C22.049 21.8638 21.7225 21.8638 21.5211 21.6625L16.636 16.7774C16.4347 16.576 16.4347 16.2495 16.636 16.0482Z" stroke="#333333" stroke-width="1.3" stroke-linecap="round"/>
</g>
<defs>
<clipPath id="clip0">
<rect width="22" height="22" fill="white" transform="translate(0.671875 0.0834351)"/>
</clipPath>
</defs>
</svg>
